<svg width="251" height="71" viewBox="0 0 251 71" fill="none" xmlns="http://www.w3.org/2000/svg">
<g filter="url(#filter0_d_2329_23136)">
<rect x="12" y="8" width="227" height="47" rx="20" fill="#FF8D7E"/>
<rect x="12.35" y="8.35" width="226.3" height="46.3" rx="19.65" stroke="white" stroke-width="0.7"/>
<path d="M71.3691 22.2695C71.3691 23.334 72.0234 24.418 73.4883 24.8574L72.8535 25.834C71.8574 25.5215 71.1543 24.8818 70.7539 24.0762C70.3486 24.9502 69.626 25.6533 68.5859 26L67.9414 25.0234C69.416 24.5449 70.0996 23.3926 70.0996 22.2695V22.1426H68.2734V21.1465H73.1562V22.1426H71.3691V22.2695ZM75.3438 20.5215V26.9473H74.0938V20.5215H75.3438ZM75.5781 28.2461V29.2422H69.3867V26.3613H70.6465V28.2461H75.5781ZM84.6797 27.3867V28.4121H76.5449V27.3867H79.9727V26.0488H77.4824V23.0605H82.5117V22.084H77.4727V21.0879H83.7422V24.0371H78.7324V25.0332H83.9473V26.0488H81.2129V27.3867H84.6797ZM87.834 25.5215C87.8242 25.1113 88.1367 24.7891 88.6348 24.7891C89.1133 24.7891 89.4258 25.1113 89.4258 25.5215C89.4258 25.9512 89.1133 26.2539 88.6348 26.2539C88.1465 26.2539 87.8242 25.9512 87.834 25.5215ZM95.8711 22.9336C95.8613 24.291 96.584 25.8535 98.0488 26.5273L97.3555 27.5039C96.3643 27.0498 95.6562 26.1416 95.2656 25.0723C94.8652 26.249 94.1377 27.2451 93.1074 27.7285L92.3848 26.7422C93.8691 26.0488 94.6113 24.3984 94.6211 22.9336V22.3867H92.7363V21.3711H97.6582V22.3867H95.8711V22.9336ZM99.6016 20.5117V23.9004H100.91V24.9453H99.6016V29.3984H98.3516V20.5117H99.6016ZM108.703 20.5117V29.3984H107.443V20.5117H108.703ZM106.037 21.4395C106.037 24.1348 105.09 26.3711 101.916 27.875L101.262 26.8789C103.557 25.7949 104.567 24.3887 104.768 22.416H101.74V21.4395H106.037ZM117.58 20.5117V29.3984H116.408V20.5117H117.58ZM115.725 20.707V29.0078H114.543V26.0781H113.283V25.0723H114.543V23.8613H113.449C113.034 25.3262 112.136 26.5664 110.471 27.5527L109.738 26.6738C111.54 25.6094 112.331 24.3154 112.502 22.5723H110.256V21.5664H113.742C113.742 22.0107 113.713 22.4404 113.664 22.8555H114.543V20.707H115.725ZM120.021 20.9121V21.9668H121.838V20.9121H123.088V24.7891H118.781V20.9121H120.021ZM120.021 23.8125H121.838V22.9043H120.021V23.8125ZM125.568 20.5117V22.2402H126.77V23.2461H125.568V25.0332H124.318V20.5117H125.568ZM125.568 25.3652V27.7773H120.91V28.3535H125.822V29.3398H119.689V26.8887H124.328V26.332H119.67V25.3652H125.568ZM137.57 24.5449V25.5508H134.133V26.2051C135.681 26.3223 136.594 26.8789 136.604 27.7969C136.594 28.8223 135.432 29.3984 133.508 29.3984C131.555 29.3984 130.393 28.8223 130.393 27.7969C130.393 26.874 131.315 26.3174 132.893 26.2051V25.5508H129.465V24.5449H137.57ZM133.508 27.123C132.277 27.1328 131.652 27.3477 131.662 27.7969C131.652 28.2266 132.277 28.4609 133.508 28.4609C134.709 28.4609 135.344 28.2266 135.354 27.7969C135.344 27.3477 134.709 27.1328 133.508 27.123ZM136.838 20.8926V21.8691H134.426C134.636 22.4941 135.539 23.0947 137.229 23.2363L136.789 24.2129C135.114 24.0518 133.981 23.417 133.508 22.5527C133.039 23.417 131.926 24.0518 130.236 24.2129L129.826 23.2363C131.472 23.0947 132.38 22.4893 132.609 21.8691H130.207V20.8926H136.838ZM145.549 20.5215V25.5312H144.299V20.5215H145.549ZM145.549 25.9414V29.3008H139.592V25.9414H145.549ZM140.822 26.9277V28.3047H144.328V26.9277H140.822ZM141.516 21.7031C141.506 22.7871 142.16 23.8125 143.596 24.2617L142.99 25.209C141.975 24.9111 141.271 24.2959 140.871 23.5C140.466 24.3643 139.743 25.0479 138.684 25.375L138.078 24.3984C139.562 23.9492 140.217 22.8164 140.217 21.7031V20.8438H141.516V21.7031ZM153.615 21.3613C153.605 24.0957 152.873 26.3906 149.67 28.0508L148.986 27.1133C150.393 26.3711 151.267 25.5459 151.779 24.5645L149.201 24.7988L149.035 23.7441L152.17 23.5586C152.272 23.1826 152.336 22.7822 152.375 22.3574H149.514V21.3613H153.615ZM156.545 20.5117V29.3984H155.305V24.9453H153.596V23.9297H155.305V20.5117H156.545ZM165.822 25.4727V26.4688H163.986V29.418H162.736V26.4688H160.822V29.418H159.572V26.4688H157.688V25.4727H165.822ZM164.846 20.9316V24.5156H158.645V20.9316H164.846ZM159.875 21.918V23.5195H163.605V21.918H159.875ZM173.811 20.5117V29.3984H172.57V20.5117H173.811ZM168.049 21.3613V26.1367C169.25 26.1221 170.539 26.0098 171.848 25.7559L172.004 26.7812C170.441 27.1035 168.977 27.2109 167.6 27.2012H166.818V21.3613H168.049ZM179.992 21.2441V22.2598H176.701V23.7246H179.621V24.7012H176.701V26.3809C178.063 26.3711 179.152 26.3223 180.393 26.127L180.51 27.1328C179.113 27.3379 177.834 27.377 176.232 27.377H175.471V21.2441H179.992ZM182.453 20.5117V29.3984H181.193V20.5117H182.453ZM41.7793 38.2031L42.6191 35.4199H43.6543L43.166 38.2031H41.7793ZM43.9473 38.2031L44.7871 35.4199H45.8223L45.334 38.2031H43.9473ZM54.0742 34.5215V41.0156H52.8242V34.5215H54.0742ZM54.3086 42.2461V43.2422H48.1172V40.4395H49.377V42.2461H54.3086ZM50.0898 36.582C50.0801 37.5781 50.7539 38.5547 52.2188 38.9551L51.623 39.9316C50.5977 39.6484 49.8896 39.0576 49.4844 38.3008C49.084 39.126 48.3613 39.7803 47.3066 40.0781L46.7109 39.1113C48.1758 38.6816 48.8301 37.6367 48.8301 36.582V36.5137H47.0137V35.5469H48.8301V34.5605H50.0996V35.5469H51.9062V36.5137H50.0898V36.582ZM62.4336 35.0293V35.8301C62.4336 36.6602 62.4336 37.5684 62.209 38.8086H63.3809V39.8145H59.9141V43.4082H58.6641V39.8145H55.2754V38.8086H60.9492C61.1738 37.6611 61.1934 36.792 61.1934 36.0254H56.2031V35.0293H62.4336ZM71.623 34.5117V43.3984H70.4316V34.5117H71.623ZM69.7676 34.6387V42.9883H68.5957V38.7891H67.8828C67.7656 40.5371 67.0234 41.5918 65.9297 41.5918C64.7578 41.5918 63.9961 40.3613 63.9961 38.3594C63.9961 36.3672 64.7578 35.1465 65.9297 35.1465C66.999 35.1465 67.7314 36.1426 67.873 37.8027H68.5957V34.6387H69.7676ZM65.9297 36.3184C65.4316 36.3184 65.1387 37.002 65.1484 38.3594C65.1387 39.7266 65.4316 40.4004 65.9297 40.3906C66.4375 40.4004 66.7402 39.7266 66.7402 38.3594C66.7402 37.002 66.4375 36.3184 65.9297 36.3184ZM75.9199 36.5234C75.9199 38.1934 76.5938 39.8145 78.0781 40.459L77.3164 41.4551C76.3301 40.9717 75.6709 40.0879 75.3047 38.9941C74.9141 40.1562 74.2305 41.1084 73.2148 41.6113L72.4336 40.5957C73.957 39.9121 74.6504 38.1934 74.6602 36.5234V35.1953H75.9199V36.5234ZM80.0605 34.5117V43.418H78.8301V38.3105H77.082V37.3047H78.8301V34.5117H80.0605ZM86.9746 36.2695C86.9746 37.334 87.6289 38.418 89.0938 38.8574L88.459 39.834C87.4629 39.5215 86.7598 38.8818 86.3594 38.0762C85.9541 38.9502 85.2314 39.6533 84.1914 40L83.5469 39.0234C85.0215 38.5449 85.7051 37.3926 85.7051 36.2695V36.1426H83.8789V35.1465H88.7617V36.1426H86.9746V36.2695ZM90.9492 34.5215V40.9473H89.6992V34.5215H90.9492ZM91.1836 42.2461V43.2422H84.9922V40.3613H86.252V42.2461H91.1836ZM100.285 41.3867V42.4121H92.1504V41.3867H95.5781V40.0488H93.0879V37.0605H98.1172V36.084H93.0781V35.0879H99.3477V38.0371H94.3379V39.0332H99.5527V40.0488H96.8184V41.3867H100.285ZM107.912 34.5117V37.998H109.094V39.0234H107.912V43.3984H106.662V34.5117H107.912ZM103.449 35.4199C103.439 37.8613 103.186 39.7656 101.594 41.5137L100.617 40.8203C101.828 39.5117 102.18 38.208 102.258 36.4355H101.008V35.4199H103.449ZM105.91 35.4199C105.91 37.959 105.686 40.1562 104.113 42.0898L103.127 41.3965C104.333 39.9121 104.66 38.3887 104.738 36.4355H103.742V35.4199H105.91ZM112.883 36.9336C112.883 38.3691 113.615 39.9023 115.109 40.5273L114.436 41.5039C113.386 41.0596 112.663 40.1758 112.268 39.0918C111.862 40.2686 111.125 41.2451 110.08 41.7285L109.367 40.7422C110.842 40.0879 111.604 38.4375 111.604 36.9336V36.3867H109.719V35.3711H114.738V36.3867H112.883V36.9336ZM116.877 34.5117V43.3984H115.617V34.5117H116.877ZM119.953 41.7773L119.113 44.5605H118.078L118.566 41.7773H119.953ZM126.213 36.9336C126.203 38.291 126.926 39.8535 128.391 40.5273L127.697 41.5039C126.706 41.0498 125.998 40.1416 125.607 39.0723C125.207 40.249 124.479 41.2451 123.449 41.7285L122.727 40.7422C124.211 40.0488 124.953 38.3984 124.963 36.9336V36.3867H123.078V35.3711H128V36.3867H126.213V36.9336ZM129.943 34.5117V37.9004H131.252V38.9453H129.943V43.3984H128.693V34.5117H129.943ZM139.064 34.5215V41.0156H137.824V38.9062H135.793C135.363 39.3604 134.743 39.6387 134.055 39.6387C132.707 39.6387 131.682 38.6621 131.691 37.3438C131.682 36.0059 132.707 35.0391 134.055 35.0293C134.743 35.0342 135.358 35.3076 135.793 35.7617H137.824V34.5215H139.064ZM139.279 42.2461V43.2422H133.166V40.3613H134.416V42.2461H139.279ZM134.055 36.1426C133.361 36.1426 132.863 36.5918 132.873 37.3438C132.863 38.0859 133.361 38.5352 134.055 38.5352C134.709 38.5352 135.217 38.0859 135.217 37.3438C135.217 36.5918 134.709 36.1426 134.055 36.1426ZM136.33 36.7578C136.374 36.9434 136.398 37.1387 136.398 37.3438C136.398 37.5391 136.374 37.7295 136.33 37.9102H137.824V36.7578H136.33ZM144.895 35.6836C144.895 36.9824 146.047 38.3789 148.059 38.7207L147.512 39.7559C145.964 39.4482 144.812 38.5791 144.24 37.4316C143.649 38.5693 142.497 39.4434 140.959 39.7559L140.422 38.7207C142.395 38.3691 143.557 36.9727 143.566 35.6836V35.0391H144.895V35.6836ZM148.352 41.2793V42.3047H140.217V41.2793H148.352ZM156.35 34.5215V39.4336H155.109V37.2363H153.674V36.2207H155.109V34.5215H156.35ZM151.613 39.7949V40.6055H155.119V39.7949H156.35V43.3008H150.383V39.7949H151.613ZM151.613 42.3047H155.119V41.5527H151.613V42.3047ZM153.225 34.8438V37.5H150.441V38.2715C151.789 38.2617 152.756 38.2227 153.869 38.0469L153.957 39.043C152.688 39.2383 151.574 39.2773 149.934 39.2676H149.211V36.582H152.004V35.8301H149.191V34.8438H153.225ZM165.207 34.5117V43.3984H164.035V34.5117H165.207ZM163.312 34.707V43.0078H162.15V38.9258H160.695C160.188 39.9414 159.362 40.8203 158.098 41.5527L157.395 40.6738C159.187 39.6094 159.978 38.3154 160.148 36.5723H157.883V35.5664H161.389C161.384 36.4111 161.296 37.207 161.086 37.9395H162.15V34.707H163.312ZM175.939 34.5215V41.0156H174.699V38.9062H172.668C172.238 39.3604 171.618 39.6387 170.93 39.6387C169.582 39.6387 168.557 38.6621 168.566 37.3438C168.557 36.0059 169.582 35.0391 170.93 35.0293C171.618 35.0342 172.233 35.3076 172.668 35.7617H174.699V34.5215H175.939ZM176.154 42.2461V43.2422H170.041V40.3613H171.291V42.2461H176.154ZM170.93 36.1426C170.236 36.1426 169.738 36.5918 169.748 37.3438C169.738 38.0859 170.236 38.5352 170.93 38.5352C171.584 38.5352 172.092 38.0859 172.092 37.3438C172.092 36.5918 171.584 36.1426 170.93 36.1426ZM173.205 36.7578C173.249 36.9434 173.273 37.1387 173.273 37.3438C173.273 37.5391 173.249 37.7295 173.205 37.9102H174.699V36.7578H173.205ZM184.582 34.5117V38.9844H183.342V38.3008H181.311V37.3535H183.342V36.5723H181.408C180.856 37.9102 179.587 38.7646 177.619 39.1895L177.199 38.1738C179.235 37.7686 180.178 36.9287 180.344 35.8594H177.697V34.8535H181.721C181.721 35.1221 181.701 35.3809 181.662 35.625H183.342V34.5117H184.582ZM184.582 39.3066V41.7383H179.934V42.3242H184.777V43.3105H178.684V40.8203H183.332V40.2832H178.674V39.3066H184.582ZM185.617 40.6348C186.12 40.6348 186.735 40.6299 187.385 40.6152V39.1211H186.008V35.3125H189.836V36.3184H187.229V38.125H189.914V39.1211H188.576V40.5664C189.118 40.5469 189.65 40.5078 190.119 40.4492L190.188 41.3379C188.752 41.6113 186.926 41.6504 185.783 41.6504L185.617 40.6348ZM193.527 34.5117V43.3984H192.336V39.0527H191.643V42.9883H190.48V34.6582H191.643V38.0469H192.336V34.5117H193.527ZM202.512 41.3379V42.3633H194.377V41.3379H196.193V39.1602C195.505 38.75 195.09 38.1201 195.09 37.334C195.09 35.8984 196.496 34.9414 198.43 34.9414C200.354 34.9414 201.77 35.8984 201.779 37.334C201.774 38.1006 201.369 38.7256 200.705 39.1406V41.3379H202.512ZM198.43 35.9277C197.16 35.9277 196.32 36.4355 196.32 37.334C196.32 38.2031 197.16 38.7402 198.43 38.7402C199.689 38.7402 200.539 38.2031 200.549 37.334C200.539 36.4355 199.689 35.9277 198.43 35.9277ZM197.424 41.3379H199.445V39.6094C199.128 39.6729 198.786 39.707 198.43 39.707C198.073 39.707 197.736 39.6777 197.424 39.6094V41.3379ZM204.172 42.5879C203.713 42.5879 203.342 42.2168 203.352 41.7676C203.342 41.3184 203.713 40.957 204.172 40.957C204.602 40.957 204.982 41.3184 204.982 41.7676C204.982 42.2168 204.602 42.5879 204.172 42.5879ZM209.221 35.4297L208.381 38.2129H207.346L207.834 35.4297H209.221ZM207.053 35.4297L206.213 38.2129H205.178L205.666 35.4297H207.053Z" fill="white"/>
</g>
<defs>
<filter id="filter0_d_2329_23136" x="0" y="0" width="251" height="71" filterUnits="userSpaceOnUse" color-interpolation-filters="sRGB">
<feFlood flood-opacity="0" result="BackgroundImageFix"/>
<feColorMatrix in="SourceAlpha" type="matrix" values="0 0 0 0 0 0 0 0 0 0 0 0 0 0 0 0 0 0 127 0" result="hardAlpha"/>
<feOffset dy="4"/>
<feGaussianBlur stdDeviation="6"/>
<feColorMatrix type="matrix" values="0 0 0 0 0 0 0 0 0 0 0 0 0 0 0 0 0 0 0.1 0"/>
<feBlend mode="normal" in2="BackgroundImageFix" result="effect1_dropShadow_2329_23136"/>
<feBlend mode="normal" in="SourceGraphic" in2="effect1_dropShadow_2329_23136" result="shape"/>
</filter>
</defs>
</svg>
