<svg width="251" height="71" viewBox="0 0 251 71" fill="none" xmlns="http://www.w3.org/2000/svg">
<g filter="url(#filter0_d_2329_23134)">
<rect x="12" y="8" width="227" height="47" rx="20" fill="#FC7267"/>
<rect x="12.35" y="8.35" width="226.3" height="46.3" rx="19.65" stroke="white" stroke-width="0.7"/>
<path d="M44.6748 21.1562V21.7129C44.6748 22.3281 44.6748 23.2168 44.4697 24.3203L43.249 24.2031C43.4053 23.3486 43.4443 22.7041 43.4541 22.1719H40.1045V21.1562H44.6748ZM42.4678 23.207V24.9062C43.3516 24.8721 44.2598 24.8037 45.0947 24.6816L45.1631 25.5801C43.3174 25.9219 41.2275 25.9512 39.6846 25.9609L39.5771 24.9648C40.0752 24.9648 40.6367 24.9648 41.2275 24.9453V23.207H42.4678ZM46.8525 20.5117V23.2168H47.9268V24.2617H46.8525V27.1621H45.5732V20.5117H46.8525ZM47.126 28.2461V29.2422H40.8857V26.5664H42.1357V28.2461H47.126ZM55.7783 20.5215V25.5312H54.5283V20.5215H55.7783ZM55.7783 25.9414V29.3008H49.8213V25.9414H55.7783ZM51.0518 26.9277V28.3047H54.5576V26.9277H51.0518ZM51.7451 21.7031C51.7354 22.7871 52.3896 23.8125 53.8252 24.2617L53.2197 25.209C52.2041 24.9111 51.501 24.2959 51.1006 23.5C50.6953 24.3643 49.9727 25.0479 48.9131 25.375L48.3076 24.3984C49.792 23.9492 50.4463 22.8164 50.4463 21.7031V20.8438H51.7451V21.7031ZM60.251 22.5234C60.2412 24.1152 60.9248 25.7266 62.3506 26.4102L61.5986 27.4062C60.6465 26.9375 60.0068 26.0586 59.6357 24.9844C59.25 26.1367 58.5615 27.0791 57.5557 27.5723L56.7842 26.5664C58.2881 25.873 59.001 24.1738 59.001 22.5234V21.1953H60.251V22.5234ZM63.9912 20.5117V23.9395H65.2998V24.9941H63.9912V29.3984H62.7412V20.5117H63.9912ZM70.3193 27.416V25.5898H68.4932V24.3691H70.3193V22.543H71.54V24.3691H73.3662V25.5898H71.54V27.416H70.3193ZM80.2217 22.5234C80.2217 24.1543 80.9639 25.7949 82.4678 26.4297L81.7354 27.4258C80.7197 26.9668 80.0166 26.083 79.6162 24.9844C79.2109 26.1807 78.4834 27.1475 77.3994 27.6406L76.6475 26.6055C78.2002 25.9512 78.9521 24.252 78.9619 22.5234V21.1953H80.2217V22.5234ZM84.2061 20.5117V29.418H82.9463V20.5117H84.2061ZM92.458 20.5117V23.002H93.6592V24.0273H92.458V26.8789H91.1982V20.5117H92.458ZM90.0361 21.1758C90.0361 23.5781 88.5322 25.2578 85.8662 26.0098L85.3486 25.0234C87.3359 24.4668 88.4639 23.4365 88.6689 22.1914H85.7393V21.1758H90.0361ZM92.7607 28.2461V29.2422H86.6768V26.2246H87.9365V28.2461H92.7607ZM102.185 27.416V28.4121H94.0498V27.416H96.0713V25.7266H94.7236V24.7207H95.915V22.2207H94.6846V21.2246H101.501V22.2207H100.251V24.7207H101.462V25.7266H100.124V27.416H102.185ZM97.165 24.7207H99.0205V22.2207H97.165V24.7207ZM97.3213 27.416H98.874V25.7266H97.3213V27.416ZM112.468 20.5117V29.3984H111.208V20.5117H112.468ZM109.802 21.4395C109.802 24.1348 108.854 26.3711 105.681 27.875L105.026 26.8789C107.321 25.7949 108.332 24.3887 108.532 22.416H105.505V21.4395H109.802ZM120.69 20.5215V23.0215H121.892V24.0469H120.69V27.0645H119.44V20.5215H120.69ZM121.013 28.2461V29.2422H114.929V26.3906H116.169V28.2461H121.013ZM115.144 21.1465V22.4355H116.96V21.1465H118.21V25.6484H113.903V21.1465H115.144ZM115.144 24.6719H116.96V23.3926H115.144V24.6719ZM124.157 27.7773L123.317 30.5605H122.282L122.771 27.7773H124.157ZM134.509 21.2832V22.1523C134.499 23.2363 134.499 24.457 134.177 26.2441L132.956 26.1367C133.249 24.5107 133.259 23.2998 133.259 22.2695H127.937V21.2832H134.509ZM135.241 27.2988V28.3145H127.136V27.2988H128.864V24.5059H130.104V27.2988H131.081V24.5059H132.312V27.2988H135.241ZM143.444 20.5117V29.3984H142.243V24.9551H141.413V28.9688H140.241V20.6582H141.413V23.9492H142.243V20.5117H143.444ZM137.39 21.498V26.1367C138.103 26.1221 138.884 26.0586 139.743 25.8926L139.87 26.9668C138.679 27.1719 137.663 27.2305 136.745 27.2305H136.14V21.498H137.39ZM153.776 20.5215V23.2461H154.978V24.2617H153.776V27.1523H152.526V20.5215H153.776ZM151.999 21.4492V22.4355H146.726V21.4492H148.747V20.502H149.987V21.4492H151.999ZM149.362 22.748C150.651 22.748 151.55 23.4414 151.55 24.4668C151.55 25.4922 150.651 26.166 149.362 26.166C148.063 26.166 147.155 25.4922 147.155 24.4668C147.155 23.4414 148.063 22.748 149.362 22.748ZM149.362 23.6953C148.767 23.7051 148.366 23.9785 148.376 24.4668C148.366 24.9551 148.767 25.2188 149.362 25.2188C149.958 25.2188 150.368 24.9551 150.368 24.4668C150.368 23.9785 149.958 23.7051 149.362 23.6953ZM154.099 28.2461V29.2422H148.015V26.6445H149.255V28.2461H154.099ZM162.858 20.5117V25.7852H161.618V23.6855H160.231V22.6797H161.618V20.5117H162.858ZM159.821 25.9805C161.716 25.9902 162.878 26.6152 162.888 27.6992C162.878 28.7734 161.716 29.4082 159.821 29.4082C157.927 29.4082 156.765 28.7734 156.765 27.6992C156.765 26.6152 157.927 25.9902 159.821 25.9805ZM159.821 26.9375C158.64 26.9375 158.005 27.1816 158.005 27.6992C158.005 28.207 158.64 28.4609 159.821 28.4609C161.003 28.4609 161.647 28.207 161.647 27.6992C161.647 27.1816 161.003 26.9375 159.821 26.9375ZM160.495 21.0488V22.0449H158.728C158.757 23.0801 159.382 24.125 160.769 24.584L160.153 25.5605C159.172 25.2432 158.498 24.5986 158.112 23.793C157.717 24.7012 157.009 25.4336 155.954 25.7949L155.31 24.8086C156.77 24.3203 157.424 23.1582 157.458 22.0449H155.671V21.0488H160.495ZM170.876 21.3613C170.866 24.0957 170.134 26.3906 166.931 28.0508L166.247 27.1133C167.653 26.3711 168.527 25.5459 169.04 24.5645L166.462 24.7988L166.296 23.7441L169.431 23.5586C169.533 23.1826 169.597 22.7822 169.636 22.3574H166.774V21.3613H170.876ZM173.806 20.5117V29.3984H172.565V24.9453H170.856V23.9297H172.565V20.5117H173.806ZM182.429 20.5117V29.3984H181.169V20.5117H182.429ZM180.212 21.332V22.3281H179.421V26.1855C179.812 26.1611 180.197 26.1221 180.573 26.0781L180.632 27.0059C178.737 27.3184 176.687 27.3477 175.056 27.3574L174.938 26.3418L175.964 26.332V22.3281H175.183V21.332H180.212ZM177.175 26.3027L178.21 26.2637V22.3281H177.175V26.3027ZM187.771 21.498V22.4844H186.403C186.413 23.3682 186.921 24.2178 188.034 24.6133L187.478 25.541C186.687 25.2676 186.154 24.7549 185.837 24.1152C185.524 24.8184 184.987 25.3848 184.177 25.6875L183.591 24.7891C184.704 24.3545 185.217 23.4365 185.222 22.4844H183.845V21.498H185.222V20.6191H186.403V21.498H187.771ZM191.237 20.5215V26.5273H190.056V23.6562H189.343V25.7461H188.171V20.6582H189.343V22.6406H190.056V20.5215H191.237ZM188.776 26.2539C188.767 27.1914 189.733 28.1582 191.628 28.3926L191.198 29.3594C189.743 29.1592 188.698 28.5586 188.161 27.7285C187.604 28.5586 186.56 29.1592 185.114 29.3594L184.675 28.3926C186.579 28.1582 187.526 27.1914 187.526 26.2539V26.1074H188.776V26.2539ZM202.253 20.5117V29.3984H201.062V24.916H200.261V28.9883H199.079V20.6387H200.261V23.9004H201.062V20.5117H202.253ZM198.337 21.4297V27.1621H194.802V21.4297H198.337ZM195.964 22.416V26.1855H197.175V22.416H195.964ZM208.464 21.4395V22.4258H206.647C206.677 23.3291 207.36 24.252 208.786 24.623L208.21 25.5801C207.185 25.3164 206.462 24.7451 206.052 24.0078C205.651 24.8281 204.924 25.4775 203.864 25.7754L203.269 24.8086C204.685 24.418 205.354 23.417 205.388 22.4258H203.571V21.4395H205.388V20.5215H206.657V21.4395H208.464ZM210.632 20.5215V25.8828H209.382V20.5215H210.632ZM207.604 26.0195C209.489 26.0195 210.651 26.6445 210.661 27.709C210.651 28.7832 209.489 29.3984 207.604 29.3984C205.71 29.3984 204.548 28.7832 204.548 27.709C204.548 26.6445 205.71 26.0195 207.604 26.0195ZM207.604 26.9863C206.413 26.9863 205.798 27.2305 205.798 27.709C205.798 28.1973 206.413 28.4512 207.604 28.4512C208.796 28.4512 209.431 28.1973 209.431 27.709C209.431 27.2305 208.796 26.9863 207.604 26.9863ZM52.4385 38.2031L53.2783 35.4199H54.3135L53.8252 38.2031H52.4385ZM54.6064 38.2031L55.4463 35.4199H56.4814L55.9932 38.2031H54.6064ZM65.5635 37.8809V38.8965H64.3037V43.3789H63.0537V34.5117H64.3037V37.8809H65.5635ZM58.8154 35.3613V40.1758C59.9531 40.1611 61.1738 40.0537 62.458 39.7949L62.585 40.8301C61.1006 41.1328 59.6553 41.2109 58.3467 41.2109H57.5752V35.3613H58.8154ZM68.5811 35.0391C69.9482 35.0391 71.0127 35.9375 71.0225 37.2168C71.0127 38.291 70.2656 39.0967 69.2158 39.3262V40.5371C69.9189 40.5078 70.6172 40.4492 71.2764 40.3613L71.3643 41.2793C69.5088 41.6309 67.5068 41.6309 65.9932 41.6113L65.8271 40.6055C66.4668 40.6006 67.2041 40.6006 67.9756 40.5859V39.3359C66.8867 39.1162 66.1396 38.3057 66.1396 37.2168C66.1396 35.9375 67.1748 35.0391 68.5811 35.0391ZM68.5811 36.0938C67.8779 36.0938 67.3506 36.5039 67.3604 37.2168C67.3506 37.9199 67.8779 38.3398 68.5811 38.3398C69.2646 38.3398 69.792 37.9199 69.792 37.2168C69.792 36.5039 69.2646 36.0938 68.5811 36.0938ZM72.9951 34.5117V37.998H74.2061V39.043H72.9951V43.3984H71.7451V34.5117H72.9951ZM84.9873 39.0918V40.0684H76.8623V39.0918H80.2998V38.5449H77.8779V34.7266H84.04V35.6836H79.1279V36.1816H83.835V37.0801H79.1279V37.5879H84.1182V38.5449H81.5498V39.0918H84.9873ZM80.9248 40.4785C82.8877 40.4688 84.0107 40.9961 84.0205 41.9336C84.0107 42.8906 82.8877 43.3984 80.9248 43.3984C78.9326 43.3984 77.8096 42.8906 77.8096 41.9336C77.8096 40.9961 78.9326 40.4688 80.9248 40.4785ZM80.9248 41.3965C79.6455 41.3965 79.0498 41.5625 79.0596 41.9336C79.0498 42.3145 79.6455 42.4805 80.9248 42.4805C82.1748 42.4805 82.7607 42.3145 82.7705 41.9336C82.7607 41.5625 82.1748 41.3965 80.9248 41.3965ZM92.5361 34.5117V37.9883H93.8447V39.0137H92.5361V43.3984H91.3057V34.5117H92.5361ZM90.7002 35.8398V36.8359H85.4756V35.8398H87.4873V34.6484H88.7373V35.8398H90.7002ZM88.1123 37.334C89.4111 37.334 90.3779 38.2129 90.3779 39.4531C90.3779 40.6934 89.4111 41.5723 88.1123 41.5723C86.8037 41.5723 85.8369 40.6934 85.8369 39.4531C85.8369 38.2129 86.8037 37.334 88.1123 37.334ZM88.1123 38.3398C87.4873 38.3496 87.0283 38.7695 87.0283 39.4531C87.0283 40.1465 87.4873 40.5566 88.1123 40.5469C88.7373 40.5566 89.1865 40.1465 89.1865 39.4531C89.1865 38.7695 88.7373 38.3496 88.1123 38.3398ZM101.384 36.9336V37.9102H95.1729V34.8242H96.4131V36.9336H101.384ZM102.292 38.8672V39.8438H94.1572V38.8672H102.292ZM101.442 42.207V43.2031H95.0947V40.5664H96.3447V42.207H101.442ZM108.386 36.5234C108.376 38.1152 109.06 39.7266 110.485 40.4102L109.733 41.4062C108.781 40.9375 108.142 40.0586 107.771 38.9844C107.385 40.1367 106.696 41.0791 105.69 41.5723L104.919 40.5664C106.423 39.873 107.136 38.1738 107.136 36.5234V35.1953H108.386V36.5234ZM112.126 34.5117V37.9395H113.435V38.9941H112.126V43.3984H110.876V34.5117H112.126ZM120.808 34.5215V36.6211H122.009V37.6562H120.808V39.7949H119.558V34.5215H120.808ZM120.808 40.166V43.3008H114.987V40.166H120.808ZM116.208 41.1426V42.3047H119.587V41.1426H116.208ZM118.151 34.9512V37.6562H115.319V38.457C116.789 38.4473 117.785 38.3984 118.913 38.2031L119.05 39.1797C117.771 39.4336 116.628 39.4727 114.831 39.4727H114.079V36.7188H116.94V35.9473H114.069V34.9512H118.151ZM124.274 41.7773L123.435 44.5605H122.399L122.888 41.7773H124.274ZM134.919 34.5117V43.3984H133.718V38.9551H132.888V42.9688H131.716V34.6582H132.888V37.9492H133.718V34.5117H134.919ZM128.864 35.498V40.1367C129.577 40.1221 130.358 40.0586 131.218 39.8926L131.345 40.9668C130.153 41.1719 129.138 41.2305 128.22 41.2305H127.614V35.498H128.864ZM141.657 36.5234C141.657 38.1543 142.399 39.7949 143.903 40.4297L143.171 41.4258C142.155 40.9668 141.452 40.083 141.052 38.9844C140.646 40.1807 139.919 41.1475 138.835 41.6406L138.083 40.6055C139.636 39.9512 140.388 38.252 140.397 36.5234V35.1953H141.657V36.5234ZM145.642 34.5117V43.418H144.382V34.5117H145.642ZM153.894 34.5117V37.002H155.095V38.0273H153.894V40.8789H152.634V34.5117H153.894ZM151.472 35.1758C151.472 37.5781 149.968 39.2578 147.302 40.0098L146.784 39.0234C148.771 38.4668 149.899 37.4365 150.104 36.1914H147.175V35.1758H151.472ZM154.196 42.2461V43.2422H148.112V40.2246H149.372V42.2461H154.196ZM163.19 34.5117V43.3984H161.999V34.5117H163.19ZM161.335 34.6387V42.9883H160.163V38.7891H159.45C159.333 40.5371 158.591 41.5918 157.497 41.5918C156.325 41.5918 155.563 40.3613 155.563 38.3594C155.563 36.3672 156.325 35.1465 157.497 35.1465C158.566 35.1465 159.299 36.1426 159.44 37.8027H160.163V34.6387H161.335ZM157.497 36.3184C156.999 36.3184 156.706 37.002 156.716 38.3594C156.706 39.7266 156.999 40.4004 157.497 40.3906C158.005 40.4004 158.308 39.7266 158.308 38.3594C158.308 37.002 158.005 36.3184 157.497 36.3184ZM170.964 35.2441V39.5117H166.696V35.2441H170.964ZM167.927 36.2402V38.5352H169.733V36.2402H167.927ZM173.483 34.5117V37.0703H174.685V38.0957H173.483V40.9961H172.233V34.5117H173.483ZM173.806 42.2461V43.2422H167.722V40.3613H168.962V42.2461H173.806ZM183.347 37.8809V38.8965H182.087V43.3789H180.837V34.5117H182.087V37.8809H183.347ZM176.599 35.3613V40.1758C177.736 40.1611 178.957 40.0537 180.241 39.7949L180.368 40.8301C178.884 41.1328 177.438 41.2109 176.13 41.2109H175.358V35.3613H176.599ZM191.853 41.3379V42.3633H183.718V41.3379H185.534V39.1602C184.846 38.75 184.431 38.1201 184.431 37.334C184.431 35.8984 185.837 34.9414 187.771 34.9414C189.694 34.9414 191.11 35.8984 191.12 37.334C191.115 38.1006 190.71 38.7256 190.046 39.1406V41.3379H191.853ZM187.771 35.9277C186.501 35.9277 185.661 36.4355 185.661 37.334C185.661 38.2031 186.501 38.7402 187.771 38.7402C189.03 38.7402 189.88 38.2031 189.89 37.334C189.88 36.4355 189.03 35.9277 187.771 35.9277ZM186.765 41.3379H188.786V39.6094C188.469 39.6729 188.127 39.707 187.771 39.707C187.414 39.707 187.077 39.6777 186.765 39.6094V41.3379ZM193.513 42.5879C193.054 42.5879 192.683 42.2168 192.692 41.7676C192.683 41.3184 193.054 40.957 193.513 40.957C193.942 40.957 194.323 41.3184 194.323 41.7676C194.323 42.2168 193.942 42.5879 193.513 42.5879ZM198.562 35.4297L197.722 38.2129H196.687L197.175 35.4297H198.562ZM196.394 35.4297L195.554 38.2129H194.519L195.007 35.4297H196.394Z" fill="white"/>
</g>
<defs>
<filter id="filter0_d_2329_23134" x="0" y="0" width="251" height="71" filterUnits="userSpaceOnUse" color-interpolation-filters="sRGB">
<feFlood flood-opacity="0" result="BackgroundImageFix"/>
<feColorMatrix in="SourceAlpha" type="matrix" values="0 0 0 0 0 0 0 0 0 0 0 0 0 0 0 0 0 0 127 0" result="hardAlpha"/>
<feOffset dy="4"/>
<feGaussianBlur stdDeviation="6"/>
<feColorMatrix type="matrix" values="0 0 0 0 0 0 0 0 0 0 0 0 0 0 0 0 0 0 0.1 0"/>
<feBlend mode="normal" in2="BackgroundImageFix" result="effect1_dropShadow_2329_23134"/>
<feBlend mode="normal" in="SourceGraphic" in2="effect1_dropShadow_2329_23134" result="shape"/>
</filter>
</defs>
</svg>
