<svg width="251" height="71" viewBox="0 0 251 71" fill="none" xmlns="http://www.w3.org/2000/svg">
<g filter="url(#filter0_d_2794_22786)">
<rect x="12" y="8" width="227" height="47" rx="20" fill="#FFB3A8"/>
<rect x="12.35" y="8.35" width="226.3" height="46.3" rx="19.65" stroke="white" stroke-width="0.7"/>
</g>
<path d="M59.0938 25.668H57.8438V25.3848H56.2324V24.6328H57.8438V20.5215H59.0938V25.668ZM52.2578 23.6465C54.3151 23.6465 56.0013 23.5846 57.3164 23.4609L57.375 24.2324C56.6328 24.3333 55.8385 24.4049 54.9922 24.4473V25.6875H53.7617V24.4961C53.1888 24.5091 52.7754 24.5156 52.5215 24.5156C52.3262 24.5156 52.1829 24.5124 52.0918 24.5059H51.6914L51.5645 23.6465H52.2578ZM59.0938 28.0117H54.0938V28.4707H59.2988V29.3398H52.873V27.2109H57.8535V26.7715H52.834V25.9316H59.0938V28.0117ZM54.4258 20.6387C54.862 20.6387 55.2477 20.6956 55.583 20.8096C55.9215 20.9202 56.1852 21.0765 56.374 21.2783C56.5628 21.4801 56.6589 21.7129 56.6621 21.9766C56.6589 22.25 56.5628 22.4876 56.374 22.6895C56.1885 22.888 55.9264 23.041 55.5879 23.1484C55.2526 23.2526 54.8652 23.3047 54.4258 23.3047C53.9733 23.3047 53.5762 23.2526 53.2344 23.1484C52.8958 23.041 52.6338 22.888 52.4482 22.6895C52.2627 22.4876 52.1699 22.25 52.1699 21.9766C52.1699 21.7129 52.2627 21.4801 52.4482 21.2783C52.637 21.0732 52.9023 20.9154 53.2441 20.8047C53.5859 20.694 53.9798 20.6387 54.4258 20.6387ZM54.4258 21.459C54.0905 21.4557 53.8252 21.5013 53.6299 21.5957C53.4378 21.6868 53.3451 21.8138 53.3516 21.9766C53.3483 22.1426 53.4411 22.2712 53.6299 22.3623C53.8219 22.4502 54.0872 22.4941 54.4258 22.4941C54.7578 22.4941 55.0199 22.4486 55.2119 22.3574C55.404 22.2663 55.5 22.1393 55.5 21.9766C55.5 21.8138 55.4023 21.6868 55.207 21.5957C55.0117 21.5013 54.7513 21.4557 54.4258 21.459ZM65.8516 28.5H64.377V22.8262H64.3379L62.7168 23.8418V22.543L64.4648 21.4297H65.8516V28.5ZM74.6699 29.3984H73.4297V20.5117H74.6699V29.3984ZM67.6973 26.8887L69.5039 26.8643V26.1123C69.1784 26.0537 68.8936 25.9495 68.6494 25.7998C68.4085 25.6501 68.223 25.4645 68.0928 25.2432C67.9626 25.0186 67.8991 24.7695 67.9023 24.4961C67.8991 24.1673 67.9902 23.8776 68.1758 23.627C68.3613 23.373 68.6217 23.1761 68.957 23.0361C69.2923 22.8962 69.6764 22.8262 70.1094 22.8262C70.5456 22.8262 70.9329 22.8962 71.2715 23.0361C71.61 23.1761 71.8737 23.373 72.0625 23.627C72.2513 23.8776 72.3457 24.1673 72.3457 24.4961C72.3457 24.7695 72.279 25.0186 72.1455 25.2432C72.0153 25.4645 71.8281 25.6501 71.584 25.7998C71.3431 25.9495 71.0599 26.0537 70.7344 26.1123V26.8252C71.5677 26.7829 72.3034 26.7194 72.9414 26.6348L73.0293 27.5527C72.1667 27.6992 71.2812 27.7952 70.373 27.8408C69.4681 27.8831 68.4785 27.9043 67.4043 27.9043L67.2383 26.8887H67.6973ZM72.8145 22.4746H67.4141V21.498H69.5039V20.5508H70.7441V21.498H72.8145V22.4746ZM70.1094 23.7734C69.8001 23.7734 69.5511 23.8385 69.3623 23.9688C69.1735 24.0957 69.0807 24.2715 69.084 24.4961C69.0807 24.724 69.1719 24.9014 69.3574 25.0283C69.5462 25.1553 69.7969 25.2188 70.1094 25.2188C70.4284 25.2188 70.6823 25.1569 70.8711 25.0332C71.0599 24.9062 71.1543 24.7272 71.1543 24.4961C71.1543 24.2682 71.0583 24.0908 70.8662 23.9639C70.6774 23.8369 70.4251 23.7734 70.1094 23.7734ZM76.877 30.5605H75.8418L76.3301 27.7773H77.7168L76.877 30.5605ZM88.1855 27.2891H86.9453V25.6094H85.7441V24.623H86.9453V23.7344H85.7441V22.7285H86.9453V20.5215H88.1855V27.2891ZM85.6562 22.4355H80.7148V21.4492H82.6289V20.502H83.8691V21.4492H85.6562V22.4355ZM83.2344 22.748C83.638 22.748 83.9993 22.8229 84.3184 22.9727C84.6374 23.1191 84.8864 23.3258 85.0654 23.5928C85.2477 23.8564 85.3405 24.1576 85.3438 24.4961C85.3405 24.8346 85.2477 25.1357 85.0654 25.3994C84.8864 25.6631 84.6374 25.8682 84.3184 26.0146C83.9993 26.1611 83.638 26.2344 83.2344 26.2344C82.834 26.2344 82.4743 26.1611 82.1553 26.0146C81.8395 25.8682 81.5921 25.6631 81.4131 25.3994C81.2373 25.1325 81.151 24.8314 81.1543 24.4961C81.151 24.1608 81.2373 23.8597 81.4131 23.5928C81.5921 23.3258 81.8395 23.1191 82.1553 22.9727C82.4743 22.8229 82.834 22.748 83.2344 22.748ZM83.2344 23.7148C82.9544 23.7214 82.7298 23.793 82.5605 23.9297C82.3945 24.0632 82.3132 24.252 82.3164 24.4961C82.3132 24.7435 82.3945 24.9372 82.5605 25.0771C82.7298 25.2171 82.9544 25.2871 83.2344 25.2871C83.5111 25.2871 83.7357 25.2171 83.9082 25.0771C84.0807 24.9372 84.1686 24.7435 84.1719 24.4961C84.1686 24.252 84.0807 24.0632 83.9082 23.9297C83.7357 23.793 83.5111 23.7214 83.2344 23.7148ZM88.3711 29.2422H82.2676V26.7129H83.5273V28.2461H88.3711V29.2422ZM96.7793 25.8633H95.5293V20.5117H96.7793V25.8633ZM96.7793 29.3984H95.5293V27.25H90.666V26.2539H96.7793V29.3984ZM94.5918 22.0254H92.8047C92.8079 22.3867 92.8861 22.7367 93.0391 23.0752C93.1953 23.4137 93.4313 23.7165 93.7471 23.9834C94.0661 24.2503 94.4583 24.4538 94.9238 24.5938L94.2891 25.5605C93.804 25.4108 93.3841 25.1846 93.0293 24.8818C92.6745 24.5791 92.3945 24.221 92.1895 23.8076C91.9811 24.2568 91.6947 24.6475 91.3301 24.9795C90.9655 25.3083 90.5293 25.5573 90.0215 25.7266L89.377 24.7598C89.8457 24.6068 90.2412 24.3887 90.5635 24.1055C90.889 23.819 91.1315 23.4967 91.291 23.1387C91.4505 22.7773 91.5319 22.4062 91.5352 22.0254H89.709V21.0293H94.5918V22.0254ZM101.262 22.9336C101.258 23.3991 101.338 23.8662 101.501 24.335C101.667 24.8037 101.914 25.2334 102.243 25.624C102.572 26.0114 102.971 26.3125 103.439 26.5273L102.746 27.5039C102.264 27.2826 101.846 26.9619 101.491 26.542C101.136 26.1188 100.856 25.6305 100.651 25.0771C100.446 25.6859 100.16 26.2214 99.792 26.6836C99.4274 27.1458 98.9961 27.4941 98.498 27.7285L97.7754 26.7422C98.2507 26.5208 98.6559 26.2067 98.9912 25.7998C99.3265 25.3896 99.5788 24.9355 99.748 24.4375C99.9206 23.9395 100.008 23.4382 100.012 22.9336V22.3867H98.127V21.3711H103.049V22.3867H101.262V22.9336ZM104.992 23.9004H106.301V24.9453H104.992V29.3984H103.742V20.5117H104.992V23.9004ZM112.258 22.0352C112.258 22.4323 112.331 22.8132 112.478 23.1777C112.624 23.5391 112.849 23.863 113.151 24.1494C113.454 24.4326 113.833 24.6491 114.289 24.7988L113.615 25.7754C113.156 25.6061 112.761 25.3652 112.429 25.0527C112.1 24.7402 111.84 24.3724 111.647 23.9492C111.452 24.4277 111.177 24.8411 110.822 25.1895C110.471 25.5345 110.044 25.7982 109.543 25.9805L108.869 25.0039C109.348 24.8477 109.745 24.6182 110.061 24.3154C110.38 24.0127 110.616 23.6644 110.769 23.2705C110.922 22.8766 110.998 22.4616 110.998 22.0254V21.0586H112.258V22.0352ZM116.418 27.084H115.178V23.4121H113.508V22.4062H115.178V20.5215H116.418V27.084ZM116.604 29.2422H110.5V26.3906H111.76V28.2461H116.604V29.2422ZM118.996 23.3047H120.207V21.3027H121.359V27.2891H117.824V21.3027H118.996V23.3047ZM120.207 26.293V24.2812H118.996V26.293H120.207ZM125.275 29.3984H124.084V24.916H123.283V28.9883H122.102V20.6387H123.283V23.9004H124.084V20.5117H125.275V29.3984ZM128.859 21.0391C129.312 21.0391 129.724 21.1318 130.095 21.3174C130.466 21.5029 130.759 21.7617 130.974 22.0938C131.188 22.4225 131.298 22.7969 131.301 23.2168C131.298 23.5684 131.219 23.8906 131.066 24.1836C130.913 24.4733 130.7 24.7174 130.427 24.916C130.157 25.1113 129.846 25.248 129.494 25.3262V26.542C130.233 26.5062 130.92 26.446 131.555 26.3613L131.643 27.2793C130.956 27.4095 130.241 27.499 129.499 27.5479C128.757 27.5967 127.987 27.6211 127.189 27.6211C126.975 27.6211 126.815 27.6178 126.711 27.6113H126.271L126.105 26.6055H126.652L128.254 26.5859V25.3359C127.893 25.2643 127.572 25.1309 127.292 24.9355C127.015 24.737 126.8 24.4912 126.647 24.1982C126.494 23.902 126.418 23.5749 126.418 23.2168C126.418 22.7969 126.522 22.4225 126.73 22.0938C126.942 21.7617 127.233 21.5029 127.604 21.3174C127.976 21.1318 128.394 21.0391 128.859 21.0391ZM128.859 22.0938C128.622 22.0938 128.41 22.1393 128.225 22.2305C128.039 22.3184 127.894 22.4469 127.79 22.6162C127.686 22.7855 127.635 22.9857 127.639 23.2168C127.635 23.4447 127.686 23.6449 127.79 23.8174C127.894 23.9867 128.039 24.1169 128.225 24.208C128.413 24.2959 128.625 24.3398 128.859 24.3398C129.087 24.3398 129.292 24.2943 129.475 24.2031C129.66 24.112 129.805 23.9818 129.909 23.8125C130.017 23.6432 130.07 23.4447 130.07 23.2168C130.07 22.9857 130.017 22.7855 129.909 22.6162C129.805 22.4469 129.662 22.3184 129.479 22.2305C129.297 22.1393 129.09 22.0938 128.859 22.0938ZM133.273 23.998H134.484V25.043H133.273V29.3984H132.023V20.5117H133.273V23.998ZM141.213 20.9707C141.848 20.9707 142.419 21.0716 142.927 21.2734C143.435 21.4753 143.833 21.7617 144.123 22.1328C144.413 22.5007 144.559 22.9238 144.562 23.4023C144.559 23.8385 144.442 24.2292 144.211 24.5742C143.98 24.9193 143.658 25.1992 143.244 25.4141C142.834 25.6257 142.362 25.7624 141.828 25.8242V27.3379H145.295V28.3633H137.16V27.3379H140.588V25.8193C140.057 25.7607 139.587 25.624 139.177 25.4092C138.767 25.1943 138.446 24.916 138.215 24.5742C137.987 24.2292 137.873 23.8385 137.873 23.4023C137.873 22.9238 138.016 22.5007 138.303 22.1328C138.592 21.7617 138.991 21.4753 139.499 21.2734C140.007 21.0716 140.578 20.9707 141.213 20.9707ZM141.213 21.9668C140.799 21.9668 140.433 22.0254 140.114 22.1426C139.795 22.2565 139.546 22.4225 139.367 22.6406C139.191 22.8587 139.104 23.1126 139.104 23.4023C139.104 23.7083 139.191 23.972 139.367 24.1934C139.546 24.4115 139.794 24.5791 140.109 24.6963C140.428 24.8102 140.796 24.8672 141.213 24.8672C141.633 24.8672 142.001 24.8102 142.316 24.6963C142.635 24.5824 142.883 24.4147 143.059 24.1934C143.238 23.972 143.329 23.7083 143.332 23.4023C143.329 23.1094 143.238 22.8555 143.059 22.6406C142.883 22.4225 142.635 22.2565 142.316 22.1426C141.997 22.0254 141.63 21.9668 141.213 21.9668ZM153.938 28.3633H145.803V27.3281H153.938V28.3633ZM153.254 22.2891H152.004V24.9844H153.215V25.9609H146.477V24.9844H147.668V22.2891H146.438V21.293H153.254V22.2891ZM150.773 24.9844V22.2891H148.918V24.9844H150.773ZM161.457 23.8711H162.766V24.8965H161.457V29.418H160.227V20.5117H161.457V23.8711ZM158.918 24.7012H156.057V26.3125C156.743 26.3092 157.365 26.2881 157.922 26.249C158.479 26.21 159.038 26.1432 159.602 26.0488L159.709 27.0449C159.064 27.1621 158.423 27.2419 157.785 27.2842C157.147 27.3265 156.408 27.3477 155.568 27.3477H154.816V23.7148H157.678V22.2598H154.807V21.2539H158.918V24.7012ZM170.529 26.9082H169.279V20.5215H170.529V26.9082ZM170.764 29.2422H164.572V26.2637H165.832V28.2461H170.764V29.2422ZM165.656 21.0879C166.109 21.0879 166.519 21.1839 166.887 21.376C167.258 21.568 167.551 21.835 167.766 22.1768C167.98 22.5153 168.088 22.8978 168.088 23.3242C168.088 23.7572 167.98 24.1462 167.766 24.4912C167.554 24.833 167.263 25.0999 166.892 25.292C166.521 25.484 166.109 25.5801 165.656 25.5801C165.204 25.5801 164.792 25.484 164.421 25.292C164.05 25.0999 163.757 24.833 163.542 24.4912C163.33 24.1462 163.225 23.7572 163.225 23.3242C163.225 22.8978 163.332 22.5153 163.547 22.1768C163.762 21.835 164.053 21.568 164.421 21.376C164.792 21.1839 165.204 21.0879 165.656 21.0879ZM165.656 22.1719C165.425 22.1686 165.217 22.2142 165.031 22.3086C164.846 22.3997 164.701 22.5332 164.597 22.709C164.493 22.8848 164.442 23.0898 164.445 23.3242C164.442 23.5651 164.493 23.7751 164.597 23.9541C164.701 24.1299 164.844 24.265 165.026 24.3594C165.212 24.4505 165.422 24.4961 165.656 24.4961C165.884 24.4961 166.088 24.4505 166.267 24.3594C166.449 24.265 166.592 24.1299 166.696 23.9541C166.804 23.7751 166.857 23.5651 166.857 23.3242C166.857 23.0898 166.804 22.8848 166.696 22.709C166.592 22.5332 166.449 22.3997 166.267 22.3086C166.084 22.2142 165.881 22.1686 165.656 22.1719ZM178.596 21.3613C178.592 22.3509 178.479 23.2412 178.254 24.0322C178.033 24.82 177.632 25.554 177.053 26.2344C176.477 26.9147 175.676 27.5202 174.65 28.0508L173.967 27.1133C174.66 26.7454 175.233 26.3532 175.686 25.9365C176.141 25.5199 176.499 25.0625 176.76 24.5645L174.182 24.7988L174.016 23.7441L177.15 23.5586C177.248 23.2005 177.315 22.8001 177.351 22.3574H174.494V21.3613H178.596ZM181.525 29.3984H180.285V24.9453H178.576V23.9297H180.285V20.5117H181.525V29.3984ZM190.148 29.3984H188.889V20.5117H190.148V29.3984ZM187.932 22.3281H187.141V26.1904C187.495 26.1644 187.88 26.127 188.293 26.0781L188.352 27.0059C187.512 27.1458 186.646 27.2386 185.754 27.2842C184.862 27.3265 183.869 27.3509 182.775 27.3574L182.658 26.3418L183.684 26.332V22.3281H182.902V21.332H187.932V22.3281ZM185.93 26.2686V22.3281H184.895V26.3076L185.93 26.2686ZM195.49 22.4844H194.123C194.13 22.9499 194.27 23.3747 194.543 23.7588C194.816 24.1396 195.22 24.4245 195.754 24.6133L195.197 25.541C194.813 25.4076 194.484 25.2204 194.211 24.9795C193.941 24.7354 193.723 24.4489 193.557 24.1201C193.394 24.4814 193.174 24.7972 192.897 25.0674C192.624 25.3343 192.29 25.541 191.896 25.6875L191.311 24.7891C191.672 24.6491 191.973 24.4603 192.214 24.2227C192.458 23.985 192.639 23.7181 192.756 23.4219C192.876 23.1224 192.938 22.8099 192.941 22.4844H191.564V21.498H192.941V20.6191H194.123V21.498H195.49V22.4844ZM198.957 26.5273H197.775V23.6562H197.062V25.7461H195.891V20.6582H197.062V22.6406H197.775V20.5215H198.957V26.5273ZM196.496 26.2539C196.493 26.5762 196.6 26.887 196.818 27.1865C197.036 27.4827 197.36 27.7399 197.79 27.958C198.22 28.1729 198.739 28.3177 199.348 28.3926L198.918 29.3594C198.202 29.2617 197.585 29.0713 197.067 28.7881C196.55 28.5049 196.153 28.1517 195.876 27.7285C195.596 28.1517 195.196 28.5049 194.675 28.7881C194.157 29.0713 193.544 29.2617 192.834 29.3594L192.395 28.3926C193.003 28.3177 193.522 28.1729 193.952 27.958C194.382 27.7399 194.704 27.4827 194.919 27.1865C195.137 26.887 195.246 26.5762 195.246 26.2539V26.1074H196.496V26.2539ZM38.4199 35.4199H39.4551L38.9668 38.2031H37.5801L38.4199 35.4199ZM40.5879 35.4199H41.623L41.1348 38.2031H39.748L40.5879 35.4199ZM45.7637 36.0352C45.7637 36.4323 45.8369 36.8132 45.9834 37.1777C46.1299 37.5391 46.3545 37.863 46.6572 38.1494C46.96 38.4326 47.3392 38.6491 47.7949 38.7988L47.1211 39.7754C46.6621 39.6061 46.2666 39.3652 45.9346 39.0527C45.6058 38.7402 45.3454 38.3724 45.1533 37.9492C44.958 38.4277 44.6829 38.8411 44.3281 39.1895C43.9766 39.5345 43.5501 39.7982 43.0488 39.9805L42.375 39.0039C42.8535 38.8477 43.2507 38.6182 43.5664 38.3154C43.8854 38.0127 44.1214 37.6644 44.2744 37.2705C44.4274 36.8766 44.5039 36.4616 44.5039 36.0254V35.0586H45.7637V36.0352ZM49.9238 41.084H48.6836V37.4121H47.0137V36.4062H48.6836V34.5215H49.9238V41.084ZM50.1094 43.2422H44.0059V40.3906H45.2656V42.2461H50.1094V43.2422ZM52.502 37.3047H53.7129V35.3027H54.8652V41.2891H51.3301V35.3027H52.502V37.3047ZM53.7129 40.293V38.2812H52.502V40.293H53.7129ZM58.7812 43.3984H57.5898V38.916H56.7891V42.9883H55.6074V34.6387H56.7891V37.9004H57.5898V34.5117H58.7812V43.3984ZM62.3652 35.0391C62.8177 35.0391 63.2295 35.1318 63.6006 35.3174C63.9717 35.5029 64.2646 35.7617 64.4795 36.0938C64.6943 36.4225 64.8034 36.7969 64.8066 37.2168C64.8034 37.5684 64.7253 37.8906 64.5723 38.1836C64.4193 38.4733 64.2061 38.7174 63.9326 38.916C63.6624 39.1113 63.3516 39.248 63 39.3262V40.542C63.7389 40.5062 64.4258 40.446 65.0605 40.3613L65.1484 41.2793C64.4616 41.4095 63.7471 41.499 63.0049 41.5479C62.2627 41.5967 61.4928 41.6211 60.6953 41.6211C60.4805 41.6211 60.321 41.6178 60.2168 41.6113H59.7773L59.6113 40.6055H60.1582L61.7598 40.5859V39.3359C61.3984 39.2643 61.0778 39.1309 60.7979 38.9355C60.5212 38.737 60.3063 38.4912 60.1533 38.1982C60.0003 37.902 59.9238 37.5749 59.9238 37.2168C59.9238 36.7969 60.028 36.4225 60.2363 36.0938C60.4479 35.7617 60.7393 35.5029 61.1104 35.3174C61.4814 35.1318 61.8997 35.0391 62.3652 35.0391ZM62.3652 36.0938C62.1276 36.0938 61.916 36.1393 61.7305 36.2305C61.5449 36.3184 61.4001 36.4469 61.2959 36.6162C61.1917 36.7855 61.1413 36.9857 61.1445 37.2168C61.1413 37.4447 61.1917 37.6449 61.2959 37.8174C61.4001 37.9867 61.5449 38.1169 61.7305 38.208C61.9193 38.2959 62.1309 38.3398 62.3652 38.3398C62.5931 38.3398 62.7982 38.2943 62.9805 38.2031C63.166 38.112 63.3109 37.9818 63.415 37.8125C63.5225 37.6432 63.5762 37.4447 63.5762 37.2168C63.5762 36.9857 63.5225 36.7855 63.415 36.6162C63.3109 36.4469 63.1676 36.3184 62.9854 36.2305C62.8031 36.1393 62.5964 36.0938 62.3652 36.0938ZM66.7793 37.998H67.9902V39.043H66.7793V43.3984H65.5293V34.5117H66.7793V37.998ZM75.2168 41.2305H70.9492V35.3516H75.2168V41.2305ZM72.1797 40.2441H73.9766V36.3281H72.1797V40.2441ZM77.6777 37.8613H78.9863V38.8965H77.6777V43.3984H76.4277V34.5117H77.6777V37.8613ZM87.4141 40.4102H83.957V43.3984H82.7266V40.4102H79.3086V39.4141H87.4141V40.4102ZM86.6914 35.957H84.0986C84.141 36.2565 84.2809 36.543 84.5186 36.8164C84.7562 37.0866 85.0882 37.321 85.5146 37.5195C85.9411 37.7148 86.4473 37.8483 87.0332 37.9199L86.584 38.8965C85.8158 38.7923 85.1549 38.584 84.6016 38.2715C84.0514 37.959 83.6396 37.57 83.3662 37.1045C83.0895 37.57 82.6777 37.959 82.1309 38.2715C81.584 38.584 80.9297 38.7923 80.168 38.8965L79.709 37.9199C80.2852 37.8483 80.7848 37.7148 81.208 37.5195C81.6344 37.321 81.9665 37.0866 82.2041 36.8164C82.445 36.543 82.5882 36.2565 82.6338 35.957H80.041V34.9805H86.6914V35.957ZM90.4023 34.9414C90.8516 34.9414 91.2568 35.0309 91.6182 35.21C91.9827 35.389 92.2676 35.6364 92.4727 35.9521C92.681 36.2679 92.7852 36.6243 92.7852 37.0215C92.7852 37.4251 92.681 37.7848 92.4727 38.1006C92.2676 38.4163 91.9844 38.6637 91.623 38.8428C91.2617 39.0186 90.8548 39.1081 90.4023 39.1113C89.9531 39.1081 89.5462 39.0186 89.1816 38.8428C88.8171 38.6637 88.5306 38.4163 88.3223 38.1006C88.1139 37.7848 88.0098 37.4251 88.0098 37.0215C88.0098 36.6243 88.1139 36.2679 88.3223 35.9521C88.5306 35.6364 88.8171 35.389 89.1816 35.21C89.5462 35.0309 89.9531 34.9414 90.4023 34.9414ZM90.4023 35.9668C90.1777 35.9635 89.9759 36.0059 89.7969 36.0938C89.6178 36.1784 89.4779 36.3005 89.377 36.46C89.276 36.6195 89.2272 36.8066 89.2305 37.0215C89.2272 37.2363 89.276 37.4251 89.377 37.5879C89.4779 37.7507 89.6178 37.876 89.7969 37.9639C89.9759 38.0518 90.1777 38.0957 90.4023 38.0957C90.627 38.0957 90.8271 38.0518 91.0029 37.9639C91.182 37.876 91.3219 37.7523 91.4229 37.5928C91.5238 37.43 91.5742 37.2396 91.5742 37.0215C91.5742 36.8066 91.5238 36.6195 91.4229 36.46C91.3219 36.3005 91.182 36.1784 91.0029 36.0938C90.8271 36.0059 90.627 35.9635 90.4023 35.9668ZM94.9922 36.3867H96.1836V37.4121H94.9922V39.2188H93.7422V34.5117H94.9922V36.3867ZM94.0547 40.5664C94.0547 40.9993 94.1865 41.3818 94.4502 41.7139C94.7139 42.0426 95.1191 42.2819 95.666 42.4316L95.0996 43.3691C94.3346 43.1413 93.7878 42.7181 93.459 42.0996C93.2962 42.3958 93.0798 42.6514 92.8096 42.8662C92.5426 43.0843 92.2188 43.252 91.8379 43.3691L91.4863 42.7881C91.1673 42.9183 90.8223 43.0078 90.4512 43.0566C90.0801 43.1087 89.6764 43.1348 89.2402 43.1348H88.752V39.8242H89.9629V42.0996C90.5 42.0508 90.9492 41.9434 91.3105 41.7773L91.4863 42.3584C91.9421 42.1859 92.2871 41.9385 92.5215 41.6162C92.7559 41.2939 92.873 40.944 92.873 40.5664V40.5566H91.5645V39.5801H95.3535V40.5566H94.0547V40.5664ZM98.9863 35.1367C99.4355 35.1367 99.8376 35.2669 100.192 35.5273C100.547 35.7845 100.824 36.1523 101.022 36.6309C101.224 37.1094 101.327 37.666 101.33 38.3008C101.327 38.9388 101.224 39.4987 101.022 39.9805C100.824 40.459 100.547 40.8285 100.192 41.0889C99.8408 41.346 99.4388 41.4746 98.9863 41.4746C98.5339 41.4746 98.1286 41.346 97.7705 41.0889C97.4157 40.8285 97.1374 40.459 96.9355 39.9805C96.737 39.4987 96.6393 38.9388 96.6426 38.3008C96.6393 37.6693 96.737 37.1143 96.9355 36.6357C97.1374 36.1572 97.4157 35.7878 97.7705 35.5273C98.1286 35.2669 98.5339 35.1367 98.9863 35.1367ZM98.9863 36.2598C98.7585 36.2598 98.5583 36.3395 98.3857 36.499C98.2132 36.6553 98.0798 36.8864 97.9854 37.1924C97.891 37.4984 97.8438 37.8678 97.8438 38.3008C97.8438 38.7337 97.891 39.1048 97.9854 39.4141C98.0798 39.7201 98.2132 39.9512 98.3857 40.1074C98.5583 40.2637 98.7585 40.3418 98.9863 40.3418C99.2174 40.3418 99.4193 40.2637 99.5918 40.1074C99.7643 39.9512 99.8978 39.7201 99.9922 39.4141C100.087 39.1081 100.135 38.737 100.139 38.3008C100.135 37.8678 100.087 37.4984 99.9922 37.1924C99.8978 36.8864 99.7643 36.6553 99.5918 36.499C99.4193 36.3395 99.2174 36.2598 98.9863 36.2598ZM103.605 37.8613H104.914V38.8965H103.605V43.3984H102.355V34.5117H103.605V37.8613ZM111.008 36.2695C111.008 36.6374 111.084 36.9922 111.237 37.334C111.394 37.6725 111.63 37.9769 111.945 38.2471C112.264 38.514 112.658 38.7174 113.127 38.8574L112.492 39.834C112.007 39.681 111.587 39.4531 111.232 39.1504C110.878 38.8477 110.598 38.4896 110.393 38.0762C110.184 38.5254 109.898 38.916 109.533 39.248C109.169 39.5801 108.732 39.8307 108.225 40L107.58 39.0234C108.055 38.8704 108.454 38.6507 108.776 38.3643C109.099 38.0778 109.34 37.7539 109.499 37.3926C109.659 37.0312 109.738 36.6569 109.738 36.2695V36.1426H107.912V35.1465H112.795V36.1426H111.008V36.2695ZM114.982 40.9473H113.732V34.5215H114.982V40.9473ZM115.217 43.2422H109.025V40.3613H110.285V42.2461H115.217V43.2422ZM124.318 42.4121H116.184V41.3867H119.611V40.0488H117.121V37.0605H122.15V36.084H117.111V35.0879H123.381V38.0371H118.371V39.0332H123.586V40.0488H120.852V41.3867H124.318V42.4121ZM134.572 43.418H133.312V34.5117H134.572V43.418ZM129.748 35.1367C130.194 35.1367 130.593 35.2669 130.944 35.5273C131.299 35.7878 131.577 36.1572 131.779 36.6357C131.981 37.1143 132.082 37.6693 132.082 38.3008C132.082 38.9388 131.981 39.4987 131.779 39.9805C131.577 40.459 131.299 40.8285 130.944 41.0889C130.593 41.346 130.194 41.4746 129.748 41.4746C129.292 41.4746 128.885 41.346 128.527 41.0889C128.169 40.8285 127.889 40.459 127.688 39.9805C127.489 39.4987 127.391 38.9388 127.395 38.3008C127.391 37.6693 127.489 37.1143 127.688 36.6357C127.889 36.1572 128.169 35.7878 128.527 35.5273C128.885 35.2669 129.292 35.1367 129.748 35.1367ZM129.748 36.2598C129.517 36.2598 129.313 36.3395 129.138 36.499C128.965 36.6553 128.832 36.8864 128.737 37.1924C128.643 37.4984 128.596 37.8678 128.596 38.3008C128.596 38.737 128.643 39.1081 128.737 39.4141C128.832 39.7201 128.965 39.9512 129.138 40.1074C129.313 40.2637 129.517 40.3418 129.748 40.3418C129.976 40.3418 130.174 40.2637 130.344 40.1074C130.513 39.9479 130.645 39.7152 130.739 39.4092C130.834 39.1032 130.881 38.7337 130.881 38.3008C130.881 37.8711 130.834 37.5033 130.739 37.1973C130.645 36.888 130.511 36.6553 130.339 36.499C130.17 36.3395 129.973 36.2598 129.748 36.2598ZM138.166 35.1367C138.615 35.1367 139.017 35.2669 139.372 35.5273C139.727 35.7845 140.004 36.1523 140.202 36.6309C140.404 37.1094 140.507 37.666 140.51 38.3008C140.507 38.9388 140.404 39.4987 140.202 39.9805C140.004 40.459 139.727 40.8285 139.372 41.0889C139.021 41.346 138.618 41.4746 138.166 41.4746C137.714 41.4746 137.308 41.346 136.95 41.0889C136.595 40.8285 136.317 40.459 136.115 39.9805C135.917 39.4987 135.819 38.9388 135.822 38.3008C135.819 37.6693 135.917 37.1143 136.115 36.6357C136.317 36.1572 136.595 35.7878 136.95 35.5273C137.308 35.2669 137.714 35.1367 138.166 35.1367ZM138.166 36.2598C137.938 36.2598 137.738 36.3395 137.565 36.499C137.393 36.6553 137.259 36.8864 137.165 37.1924C137.071 37.4984 137.023 37.8678 137.023 38.3008C137.023 38.7337 137.071 39.1048 137.165 39.4141C137.259 39.7201 137.393 39.9512 137.565 40.1074C137.738 40.2637 137.938 40.3418 138.166 40.3418C138.397 40.3418 138.599 40.2637 138.771 40.1074C138.944 39.9512 139.077 39.7201 139.172 39.4141C139.266 39.1081 139.315 38.737 139.318 38.3008C139.315 37.8678 139.266 37.4984 139.172 37.1924C139.077 36.8864 138.944 36.6553 138.771 36.499C138.599 36.3395 138.397 36.2598 138.166 36.2598ZM144.045 37.6172H142.785V39.1992H144.045V40.2148H142.785V43.3984H141.535V34.5117H142.785V36.5723H144.045V37.6172ZM151.887 43.3984H150.627V34.5117H151.887V43.3984ZM149.221 35.4395C149.221 36.39 149.092 37.2542 148.835 38.0322C148.581 38.8102 148.151 39.5247 147.546 40.1758C146.94 40.8236 146.125 41.39 145.1 41.875L144.445 40.8789C145.204 40.5208 145.829 40.1221 146.32 39.6826C146.815 39.2432 147.193 38.7565 147.453 38.2227C147.717 37.6855 147.883 37.0833 147.951 36.416H144.924V35.4395H149.221ZM161.184 39.4238H153.049V38.4961H161.184V39.4238ZM160.207 41.9629H155.227V42.4707H160.471V43.3203H153.986V41.1719H158.977V40.7227H153.977V39.8633H160.207V41.9629ZM160.197 36.7578H155.305V37.2363H160.354V38.0762H154.064V35.9668H158.947V35.5176H154.045V34.668H160.197V36.7578ZM172.277 38.8965H171.018V43.3789H169.768V34.5117H171.018V37.8809H172.277V38.8965ZM165.529 40.1807C166.789 40.1579 168.003 40.0293 169.172 39.7949L169.299 40.8301C168.609 40.9701 167.912 41.0693 167.209 41.1279C166.509 41.1833 165.793 41.2109 165.061 41.2109H164.289V35.3613H165.529V40.1807ZM180.178 43.3984H178.928V41.3672H177.092V40.4102H178.928V34.5215H180.178V43.3984ZM173.381 38.877C174.309 38.877 175.174 38.8639 175.979 38.8379C176.786 38.8086 177.551 38.7565 178.273 38.6816L178.342 39.6094C177.622 39.7038 176.87 39.7738 176.086 39.8193V43.1348H174.836V39.8682C174.504 39.8779 174.022 39.8828 173.391 39.8828H172.707L172.561 38.877H173.381ZM177.795 37.998H173.361V34.9316H174.611V37.002H177.795V37.998ZM189.426 42.3633H181.291V41.3477H184.719V39.707H182.15V35.0781H183.4V36.4551H187.277V35.0781H188.518V39.707H185.959V41.3477H189.426V42.3633ZM187.277 38.7109V37.4512H183.4V38.7109H187.277ZM192.785 36.748C192.785 37.5423 192.912 38.2666 193.166 38.9209C193.42 39.5752 193.83 40.0846 194.396 40.4492L193.723 41.416C193.007 40.9831 192.494 40.2718 192.185 39.2822C192.019 39.8031 191.799 40.2637 191.525 40.6641C191.252 41.0612 190.92 41.377 190.529 41.6113L189.768 40.6934C190.389 40.306 190.845 39.7673 191.135 39.0771C191.428 38.3838 191.574 37.627 191.574 36.8066V35.2734H192.785V36.748ZM197.639 43.3984H196.447V34.5117H197.639V43.3984ZM195.773 42.9883H194.611V38.5254H193.459V37.5098H194.611V34.6387H195.773V42.9883ZM206.711 42.3633H198.576V41.3379H200.393V39.165C200.041 38.9535 199.769 38.693 199.577 38.3838C199.385 38.0713 199.289 37.7214 199.289 37.334C199.289 36.862 199.432 36.4453 199.719 36.084C200.005 35.7227 200.401 35.4427 200.905 35.2441C201.413 35.0423 201.988 34.9414 202.629 34.9414C203.267 34.9414 203.838 35.0423 204.343 35.2441C204.851 35.4427 205.249 35.7227 205.539 36.084C205.829 36.4453 205.975 36.862 205.979 37.334C205.975 37.7116 205.879 38.055 205.69 38.3643C205.505 38.6702 205.243 38.929 204.904 39.1406V41.3379H206.711V42.3633ZM202.629 35.9277C202.206 35.9277 201.835 35.9831 201.516 36.0938C201.2 36.2044 200.954 36.3656 200.778 36.5771C200.606 36.7855 200.52 37.0378 200.52 37.334C200.52 37.6204 200.606 37.8695 200.778 38.0811C200.954 38.2926 201.201 38.4554 201.521 38.5693C201.84 38.6833 202.209 38.7402 202.629 38.7402C203.046 38.7402 203.413 38.6833 203.732 38.5693C204.051 38.4554 204.299 38.2926 204.475 38.0811C204.654 37.8695 204.745 37.6204 204.748 37.334C204.745 37.041 204.655 36.7887 204.479 36.5771C204.304 36.3656 204.056 36.2044 203.737 36.0938C203.418 35.9831 203.049 35.9277 202.629 35.9277ZM203.645 41.3379V39.6143C203.309 39.6761 202.971 39.707 202.629 39.707C202.264 39.707 201.929 39.6761 201.623 39.6143V41.3379H203.645ZM208.371 42.5879C208.221 42.5879 208.083 42.5505 207.956 42.4756C207.829 42.4007 207.728 42.3014 207.653 42.1777C207.582 42.0508 207.548 41.9141 207.551 41.7676C207.548 41.6211 207.582 41.486 207.653 41.3623C207.728 41.2386 207.829 41.141 207.956 41.0693C208.083 40.9945 208.221 40.957 208.371 40.957C208.511 40.957 208.643 40.9945 208.767 41.0693C208.894 41.141 208.994 41.2386 209.069 41.3623C209.144 41.486 209.182 41.6211 209.182 41.7676C209.182 41.9141 209.144 42.0508 209.069 42.1777C208.994 42.3014 208.894 42.4007 208.767 42.4756C208.643 42.5505 208.511 42.5879 208.371 42.5879ZM212.58 38.2129H211.545L212.033 35.4297H213.42L212.58 38.2129ZM210.412 38.2129H209.377L209.865 35.4297H211.252L210.412 38.2129Z" fill="white"/>
<defs>
<filter id="filter0_d_2794_22786" x="0" y="0" width="251" height="71" filterUnits="userSpaceOnUse" color-interpolation-filters="sRGB">
<feFlood flood-opacity="0" result="BackgroundImageFix"/>
<feColorMatrix in="SourceAlpha" type="matrix" values="0 0 0 0 0 0 0 0 0 0 0 0 0 0 0 0 0 0 127 0" result="hardAlpha"/>
<feOffset dy="4"/>
<feGaussianBlur stdDeviation="6"/>
<feColorMatrix type="matrix" values="0 0 0 0 0 0 0 0 0 0 0 0 0 0 0 0 0 0 0.1 0"/>
<feBlend mode="normal" in2="BackgroundImageFix" result="effect1_dropShadow_2794_22786"/>
<feBlend mode="normal" in="SourceGraphic" in2="effect1_dropShadow_2794_22786" result="shape"/>
</filter>
</defs>
</svg>
