<svg width="440" height="100" viewBox="0 0 440 100" fill="none" xmlns="http://www.w3.org/2000/svg">
<rect width="440" height="100" fill="white"/>
<g clip-path="url(#clip0_2648_22774)">
<path d="M29.4629 40.3008H38.4069V65.8008H48.5434L47.1216 73.6826H29.4629V40.3008ZM58.8714 62.3235C58.8714 63.9618 59.0548 65.1517 59.4218 65.8935C59.7887 66.6045 60.3696 66.9599 61.1647 66.9599C61.9903 66.9599 62.5712 66.6045 62.9076 65.8935C63.2746 65.1517 63.458 63.9618 63.458 62.3235V40.3008H72.402V61.9062C72.402 66.2025 71.4847 69.3244 69.65 71.2717C67.8154 73.1881 64.9868 74.1462 61.1647 74.1462C57.3729 74.1462 54.5445 73.1881 52.6794 71.2717C50.8447 69.3244 49.9274 66.2025 49.9274 61.9062V40.3008H58.8714V62.3235ZM85.8201 40.3008L92.2873 59.3562V40.3008H101.002V73.6826H90.2692L84.3982 56.3426V73.6826H75.6836V45.0762L73.803 40.3008H85.8201Z" fill="#F56156"/>
<path d="M103.97 57.2233C103.97 52.8343 104.474 49.3879 105.483 46.8842C106.492 44.3497 108.006 42.557 110.024 41.5061C112.073 40.4551 114.611 39.9297 117.638 39.9297C118.617 39.9297 119.732 39.9915 120.986 40.1151C122.271 40.2079 123.509 40.3933 124.701 40.6715V52.9115H119.152L118.418 47.3015C117.592 47.3015 116.874 47.4097 116.262 47.6261C115.681 47.8115 115.192 48.2288 114.794 48.8779C114.397 49.527 114.091 50.5161 113.877 51.8451C113.693 53.1742 113.602 54.9515 113.602 57.177C113.602 59.5879 113.862 61.4888 114.381 62.8797C114.901 64.2398 115.681 65.2134 116.721 65.8006C117.791 66.357 119.152 66.6351 120.803 66.6351C121.537 66.6351 122.24 66.5888 122.913 66.496C123.585 66.4033 124.304 66.2951 125.068 66.1715V73.497C124.182 73.7132 123.111 73.8679 121.858 73.9606C120.604 74.0842 119.488 74.146 118.509 74.146C113.281 74.146 109.55 72.7243 107.318 69.8806C105.086 67.0369 103.97 62.8178 103.97 57.2233ZM128.274 73.6824V40.3006H137.218V53.1433H141.804V40.3006H150.748V73.6824H141.804V60.5615H137.218V73.6824H128.274ZM160.797 74.146C159.574 74.146 158.427 73.837 157.357 73.2188C156.287 72.5697 155.415 71.6424 154.742 70.437C154.07 69.2315 153.733 67.7787 153.733 66.0788C153.733 63.4205 154.651 61.4116 156.485 60.0515C158.351 58.6914 160.751 58.0115 163.686 58.0115H165.659V55.4615C165.659 54.5651 165.353 53.9623 164.741 53.6533C164.13 53.3132 163.35 53.1433 162.402 53.1433C161.24 53.1433 160.124 53.2516 159.054 53.4679C157.984 53.6842 156.913 53.9934 155.843 54.3951V47.9042C157.219 47.5951 158.641 47.317 160.109 47.0697C161.607 46.7915 163.105 46.6524 164.604 46.6524C166.286 46.6524 167.83 46.8688 169.236 47.3015C170.643 47.7033 171.774 48.4451 172.63 49.527C173.487 50.6089 173.915 52.1542 173.915 54.1633V73.6824H166.759L166.209 71.6888C165.445 72.5233 164.588 73.1416 163.64 73.5433C162.693 73.9451 161.745 74.146 160.797 74.146ZM164.007 68.026C164.619 68.026 165.169 67.7479 165.659 67.1915V62.6015H165.062C164.145 62.6015 163.365 62.8333 162.723 63.297C162.081 63.7298 161.76 64.3942 161.76 65.2906C161.76 66.156 161.989 66.8361 162.448 67.3306C162.907 67.7942 163.426 68.026 164.007 68.026ZM187.68 47.0233H192.68V53.2824H187.68V64.827C187.68 65.6923 187.894 66.3261 188.322 66.7279C188.781 67.1296 189.499 67.3306 190.478 67.3306C190.967 67.3306 191.395 67.3151 191.762 67.2842C192.129 67.2223 192.435 67.1607 192.68 67.0988V73.2651C191.946 73.5125 191.166 73.7132 190.34 73.8679C189.545 74.0533 188.735 74.146 187.909 74.146C185.096 74.146 182.971 73.5433 181.534 72.3379C180.127 71.1016 179.424 68.907 179.424 65.7542V53.2824H175.984V47.0233H179.424V41.1815H187.68V47.0233Z" fill="black"/>
<path d="M163.402 57.4551C168.911 57.4551 173.379 61.3487 173.379 66.1506C173.379 70.9518 168.911 74.8438 163.402 74.8438C162.414 74.8458 161.429 74.7179 160.475 74.4633C159.748 74.831 158.076 75.5364 155.263 75.9959C155.015 76.0358 154.825 75.7787 154.923 75.5478C155.364 74.5095 155.763 73.1241 155.884 71.8621C154.354 70.3347 153.427 68.3359 153.427 66.1506C153.427 61.3489 157.893 57.4555 163.402 57.4551ZM160.994 62.0914V69.046H165.581V62.0914H160.994Z" fill="black"/>
<path d="M58.9414 33.1964C58.9414 34.697 58.6692 35.957 58.1245 36.9764C57.5798 37.9958 56.8535 38.6969 55.9458 39.0798L56.5907 51.8246C56.61 52.0937 56.5334 52.3265 56.3614 52.5233C56.1894 52.7199 55.9793 52.8182 55.7307 52.8182H52.9787C52.7304 52.8182 52.5201 52.7199 52.3481 52.5233C52.1761 52.3265 52.0997 52.0937 52.1187 51.8246L52.7638 39.0798C51.8561 38.6969 51.1298 37.9958 50.5852 36.9764C50.0405 35.957 49.7681 34.697 49.7681 33.1964C49.7681 31.8718 49.9713 30.5807 50.3774 29.3233C50.7836 28.0659 51.3447 27.031 52.0614 26.2186C52.7781 25.4062 53.5427 25 54.3547 25C55.167 25 55.9314 25.4062 56.6481 26.2186C57.3647 27.031 57.9261 28.0659 58.3323 29.3233C58.7384 30.5807 58.9414 31.8718 58.9414 33.1964Z" fill="#F56156"/>
<path d="M65.5624 25C65.6856 25 65.8044 25.05 65.8915 25.1381C65.9787 25.2262 66.0282 25.3463 66.0282 25.4709V35.0945C66.0268 35.1582 66.0497 35.2204 66.0931 35.2666C66.1364 35.3125 66.1961 35.3395 66.2589 35.3413C66.3217 35.3428 66.3834 35.3192 66.4291 35.2756C66.4747 35.2316 66.5015 35.1696 66.5029 35.1058L66.9375 25.4482C66.9432 25.3273 66.9939 25.2124 67.0808 25.129C67.1677 25.0458 67.2836 24.9994 67.4033 25H68.3731C68.4926 24.9999 68.6091 25.0458 68.6956 25.129C68.782 25.2123 68.8332 25.3276 68.8389 25.4482L69.2712 35.1058C69.2726 35.1696 69.2994 35.2316 69.345 35.2756C69.3907 35.3194 69.4524 35.3428 69.5152 35.3413C69.5783 35.3397 69.6374 35.3126 69.681 35.2666C69.7246 35.2204 69.7496 35.1583 69.7482 35.0945V25.4709C69.7482 25.3466 69.7959 25.2261 69.8826 25.1381C69.969 25.0504 70.0869 25.0007 70.2096 25H70.7492C70.9822 25.0001 71.2072 25.0896 71.3785 25.249C71.5494 25.4082 71.6544 25.6263 71.6741 25.8603L72.4603 35.3888C72.5163 36.0671 72.3555 36.7456 72.0012 37.3244C71.6469 37.9031 71.1173 38.3517 70.4917 38.6035L70.3931 38.6442C70.0667 38.7754 69.7886 39.0061 69.5959 39.303C69.4031 39.6003 69.3049 39.9505 69.3159 40.3059L69.69 53.1872C69.69 53.671 69.4998 54.1354 69.1613 54.4775C68.8228 54.8197 68.3635 55.0119 67.8849 55.0119C67.4063 55.0119 66.9469 54.8197 66.6082 54.4775C66.2697 54.1354 66.0798 53.671 66.0798 53.1872L66.4559 40.3059C66.4671 39.9506 66.369 39.6002 66.1761 39.303C65.983 39.0058 65.7035 38.7754 65.3764 38.6442L65.278 38.6035C64.6522 38.3516 64.1229 37.9033 63.7686 37.3244C63.414 36.7452 63.2528 36.0652 63.3094 35.3865L64.0977 25.8603C64.1174 25.626 64.2243 25.4082 64.3956 25.249C64.5666 25.0899 64.7902 25.0004 65.0226 25H65.5624Z" fill="#F56156"/>
</g>
<path d="M267.65 34V27.6367H269.918C271.395 27.6367 272.124 28.5244 272.124 29.7021C272.124 30.8711 271.395 31.7676 269.918 31.7676H268.617V34H267.65ZM268.617 30.9414H269.821C270.762 30.9414 271.148 30.4141 271.148 29.7021C271.148 28.9814 270.762 28.4629 269.821 28.4629H268.617V30.9414ZM273.144 27.6367H274.321L276.334 32.5674H276.413L278.426 27.6367H279.604V34H278.681V29.4033H278.619L276.756 33.9912H275.991L274.119 29.3945H274.066V34H273.144V27.6367Z" fill="#F56156"/>
<line x1="287.5" y1="26" x2="287.5" y2="35" stroke="#D3D3D3"/>
<path d="M297.438 27.4082C297.438 29.3857 295.988 30.7832 293.686 31.3984L293.404 30.8535C295.338 30.3438 296.555 29.311 296.709 27.9707H293.817V27.4082H297.438ZM299.768 26.9072V31.3193H299.082V26.9072H299.768ZM299.768 31.6973V34.6064H294.688V31.6973H299.768ZM295.364 32.251V34.0439H299.091V32.251H295.364ZM308.24 31.5654V32.1191H306.359V34.7119H305.674V32.1191H303.652V34.7119H302.958V32.1191H301.086V31.5654H308.24ZM307.37 27.2061V29.21H302.659V30.1855H307.537V30.7568H301.965V28.6738H306.667V27.7773H301.947V27.2061H307.37ZM315.315 26.9072V32.8398H314.621V32.0312H313.004V31.5303H314.621V26.9072H315.315ZM315.509 33.9648V34.5449H309.954V32.2598H310.648V33.9648H315.509ZM308.829 30.5283C310.288 30.5195 312.239 30.5107 313.918 30.2998L313.962 30.8008C313.263 30.9106 312.534 30.981 311.817 31.0205V32.5674H311.123V31.0557C310.332 31.0908 309.581 31.0952 308.926 31.0908L308.829 30.5283ZM311.396 27.2236C312.538 27.2236 313.32 27.7686 313.329 28.5859C313.32 29.4209 312.538 29.9395 311.396 29.9395C310.244 29.9395 309.462 29.4209 309.462 28.5859C309.462 27.7686 310.244 27.2236 311.396 27.2236ZM311.396 27.751C310.631 27.7422 310.112 28.085 310.121 28.5859C310.112 29.0957 310.631 29.4297 311.396 29.4297C312.134 29.4297 312.661 29.0957 312.67 28.5859C312.661 28.085 312.134 27.7422 311.396 27.751Z" fill="black"/>
<path d="M269.716 47H267.65V40.6367H269.777C271.649 40.6367 272.774 41.832 272.774 43.8096C272.774 45.7959 271.649 47 269.716 47ZM268.617 46.1562H269.663C271.104 46.1562 271.816 45.3125 271.816 43.8096C271.816 42.3154 271.104 41.4805 269.716 41.4805H268.617V46.1562ZM273.864 47V40.6367H277.854V41.4717H274.831V43.3965H277.644V44.2227H274.831V46.165H277.89V47H273.864ZM282.504 42.3154C282.442 41.7266 281.924 41.3838 281.194 41.3838C280.412 41.3838 279.92 41.7793 279.92 42.3242C279.92 42.9307 280.579 43.1592 281.08 43.2822L281.695 43.4492C282.513 43.6426 283.523 44.0908 283.532 45.2422C283.523 46.3145 282.671 47.1055 281.168 47.1055C279.744 47.1055 278.848 46.3936 278.786 45.2334H279.753C279.814 45.9277 280.421 46.2617 281.168 46.2617C281.977 46.2617 282.565 45.8486 282.574 45.2246C282.565 44.6709 282.047 44.4424 281.37 44.2666L280.614 44.0645C279.595 43.7832 278.953 43.2646 278.953 42.377C278.953 41.2783 279.938 40.5488 281.221 40.5488C282.513 40.5488 283.418 41.2871 283.444 42.3154H282.504ZM285.536 40.6367V47H284.569V40.6367H285.536ZM291.126 42.6494C290.889 41.8936 290.317 41.4365 289.474 41.4365C288.401 41.4365 287.575 42.2803 287.575 43.8184C287.575 45.3564 288.393 46.2002 289.518 46.2002C290.533 46.2002 291.205 45.5586 291.223 44.5391H289.658V43.7393H292.163V44.46C292.163 46.0684 291.056 47.0879 289.509 47.0879C287.786 47.0879 286.617 45.8311 286.617 43.8184C286.617 41.7881 287.821 40.5488 289.465 40.5488C290.845 40.5488 291.899 41.4102 292.119 42.6494H291.126ZM298.412 40.6367V47H297.524L294.299 42.3506H294.246V47H293.279V40.6367H294.176L297.401 45.2949H297.463V40.6367H298.412Z" fill="#F56156"/>
<line x1="306.5" y1="39" x2="306.5" y2="48" stroke="#D3D3D3"/>
<path d="M318.759 39.8984V47.7295H318.064V39.8984H318.759ZM314.602 40.5049C315.762 40.5137 316.597 41.5684 316.597 43.2295C316.597 44.8906 315.762 45.9453 314.602 45.9453C313.433 45.9453 312.606 44.8906 312.606 43.2295C312.606 41.5684 313.433 40.5137 314.602 40.5049ZM314.602 41.1201C313.819 41.1289 313.274 41.9551 313.274 43.2295C313.274 44.5039 313.819 45.3301 314.602 45.3301C315.384 45.3301 315.929 44.5039 315.929 43.2295C315.929 41.9551 315.384 41.1289 314.602 41.1201ZM324.015 40.3906C324.015 41.3838 325.438 42.2803 326.792 42.4561L326.537 43.001C325.342 42.8208 324.16 42.188 323.663 41.2959C323.167 42.1968 321.98 42.8208 320.78 43.001L320.508 42.4561C321.888 42.2803 323.303 41.4102 323.303 40.3906V40.0303H324.015V40.3906ZM327.214 43.6338V44.1963H320.095V43.6338H327.214ZM323.654 44.9346C325.333 44.9346 326.335 45.418 326.344 46.3145C326.335 47.2021 325.333 47.7031 323.654 47.7119C321.958 47.7031 320.956 47.2021 320.956 46.3145C320.956 45.418 321.958 44.9346 323.654 44.9346ZM323.654 45.4619C322.397 45.4707 321.65 45.7783 321.659 46.3145C321.65 46.8594 322.397 47.1582 323.654 47.1582C324.894 47.1582 325.649 46.8594 325.649 46.3145C325.649 45.7783 324.894 45.4707 323.654 45.4619ZM330.686 41.5771C330.686 42.6318 331.521 43.5811 332.689 43.9502L332.338 44.5039C331.428 44.1963 330.703 43.5547 330.352 42.7285C330.009 43.6206 329.275 44.3237 328.348 44.6621L327.987 44.1084C329.156 43.6953 329.991 42.6846 329.991 41.5771V41.1201H328.163V40.5576H332.487V41.1201H330.686V41.5771ZM334.324 39.9072V45.6377H333.639V39.9072H334.324ZM334.57 46.9648V47.5449H329.279V45.0928H329.965V46.9648H334.57Z" fill="black"/>
<path d="M267.65 60V53.6367H271.597V54.4717H268.617V56.3965H271.315V57.2227H268.617V60H267.65ZM272.678 60V53.6367H276.668V54.4717H273.645V56.3965H276.457V57.2227H273.645V59.165H276.703V60H272.678Z" fill="#F56156"/>
<line x1="283.5" y1="52" x2="283.5" y2="61" stroke="#D3D3D3"/>
<path d="M290.962 54.3838C290.962 55.4033 291.727 56.3174 292.878 56.6953L292.553 57.2402C291.652 56.9458 290.971 56.3218 290.637 55.5352C290.298 56.4316 289.578 57.1304 288.642 57.4688L288.29 56.915C289.459 56.5195 290.276 55.5088 290.285 54.3838V54.0498H288.501V53.4785H292.72V54.0498H290.962V54.3838ZM294.425 52.8984V54.8936H295.603V55.4736H294.425V57.6182H293.739V52.8984H294.425ZM291.92 57.8291C293.528 57.8291 294.495 58.3564 294.495 59.2529C294.495 60.167 293.528 60.6943 291.92 60.6943C290.312 60.6943 289.327 60.167 289.327 59.2529C289.327 58.3564 290.312 57.8291 291.92 57.8291ZM291.92 58.3828C290.742 58.3828 290.013 58.708 290.021 59.2529C290.013 59.8154 290.742 60.1406 291.92 60.1406C293.106 60.1406 293.827 59.8154 293.827 59.2529C293.827 58.708 293.106 58.3828 291.92 58.3828ZM300.103 53.874C300.094 54.832 301.412 55.6143 302.792 55.8076L302.52 56.3525C301.258 56.1724 300.081 55.5396 299.654 54.6211C299.232 55.5396 298.059 56.1724 296.789 56.3525L296.534 55.8076C297.914 55.6143 299.206 54.832 299.206 53.874V53.8564H296.745V53.2939H302.581V53.8564H300.103V53.874ZM303.24 56.9238V57.4951H300.059V59.0947H299.373V57.4951H296.086V56.9238H303.24ZM302.44 59.9648V60.5449H297V58.3125H297.694V59.9648H302.44ZM306.026 53.373C306.686 53.3687 307.248 53.6147 307.608 54.0322H309.656V52.8984H310.351V57.5303H309.656V56.4141H307.617C307.248 56.8315 306.686 57.0776 306.026 57.0732C304.857 57.082 303.996 56.3174 303.996 55.2275C303.996 54.1289 304.857 53.3643 306.026 53.373ZM306.026 53.9707C305.227 53.9619 304.655 54.4893 304.655 55.2275C304.655 55.957 305.227 56.4844 306.026 56.4844C306.8 56.4844 307.38 55.957 307.38 55.2275C307.38 54.4893 306.8 53.9619 306.026 53.9707ZM307.758 57.7148C309.375 57.7148 310.377 58.2598 310.377 59.2002C310.377 60.1494 309.375 60.6943 307.758 60.6943C306.132 60.6943 305.139 60.1494 305.139 59.2002C305.139 58.2598 306.132 57.7148 307.758 57.7148ZM307.758 58.251C306.562 58.251 305.815 58.6113 305.815 59.2002C305.815 59.7891 306.562 60.1406 307.758 60.1406C308.962 60.1406 309.7 59.7891 309.7 59.2002C309.7 58.6113 308.962 58.251 307.758 58.251ZM307.942 54.5947C308.008 54.7881 308.048 54.999 308.048 55.2275C308.048 55.4473 308.008 55.6538 307.942 55.8428H309.656V54.5947H307.942ZM320.353 52.8984V60.7295H319.658V52.8984H320.353ZM316.195 53.5049C317.355 53.5137 318.19 54.5684 318.19 56.2295C318.19 57.8906 317.355 58.9453 316.195 58.9453C315.026 58.9453 314.2 57.8906 314.2 56.2295C314.2 54.5684 315.026 53.5137 316.195 53.5049ZM316.195 54.1201C315.413 54.1289 314.868 54.9551 314.868 56.2295C314.868 57.5039 315.413 58.3301 316.195 58.3301C316.978 58.3301 317.522 57.5039 317.522 56.2295C317.522 54.9551 316.978 54.1289 316.195 54.1201ZM328.843 59.1211V59.6924H321.688V59.1211H324.888V57.2051H325.564V59.1211H328.843ZM325.582 54.0322C325.582 55.3418 327.129 56.4844 328.491 56.7217L328.184 57.293C326.993 57.0513 325.736 56.2427 325.23 55.1133C324.716 56.2383 323.468 57.0513 322.277 57.293L321.97 56.7217C323.332 56.4844 324.861 55.3418 324.861 54.0322V53.4346H325.582V54.0322ZM333.545 53.584V57.2051H329.88V53.584H333.545ZM330.557 54.1553V56.6514H332.868V54.1553H330.557ZM335.918 52.9072V58.5234H335.232V52.9072H335.918ZM336.164 59.877V60.4482H330.873V57.9785H331.559V59.877H336.164ZM345.612 52.8984V54.9375H346.79V55.5088H345.612V57.5918H344.927V52.8984H345.612ZM343.485 53.4785C343.485 55.4648 342.079 56.9326 339.803 57.6006L339.513 57.0381C341.398 56.4932 342.602 55.4077 342.747 54.0498H339.855V53.4785H343.485ZM343.143 57.6797C344.716 57.6797 345.7 58.251 345.7 59.1826C345.7 60.1318 344.716 60.6943 343.143 60.6943C341.587 60.6943 340.576 60.1318 340.585 59.1826C340.576 58.251 341.587 57.6797 343.143 57.6797ZM343.143 58.2334C342 58.2246 341.262 58.5938 341.271 59.1826C341.262 59.7715 342 60.1406 343.143 60.1406C344.294 60.1406 345.032 59.7715 345.032 59.1826C345.032 58.5938 344.294 58.2246 343.143 58.2334ZM351.36 53.584V57.2051H347.695V53.584H351.36ZM348.372 54.1553V56.6514H350.684V54.1553H348.372ZM353.733 52.9072V58.5234H353.048V52.9072H353.733ZM353.979 59.877V60.4482H348.688V57.9785H349.374V59.877H353.979ZM357.812 54.999C357.812 56.4141 358.717 57.8379 359.851 58.3564L359.438 58.9189C358.55 58.4619 357.816 57.5259 357.469 56.4141C357.122 57.583 356.388 58.585 355.5 59.0596L355.052 58.5059C356.194 57.9434 357.108 56.4404 357.108 54.999V53.5752H357.812V54.999ZM361.538 52.8984V60.7295H360.853V56.1328H358.998V55.5703H360.853V52.8984H361.538Z" fill="black"/>
<path d="M267.65 73V66.6367H269.979C271.333 66.6367 271.992 67.3662 271.992 68.3066C271.992 69.0977 271.509 69.502 270.92 69.6514V69.7129C271.553 69.748 272.238 70.3018 272.238 71.2861C272.238 72.2617 271.57 73 270.085 73H267.65ZM269.997 72.1738C270.911 72.1738 271.28 71.7695 271.28 71.2422C271.28 70.6357 270.797 70.1436 270.032 70.1436H268.617V72.1738H269.997ZM269.9 69.3877C270.542 69.3877 271.043 68.9922 271.043 68.3857C271.043 67.8584 270.683 67.4629 269.918 67.4629H268.617V69.3877H269.9ZM273.275 73V66.6367H277.266V67.4717H274.242V69.3965H277.055V70.2227H274.242V72.165H277.301V73H273.275Z" fill="#F56156"/>
<line x1="284.5" y1="65" x2="284.5" y2="74" stroke="#D3D3D3"/>
<path d="M295.425 65.8984V67.9375H296.603V68.5088H295.425V70.627H294.739V65.8984H295.425ZM295.425 71.04V73.7119H294.739V71.6025H290.31V71.04H295.425ZM290.327 66.3906V67.6211H292.604V66.3906H293.289V70.082H289.65V66.3906H290.327ZM290.327 69.5195H292.604V68.1748H290.327V69.5195ZM303.229 66.4082V67.0059C303.229 67.709 303.229 68.5791 303.01 69.8184H304.214V70.3896H302.333V73.7119H301.647V70.3896H299.644V73.7119H298.958V70.3896H297.095V69.8184H302.307C302.562 68.5879 302.562 67.7046 302.562 67.0059V66.9795H298.009V66.4082H303.229ZM308.951 66.584V70.2051H305.286V66.584H308.951ZM305.963 67.1553V69.6514H308.274V67.1553H305.963ZM311.324 65.9072V71.5234H310.639V65.9072H311.324ZM311.57 72.877V73.4482H306.279V70.9785H306.965V72.877H311.57ZM321.353 65.8984V73.7295H320.658V65.8984H321.353ZM317.195 66.5049C318.355 66.5137 319.19 67.5684 319.19 69.2295C319.19 70.8906 318.355 71.9453 317.195 71.9453C316.026 71.9453 315.2 70.8906 315.2 69.2295C315.2 67.5684 316.026 66.5137 317.195 66.5049ZM317.195 67.1201C316.413 67.1289 315.868 67.9551 315.868 69.2295C315.868 70.5039 316.413 71.3301 317.195 71.3301C317.978 71.3301 318.522 70.5039 318.522 69.2295C318.522 67.9551 317.978 67.1289 317.195 67.1201ZM326.591 67.252V67.8145H322.671V67.252H324.297V66.1357H324.982V67.252H326.591ZM324.631 68.3418C325.615 68.3418 326.318 69.0801 326.327 70.1172C326.318 71.1631 325.615 71.9102 324.631 71.9102C323.655 71.9102 322.952 71.1631 322.952 70.1172C322.952 69.0801 323.655 68.3418 324.631 68.3418ZM324.631 68.9219C324.016 68.9307 323.567 69.4316 323.567 70.1172C323.567 70.8115 324.016 71.3125 324.631 71.3037C325.255 71.3125 325.712 70.8115 325.712 70.1172C325.712 69.4316 325.255 68.9307 324.631 68.9219ZM329.342 65.8984V73.7119H328.683V69.7656H327.646V73.3252H326.995V66.0918H327.646V69.1943H328.683V65.8984H329.342ZM334.176 66.3467V68.5352H331.486V69.7305C332.954 69.7305 333.71 69.6997 334.633 69.5283L334.703 70.0996C333.728 70.2754 332.937 70.3018 331.354 70.293H330.801V67.9814H333.49V66.918H330.783V66.3467H334.176ZM336.944 65.9072V70.7412H336.25V69.2998H334.703V68.7197H336.25V67.7002H334.703V67.1377H336.25V65.9072H336.944ZM334.36 70.873C335.986 70.873 336.971 71.4092 336.971 72.3232C336.971 73.2373 335.986 73.7559 334.36 73.7559C332.726 73.7559 331.732 73.2373 331.732 72.3232C331.732 71.4092 332.726 70.873 334.36 70.873ZM334.36 71.418C333.156 71.418 332.427 71.752 332.436 72.3232C332.427 72.8857 333.156 73.2109 334.36 73.2109C335.556 73.2109 336.294 72.8857 336.294 72.3232C336.294 71.752 335.556 71.418 334.36 71.418ZM343.466 70.0205V71.4531C344.217 71.4224 344.986 71.3564 345.707 71.251L345.76 71.7607C343.976 72.0859 342.051 72.0947 340.645 72.0947L340.548 71.5234C341.203 71.519 341.976 71.5146 342.789 71.4883V70.0205H343.466ZM345.303 66.9268V67.498H343.466C343.483 68.5088 344.323 69.3306 345.479 69.6602L345.153 70.2051C344.213 69.9238 343.479 69.3218 343.132 68.5264C342.789 69.3657 342.06 69.9897 341.119 70.2754L340.785 69.748C341.941 69.4097 342.754 68.5527 342.771 67.498H340.979V66.9268H342.789V65.96H343.466V66.9268H345.303ZM346.911 65.8984V73.7295H346.226V65.8984H346.911ZM352.36 66.584V70.2051H348.695V66.584H352.36ZM349.372 67.1553V69.6514H351.684V67.1553H349.372ZM354.733 65.9072V71.5234H354.048V65.9072H354.733ZM354.979 72.877V73.4482H349.688V70.9785H350.374V72.877H354.979ZM359.98 66.6279C359.98 67.7266 361.422 68.6846 362.828 68.8779L362.547 69.4404C361.334 69.2383 360.134 68.5659 359.629 67.6035C359.128 68.5703 357.924 69.2383 356.711 69.4404L356.43 68.8779C357.836 68.6846 359.269 67.7441 359.269 66.6279V66.1797H359.98V66.6279ZM363.18 70.3018V70.8818H359.945V73.7119H359.269V70.8818H356.061V70.3018H363.18ZM372.54 65.8984V73.7295H371.846V65.8984H372.54ZM368.383 66.5049C369.543 66.5137 370.378 67.5684 370.378 69.2295C370.378 70.8906 369.543 71.9453 368.383 71.9453C367.214 71.9453 366.388 70.8906 366.388 69.2295C366.388 67.5684 367.214 66.5137 368.383 66.5049ZM368.383 67.1201C367.601 67.1289 367.056 67.9551 367.056 69.2295C367.056 70.5039 367.601 71.3301 368.383 71.3301C369.165 71.3301 369.71 70.5039 369.71 69.2295C369.71 67.9551 369.165 67.1289 368.383 67.1201ZM376.565 67.1289C376.557 68.2451 377.348 69.2295 378.499 69.6162L378.112 70.1523C377.251 69.8271 376.574 69.1943 376.24 68.3682C375.902 69.3042 375.186 70.0337 374.245 70.3896L373.867 69.8271C375.071 69.4053 375.871 68.3682 375.88 67.1553V66.3467H376.565V67.1289ZM380.354 65.8984V70.5303H379.659V68.1484H377.919V67.5771H379.659V65.8984H380.354ZM377.761 70.7588C379.387 70.7588 380.38 71.2949 380.38 72.2354C380.38 73.167 379.387 73.6943 377.761 73.6943C376.135 73.6943 375.142 73.167 375.142 72.2354C375.142 71.2949 376.135 70.7588 377.761 70.7588ZM377.761 71.3037C376.565 71.3037 375.818 71.6553 375.827 72.2354C375.818 72.7979 376.565 73.1406 377.761 73.1406C378.956 73.1406 379.694 72.7979 379.694 72.2354C379.694 71.6553 378.956 71.3037 377.761 71.3037ZM388.097 65.9072V71.8398H387.402V71.0312H385.785V70.5303H387.402V65.9072H388.097ZM388.29 72.9648V73.5449H382.735V71.2598H383.43V72.9648H388.29ZM381.61 69.5283C383.069 69.5195 385.021 69.5107 386.699 69.2998L386.743 69.8008C386.044 69.9106 385.315 69.981 384.599 70.0205V71.5674H383.904V70.0557C383.113 70.0908 382.362 70.0952 381.707 70.0908L381.61 69.5283ZM384.177 66.2236C385.319 66.2236 386.102 66.7686 386.11 67.5859C386.102 68.4209 385.319 68.9395 384.177 68.9395C383.025 68.9395 382.243 68.4209 382.243 67.5859C382.243 66.7686 383.025 66.2236 384.177 66.2236ZM384.177 66.751C383.412 66.7422 382.894 67.085 382.902 67.5859C382.894 68.0957 383.412 68.4297 384.177 68.4297C384.915 68.4297 385.442 68.0957 385.451 67.5859C385.442 67.085 384.915 66.7422 384.177 66.751ZM394.653 70.0205V71.4531C395.405 71.4224 396.174 71.3564 396.895 71.251L396.947 71.7607C395.163 72.0859 393.238 72.0947 391.832 72.0947L391.735 71.5234C392.39 71.519 393.164 71.5146 393.977 71.4883V70.0205H394.653ZM396.49 66.9268V67.498H394.653C394.671 68.5088 395.51 69.3306 396.666 69.6602L396.341 70.2051C395.4 69.9238 394.667 69.3218 394.319 68.5264C393.977 69.3657 393.247 69.9897 392.307 70.2754L391.973 69.748C393.128 69.4097 393.941 68.5527 393.959 67.498H392.166V66.9268H393.977V65.96H394.653V66.9268H396.49ZM398.099 65.8984V73.7295H397.413V65.8984H398.099ZM402.282 67.5771C402.282 68.6318 403.117 69.5811 404.286 69.9502L403.935 70.5039C403.025 70.1963 402.3 69.5547 401.948 68.7285C401.605 69.6206 400.872 70.3237 399.944 70.6621L399.584 70.1084C400.753 69.6953 401.588 68.6846 401.588 67.5771V67.1201H399.76V66.5576H404.084V67.1201H402.282V67.5771ZM405.921 65.9072V71.6377H405.235V65.9072H405.921ZM406.167 72.9648V73.5449H400.876V71.0928H401.562V72.9648H406.167ZM409.999 67.999C409.999 69.4141 410.904 70.8379 412.038 71.3564L411.625 71.9189C410.737 71.4619 410.003 70.5259 409.656 69.4141C409.309 70.583 408.575 71.585 407.688 72.0596L407.239 71.5059C408.382 70.9434 409.296 69.4404 409.296 67.999V66.5752H409.999V67.999ZM413.726 65.8984V73.7295H413.04V69.1328H411.186V68.5703H413.04V65.8984H413.726Z" fill="black"/>
<defs>
<clipPath id="clip0_2648_22774">
<rect width="172" height="51" fill="white" transform="translate(25 25)"/>
</clipPath>
</defs>
</svg>
