<svg width="386" height="48" viewBox="0 0 386 48" fill="none" xmlns="http://www.w3.org/2000/svg">
<rect width="386" height="48" rx="10" fill="#F56156"/>
<path d="M149.891 18.2344V22.6094H145.266V24.3906C147.602 24.3828 149.164 24.3047 150.922 24.0156L151.062 25.4375C149.109 25.7344 147.391 25.7969 144.672 25.7969H143.516V21.2656H148.156V19.625H143.5V18.2344H149.891ZM154.797 17.2812V27.6719H153.062V22.2344H150.656V20.7656H153.062V17.2812H154.797ZM155.172 29.7031V31.1094H145.453V26.8438H147.188V29.7031H155.172ZM168.531 17.2656V31.3906H166.797V17.2656H168.531ZM162.219 21.75C162.219 23.9062 163.531 26.2031 165.812 27.1562L164.859 28.4844C163.234 27.8047 162.023 26.3906 161.375 24.6875C160.742 26.4922 159.523 28 157.875 28.7188L156.938 27.375C159.188 26.375 160.484 24 160.484 21.75V21.0156H157.375V19.625H160.484V17.5625H162.203V19.625H165.25V21.0156H162.219V21.75ZM174.984 20.3281C174.984 21.8125 175.891 23.2656 177.672 23.9219L176.891 25.2188C175.594 24.7422 174.711 23.8516 174.203 22.7656C173.711 23.9766 172.812 24.9609 171.484 25.4844L170.641 24.2031C172.438 23.5 173.328 21.9219 173.344 20.3281H171.016V18.9531H173.344V17.4531H174.984V18.9531H177.281V20.3281H174.984ZM182.703 17.2812V26.8125H181.047V22.1562H179.688V25.5938H178.047V17.5156H179.688V20.7344H181.047V17.2812H182.703ZM178.734 26.4531C178.734 28.0625 180.547 29.5938 183.359 29.9688L182.75 31.3125C180.484 30.9922 178.734 29.9844 177.875 28.5781C176.992 29.9844 175.242 30.9922 172.984 31.3125L172.375 29.9688C175.203 29.5938 176.984 28.0625 177 26.4531V26.1719H178.734V26.4531ZM199.312 17.2656V22.6406H201.484V24.1094H199.312V31.3906H197.578V17.2656H199.312ZM190.469 18.4219V21.9531H193.797V18.4219H195.531V28.0781H188.75V18.4219H190.469ZM190.469 26.6562H193.797V23.3125H190.469V26.6562ZM214.984 28.3125V29.75H202.078V28.3125H207.641V26.0156H203.609V21.3906H211.734V19.6406H203.578V18.2344H213.453V22.7656H205.344V24.5938H213.781V26.0156H209.359V28.3125H214.984ZM226.969 17.2656V22.7812H229.062V24.2344H226.969V31.3594H225.234V17.2656H226.969ZM223.234 18.7344C223.234 22.8906 221.516 26.5312 216.812 28.8438L215.828 27.5C219.266 25.7891 221.125 23.3828 221.484 20.1719H216.594V18.7344H223.234ZM241.531 17.2656V31.3906H239.781V17.2656H241.531ZM237.312 18.7656C237.312 22.9688 235.688 26.5469 230.734 28.8906L229.828 27.5C233.523 25.7422 235.242 23.3516 235.547 20.1406H230.547V18.7656H237.312Z" fill="white"/>
</svg>
