<svg width="191" height="56" viewBox="0 0 191 56" fill="none" xmlns="http://www.w3.org/2000/svg">
<path d="M4.95605 16.7998H14.8881V44.7998H26.1442L24.5654 53.4543H4.95605V16.7998ZM37.6132 40.9816C37.6132 42.7805 37.8169 44.0871 38.2244 44.9016C38.6318 45.6823 39.2769 46.0725 40.1598 46.0725C41.0766 46.0725 41.7217 45.6823 42.0953 44.9016C42.5028 44.0871 42.7065 42.7805 42.7065 40.9816V16.7998H52.6385V40.5234C52.6385 45.2409 51.6198 48.6689 49.5825 50.8071C47.5452 52.9114 44.4041 53.9634 40.1598 53.9634C35.9492 53.9634 32.8084 52.9114 30.7372 50.8071C28.6998 48.6689 27.6812 45.2409 27.6812 40.5234V16.7998H37.6132V40.9816ZM67.5388 16.7998L74.7204 37.7234V16.7998H84.3977V53.4543H72.4793L65.9598 34.4144V53.4543H56.2825V22.0434L54.1942 16.7998H67.5388Z" fill="white"/>
<path d="M87.6929 35.3817C87.6929 30.5624 88.2531 26.778 89.3737 24.0289C90.4942 21.2459 92.175 19.2774 94.4161 18.1235C96.691 16.9696 99.5094 16.3926 102.871 16.3926C103.958 16.3926 105.197 16.4605 106.589 16.5962C108.015 16.698 109.39 16.9017 110.715 17.2071V30.6471H104.552L103.737 24.4871C102.82 24.4871 102.022 24.6059 101.343 24.8435C100.698 25.0471 100.154 25.5053 99.7131 26.218C99.2718 26.9308 98.9321 28.0169 98.6945 29.4762C98.4907 30.9355 98.3889 32.8871 98.3889 35.3308C98.3889 37.978 98.6774 40.0653 99.2547 41.5926C99.8321 43.086 100.698 44.1551 101.852 44.7999C103.041 45.4108 104.552 45.7162 106.385 45.7162C107.2 45.7162 107.981 45.6653 108.728 45.5635C109.475 45.4617 110.273 45.3428 111.122 45.2071V53.2508C110.137 53.4883 108.949 53.658 107.557 53.7599C106.165 53.8955 104.925 53.9635 103.839 53.9635C98.0323 53.9635 93.8897 52.4024 91.411 49.2799C88.9323 46.1573 87.6929 41.5246 87.6929 35.3817ZM114.682 53.4544V16.7999H124.614V30.9017H129.707V16.7999H139.639V53.4544H129.707V39.0471H124.614V53.4544H114.682ZM150.797 53.9635C149.439 53.9635 148.166 53.6242 146.977 52.9453C145.789 52.2326 144.821 51.2144 144.074 49.8908C143.327 48.5671 142.953 46.9719 142.953 45.1053C142.953 42.1864 143.972 39.9805 146.01 38.4871C148.081 36.9937 150.746 36.2471 154.006 36.2471H156.196V33.4471C156.196 32.4628 155.857 31.801 155.178 31.4617C154.499 31.0883 153.633 30.9017 152.58 30.9017C151.29 30.9017 150.05 31.0205 148.862 31.258C147.674 31.4955 146.485 31.8351 145.296 32.2762V25.1489C146.824 24.8096 148.403 24.5041 150.033 24.2326C151.697 23.9271 153.361 23.7744 155.025 23.7744C156.892 23.7744 158.607 24.012 160.169 24.4871C161.731 24.9283 162.987 25.7428 163.938 26.9308C164.889 28.1187 165.364 29.8155 165.364 32.0217V53.4544H157.419L156.807 51.2653C155.959 52.1817 155.008 52.8605 153.955 53.3017C152.903 53.7428 151.85 53.9635 150.797 53.9635ZM154.363 47.2435C155.042 47.2435 155.653 46.938 156.196 46.3271V41.2871H155.534C154.515 41.2871 153.65 41.5417 152.936 42.0508C152.223 42.526 151.867 43.2555 151.867 44.2398C151.867 45.1901 152.122 45.9369 152.631 46.4799C153.14 46.9889 153.718 47.2435 154.363 47.2435ZM180.65 24.1817H186.202V31.0544H180.65V43.7308C180.65 44.681 180.888 45.3769 181.363 45.818C181.873 46.2592 182.671 46.4799 183.757 46.4799C184.3 46.4799 184.776 46.4628 185.183 46.4289C185.591 46.361 185.93 46.2933 186.202 46.2253V52.9962C185.387 53.2678 184.521 53.4883 183.604 53.658C182.721 53.8617 181.822 53.9635 180.905 53.9635C177.781 53.9635 175.421 53.3017 173.825 51.978C172.263 50.6205 171.482 48.2108 171.482 44.7489V31.0544H167.662V24.1817H171.482V17.7671H180.65V24.1817Z" fill="black"/>
<path d="M153.69 35.6367C159.808 35.6367 164.77 39.9121 164.77 45.1847C164.769 50.4566 159.808 54.7302 153.69 54.7302C152.593 54.7325 151.5 54.592 150.44 54.3125C149.633 54.7162 147.776 55.4908 144.653 55.9953C144.377 56.039 144.166 55.7568 144.274 55.5032C144.765 54.3631 145.207 52.842 145.342 51.4562C143.643 49.779 142.614 47.5843 142.613 45.1847C142.613 39.9123 147.573 35.6372 153.69 35.6367ZM151.017 40.7276V48.364H156.11V40.7276H151.017Z" fill="black"/>
<path d="M37.6906 8.99999C37.6906 10.6477 37.3883 12.0312 36.7835 13.1506C36.1786 14.2699 35.3721 15.0398 34.3641 15.4602L35.0802 29.4545C35.1016 29.75 35.0166 30.0056 34.8256 30.2217C34.6346 30.4375 34.4013 30.5455 34.1252 30.5455H31.0692C30.7934 30.5455 30.5599 30.4375 30.3689 30.2217C30.1779 30.0056 30.0931 29.75 30.1142 29.4545L30.8306 15.4602C29.8226 15.0398 29.0161 14.2699 28.4113 13.1506C27.8064 12.0312 27.5039 10.6477 27.5039 8.99999C27.5039 7.54547 27.7295 6.12785 28.1806 4.74717C28.6316 3.36647 29.2547 2.23011 30.0506 1.33807C30.8464 0.446022 31.6955 0 32.5972 0C33.4993 0 34.3481 0.446022 35.1439 1.33807C35.9397 2.23011 36.5632 3.36647 37.0142 4.74717C37.4652 6.12785 37.6906 7.54547 37.6906 8.99999Z" fill="white"/>
<path d="M45.0435 6.817e-06C45.1802 6.817e-06 45.3121 0.0549024 45.4089 0.15164C45.5057 0.248366 45.5607 0.380304 45.5607 0.517053V11.0842C45.5592 11.1541 45.5846 11.2224 45.6328 11.2731C45.6809 11.3235 45.7471 11.3532 45.8169 11.3551C45.8867 11.3567 45.9552 11.3309 46.0059 11.283C46.0565 11.2347 46.0863 11.1667 46.0879 11.0966L46.5705 0.492194C46.5768 0.359365 46.6331 0.233197 46.7296 0.141697C46.8261 0.0502643 46.9547 -0.000678043 47.0877 6.817e-06H48.1647C48.2973 -0.00014605 48.4267 0.0502513 48.5227 0.141697C48.6187 0.233137 48.6755 0.359757 48.6819 0.492194L49.1619 11.0966C49.1635 11.1667 49.1933 11.2347 49.2439 11.283C49.2946 11.3311 49.3631 11.3567 49.4329 11.3551C49.5029 11.3534 49.5686 11.3236 49.617 11.2731C49.6654 11.2224 49.6932 11.1542 49.6916 11.0842V0.517053C49.6916 0.380601 49.7446 0.248319 49.8409 0.15164C49.9369 0.0552906 50.0678 0.000741173 50.204 6.817e-06H50.8033C51.062 0.000127231 51.3118 0.098437 51.5021 0.273445C51.6918 0.448168 51.8084 0.68766 51.8303 0.944608L52.7033 11.4073C52.7655 12.1521 52.587 12.8972 52.1935 13.5327C51.8 14.1681 51.212 14.6607 50.5173 14.9372L50.4078 14.9819C50.0454 15.126 49.7365 15.3793 49.5225 15.7053C49.3084 16.0317 49.1994 16.4163 49.2116 16.8065L49.627 30.9507C49.627 31.4819 49.4158 31.9918 49.04 32.3675C48.6641 32.7432 48.154 32.9542 47.6225 32.9542C47.091 32.9542 46.5809 32.7432 46.2047 32.3675C45.8289 31.9918 45.618 31.4819 45.618 30.9507L46.0356 16.8065C46.0481 16.4163 45.9391 16.0316 45.725 15.7053C45.5105 15.3789 45.2001 15.126 44.8369 14.9819L44.7277 14.9372C44.0327 14.6606 43.4449 14.1683 43.0515 13.5327C42.6578 12.8967 42.4787 12.15 42.5416 11.4048L43.4169 0.944608C43.4388 0.687349 43.5575 0.448237 43.7477 0.273445C43.9377 0.0987611 44.186 0.000402788 44.444 6.817e-06H45.0435Z" fill="white"/>
</svg>
