<svg width="332" height="111" viewBox="0 0 332 111" fill="none" xmlns="http://www.w3.org/2000/svg">
<g filter="url(#filter0_d_2329_23912)">
<rect x="20" y="39" width="279" height="50" rx="20" fill="white" fill-opacity="0.9" shape-rendering="crispEdges"/>
</g>
<path d="M88.1328 51.4688V52.5H81.8516V51.4688H84.3477V50.4023H85.6484V51.4688H88.1328ZM84.9922 52.9102C86.5273 52.9102 87.5703 53.6836 87.582 54.8438C87.5703 56.0039 86.5273 56.7773 84.9922 56.7773C83.457 56.7773 82.3906 56.0039 82.3906 54.8438C82.3906 53.6836 83.457 52.9102 84.9922 52.9102ZM84.9922 53.8945C84.1836 53.8945 83.6562 54.2461 83.6562 54.8438C83.6562 55.4414 84.1836 55.7812 84.9922 55.7695C85.8008 55.7812 86.3398 55.4414 86.3398 54.8438C86.3398 54.2461 85.8008 53.8945 84.9922 53.8945ZM90.1953 50.4492V53.2617H91.6719V54.3281H90.1953V57.082H88.8945V50.4492H90.1953ZM90.1953 57.5742V61.043H88.8945V58.6172H83.1406V57.5742H90.1953ZM100.895 51.4219V52.5C100.895 53.8125 100.895 55.2422 100.508 57.3164L99.2305 57.1875C99.5938 55.2305 99.5938 53.7773 99.5938 52.5V52.4648H93.1836V51.4219H100.895ZM101.867 58.6055V59.6719H92.2109V58.6055H94.3789V55.2305H95.6797V58.6055H97.0273V55.2305H98.3047V58.6055H101.867ZM111.723 50.4492V61.043H110.469V50.4492H111.723ZM109.543 50.6367V60.5273H108.301V55.4883H107.293C107.17 57.5508 106.285 58.8281 104.973 58.8164C103.59 58.8281 102.688 57.3633 102.688 55.0312C102.688 52.6992 103.59 51.2578 104.973 51.2578C106.256 51.2578 107.129 52.4531 107.281 54.4336H108.301V50.6367H109.543ZM104.973 52.4883C104.305 52.4766 103.883 53.3789 103.895 55.0312C103.883 56.6836 104.305 57.5859 104.973 57.5742C105.676 57.5859 106.098 56.6836 106.098 55.0312C106.098 53.3789 105.676 52.4766 104.973 52.4883ZM116.867 52.9922C116.867 54.9609 117.805 56.8945 119.492 57.6328L118.707 58.6758C117.506 58.0898 116.662 56.9648 116.211 55.582C115.748 57.041 114.887 58.2539 113.668 58.875L112.848 57.8203C114.57 57.0117 115.531 54.9727 115.543 52.9922V51.3047H116.867V52.9922ZM121.836 50.4492V61.0547H120.547V54.9258H118.32V53.8711H120.547V50.4492H121.836ZM134.727 52.7344V53.7773H127.414V50.5898H128.691V52.7344H134.727ZM135.84 54.5859V55.6289H126.16V54.5859H135.84ZM134.656 56.3672V59.0742H128.633V59.8945H135.008V60.9141H127.32V58.125H133.367V57.375H127.309V56.3672H134.656ZM149.047 56.6016V57.6328H139.391V56.6016H143.562V55.9219C141.723 55.8281 140.691 55.2656 140.691 54.3164C140.691 53.2617 141.969 52.7109 144.207 52.7109C146.445 52.7109 147.734 53.2617 147.734 54.3164C147.734 55.2656 146.697 55.8223 144.863 55.9219V56.6016H149.047ZM147.957 59.8008V60.832H140.586V58.1836H141.887V59.8008H147.957ZM148.52 51.3633V52.3477H139.871V51.3633H143.562V50.3789H144.863V51.3633H148.52ZM144.207 53.625C142.73 53.625 142.016 53.8477 142.027 54.3164C142.016 54.7852 142.73 55.0078 144.207 55.0078C145.672 55.0078 146.398 54.7852 146.398 54.3164C146.398 53.8477 145.672 53.625 144.207 53.625ZM153.559 53.4609C153.559 55.1016 154.531 56.9648 156.207 57.7383L155.48 58.7695C154.285 58.207 153.4 57.0703 152.926 55.7461C152.445 57.1992 151.52 58.4414 150.301 59.0273L149.539 58.0078C151.227 57.2109 152.246 55.2188 152.258 53.4609V52.5703H149.949V51.4922H155.773V52.5703H153.559V53.4609ZM158.059 50.4492V54.5742H159.688V55.6641H158.059V61.043H156.758V50.4492H158.059ZM171.852 57.2227V61.0547H170.551V58.2656H164.633V57.2227H171.852ZM171.852 50.4492V56.707H170.551V54.082H168.418V56.0859H163.438V51.2227H168.418V53.0273H170.551V50.4492H171.852ZM164.738 52.2773V55.0547H167.129V52.2773H164.738ZM181.93 53.4492V54.4805H174.594V50.8359H175.883V53.4492H181.93ZM183.02 55.7109V56.7422H173.34V55.7109H183.02ZM182 59.7422V60.7969H174.5V57.6797H175.801V59.7422H182ZM195.441 50.4492V56.6016H194.141V54.0352H192.312V52.9688H194.141V50.4492H195.441ZM195.441 57.0586V60.9141H188.398V57.0586H195.441ZM189.699 58.0898V59.8594H194.164V58.0898H189.699ZM190.461 52.1953C190.461 53.4727 191.316 54.7734 192.957 55.3359L192.301 56.3672C191.117 55.9629 190.279 55.1602 189.816 54.1641C189.348 55.2656 188.463 56.1504 187.215 56.5664L186.547 55.5469C188.234 54.9844 189.137 53.5898 189.137 52.1836V52.1016H186.934V51.0469H192.652V52.1016H190.461V52.1953ZM205.766 50.4609V56.4492H204.453V50.4609H205.766ZM205.766 56.9766V60.9141H198.734V56.9766H205.766ZM200.023 58.0078V59.8594H204.488V58.0078H200.023ZM200.891 51.8906C200.891 53.2383 201.793 54.5039 203.445 55.0312L202.812 56.0273C201.588 55.6465 200.709 54.8672 200.234 53.8477C199.748 54.9434 198.857 55.8164 197.586 56.2383L196.941 55.207C198.664 54.6562 199.543 53.2852 199.543 51.8906V50.8594H200.891V51.8906ZM211.32 52.9922C211.309 54.9375 212.328 56.8828 214.051 57.6211L213.277 58.6641C212.059 58.1016 211.162 56.9766 210.676 55.5938C210.189 57.0879 209.281 58.3066 207.992 58.9102L207.195 57.8203C208.965 57.0586 209.996 55.0312 209.996 52.9922V51.3047H211.32V52.9922ZM216.125 50.4492V61.0547H214.812V50.4492H216.125ZM226.039 50.4492V53.4961H227.516V54.5859H226.039V58.0898H224.715V50.4492H226.039ZM223.156 51.2578C223.156 54.0703 221.328 56.0742 218.188 56.9883L217.648 55.957C220.068 55.2598 221.51 53.9414 221.738 52.3242H218.094V51.2578H223.156ZM226.438 59.7773V60.832H219.23V57.3047H220.555V59.7773H226.438ZM229.344 60.0938C228.84 60.0938 228.43 59.6836 228.43 59.1797C228.43 58.6875 228.84 58.2773 229.344 58.2773C229.824 58.2773 230.246 58.6875 230.246 59.1797C230.246 59.6836 229.824 60.0938 229.344 60.0938ZM232.613 60.0938C232.109 60.0938 231.699 59.6836 231.699 59.1797C231.699 58.6875 232.109 58.2773 232.613 58.2773C233.094 58.2773 233.516 58.6875 233.516 59.1797C233.516 59.6836 233.094 60.0938 232.613 60.0938ZM235.883 60.0938C235.379 60.0938 234.969 59.6836 234.969 59.1797C234.969 58.6875 235.379 58.2773 235.883 58.2773C236.363 58.2773 236.785 58.6875 236.785 59.1797C236.785 59.6836 236.363 60.0938 235.883 60.0938ZM46.2207 68.2344V68.8672C46.209 69.5938 46.209 70.6367 45.9629 71.9844L44.6738 71.8672C44.8789 70.7715 44.9199 69.9629 44.9434 69.3125H40.8184V68.2344H46.2207ZM43.5488 70.6484V72.7578C44.6445 72.7168 45.7695 72.6348 46.7949 72.4883L46.8652 73.4258C44.6621 73.8242 42.166 73.8594 40.3027 73.8711L40.1855 72.8281C40.8125 72.8223 41.5156 72.8164 42.2598 72.8047V70.6484H43.5488ZM48.752 67.4492V70.7539H50.123V71.8438H48.752V75.3828H47.416V67.4492H48.752ZM49.0918 76.7773V77.832H41.7676V74.6797H43.0801V76.7773H49.0918ZM59.498 67.4609V73.4492H58.1855V67.4609H59.498ZM59.498 73.9766V77.9141H52.4668V73.9766H59.498ZM53.7559 75.0078V76.8594H58.2207V75.0078H53.7559ZM54.623 68.8906C54.623 70.2383 55.5254 71.5039 57.1777 72.0312L56.5449 73.0273C55.3203 72.6465 54.4414 71.8672 53.9668 70.8477C53.4805 71.9434 52.5898 72.8164 51.3184 73.2383L50.6738 72.207C52.3965 71.6562 53.2754 70.2852 53.2754 68.8906V67.8594H54.623V68.8906ZM64.8301 69.9922C64.8184 71.8789 65.7676 73.8008 67.4082 74.5859L66.6113 75.6289C65.4629 75.0488 64.6367 73.9297 64.1855 72.582C63.7227 74.0234 62.8555 75.2188 61.6426 75.8281L60.8457 74.7852C62.5449 73.9766 63.5176 71.9492 63.5293 69.9922V68.3047H64.8301V69.9922ZM69.3418 67.4492V71.5977H70.9707V72.7109H69.3418V78.043H68.041V67.4492H69.3418ZM81.2832 71.5391V72.6055H79.7129V78.0195H78.4121V67.4492H79.7129V71.5391H81.2832ZM73.0801 68.4805V74.3281C74.4922 74.3047 75.998 74.1816 77.5918 73.8477L77.7324 74.9492C75.9512 75.3008 74.252 75.4062 72.6816 75.4062H71.791V68.4805H73.0801ZM88.6543 69.6055C88.6543 70.918 89.5566 72.207 91.2441 72.7344L90.5762 73.7539C89.375 73.3613 88.502 72.5703 88.0215 71.5625C87.541 72.6582 86.6445 73.5312 85.3848 73.9648L84.7168 72.9336C86.416 72.3711 87.3301 71 87.3418 69.6055V69.3008H85.0566V68.2578H90.8809V69.3008H88.6543V69.6055ZM93.459 67.4609V75.1484H92.1465V67.4609H93.459ZM93.752 76.7773V77.832H86.4512V74.4453H87.7637V76.7773H93.752ZM104.686 75.7344V76.8125H95.0059V75.7344H99.1777V74.0117H96.1543V70.543H102.248V69.2305H96.1309V68.1758H103.537V71.5742H97.4551V72.9453H103.783V74.0117H100.467V75.7344H104.686ZM113.674 67.4492V71.5859H115.244V72.6758H113.674V78.0195H112.373V67.4492H113.674ZM110.873 68.5508C110.873 71.668 109.584 74.3984 106.057 76.1328L105.318 75.125C107.896 73.8418 109.291 72.0371 109.561 69.6289H105.893V68.5508H110.873ZM127.408 67.4492V78.0547H126.096V67.4492H127.408ZM120.459 68.3164V70.9648H123.025V68.3164H124.314V75.5586H119.158V68.3164H120.459ZM120.459 74.4922H123.025V71.9844H120.459V74.4922ZM138.623 72.4648V73.5195H128.967V72.4648H138.623ZM134.439 74.4219C134.439 75.6289 135.74 76.707 137.932 76.9883L137.451 77.9844C135.74 77.7441 134.439 77.041 133.795 76.0156C133.127 77.041 131.82 77.7441 130.115 77.9844L129.646 76.9883C131.826 76.707 133.115 75.6289 133.127 74.4219V74.1523H134.439V74.4219ZM134.463 68.0352C134.463 69.2305 135.916 70.4844 138.107 70.7539L137.604 71.7969C135.863 71.5273 134.475 70.707 133.807 69.6055C133.121 70.7129 131.721 71.5273 129.975 71.7969L129.482 70.7539C131.662 70.4844 133.115 69.2656 133.127 68.0352V67.625H134.463V68.0352ZM147.693 67.4609V70.7891H149.17V71.8672H147.693V75.3711H146.393V67.4609H147.693ZM145.631 68.6328V69.6758H139.35V68.6328H141.846V67.4492H143.146V68.6328H145.631ZM142.49 70.1094C144.014 70.1094 145.068 70.918 145.08 72.1367C145.068 73.3438 144.014 74.1406 142.49 74.1406C140.955 74.1406 139.889 73.3438 139.889 72.1367C139.889 70.918 140.955 70.1094 142.49 70.1094ZM142.49 71.1172C141.682 71.1172 141.154 71.4922 141.154 72.1367C141.154 72.7695 141.682 73.1445 142.49 73.1328C143.299 73.1445 143.838 72.7695 143.838 72.1367C143.838 71.4922 143.299 71.1172 142.49 71.1172ZM148.115 76.7773V77.832H140.908V74.75H142.209V76.7773H148.115ZM161.381 67.4609V75.2305H160.068V67.4609H161.381ZM161.674 76.7773V77.832H154.373V74.5273H155.686V76.7773H161.674ZM156.576 69.9219C156.576 71.1758 157.49 72.3711 159.178 72.8516L158.557 73.8828C157.32 73.5195 156.436 72.7695 155.955 71.8086C155.475 72.8516 154.578 73.6719 153.318 74.0586L152.686 73.0391C154.385 72.5234 155.275 71.2578 155.275 69.9219V69.7812H153.014V68.75H155.275V67.5078H156.588V68.75H158.838V69.7812H156.576V69.9219ZM171.4 68.0938V69.043C171.4 70.0332 171.4 71.1172 171.119 72.6172H172.584V73.6719H168.377V78.0547H167.064V73.6719H162.928V72.6172H169.795C170.088 71.1758 170.1 70.0977 170.1 69.1484H164.064V68.0938H171.4ZM176.463 68.1055C178.092 68.1055 179.334 69.1602 179.346 70.6602C179.334 71.9551 178.42 72.9102 177.131 73.1562V74.7148C178.01 74.6738 178.895 74.6035 179.721 74.4922L179.814 75.4648C177.6 75.8633 175.174 75.875 173.357 75.8516L173.17 74.7852C173.967 74.7852 174.881 74.7852 175.83 74.7617V73.1562C174.5 72.9336 173.58 71.9727 173.592 70.6602C173.58 69.1602 174.799 68.1055 176.463 68.1055ZM176.463 69.207C175.537 69.2188 174.857 69.7695 174.857 70.6602C174.857 71.5508 175.537 72.1133 176.463 72.1016C177.377 72.1133 178.057 71.5508 178.057 70.6602C178.057 69.7695 177.377 69.2188 176.463 69.207ZM181.631 67.4492V71.6797H183.166V72.7812H181.631V78.043H180.33V67.4492H181.631ZM195.33 67.4492V78.0547H194.018V67.4492H195.33ZM189.623 68.2227C191.217 68.2227 192.377 69.6758 192.389 71.9609C192.377 74.2695 191.217 75.7109 189.623 75.7109C188.018 75.7109 186.857 74.2695 186.857 71.9609C186.857 69.6758 188.018 68.2227 189.623 68.2227ZM189.623 69.3945C188.721 69.3945 188.111 70.3438 188.111 71.9609C188.111 73.5898 188.721 74.5391 189.623 74.5391C190.514 74.5391 191.123 73.5898 191.123 71.9609C191.123 70.3438 190.514 69.3945 189.623 69.3945ZM199.736 68.2227C201.33 68.2227 202.479 69.6758 202.49 71.9609C202.479 74.2695 201.33 75.7109 199.736 75.7109C198.131 75.7109 196.971 74.2695 196.982 71.9609C196.971 69.6758 198.131 68.2227 199.736 68.2227ZM199.736 69.3945C198.846 69.3945 198.236 70.3438 198.236 71.9609C198.236 73.5898 198.846 74.5391 199.736 74.5391C200.639 74.5391 201.236 73.5898 201.236 71.9609C201.236 70.3438 200.639 69.3945 199.736 69.3945ZM206.756 69.9805V71.0703H205.186V73.1094H206.756V74.1758H205.186V78.043H203.885V67.4492H205.186V69.9805H206.756ZM216.107 67.4492V78.043H214.795V67.4492H216.107ZM212.943 68.5742C212.943 71.7266 211.725 74.4102 208.01 76.168L207.33 75.125C210.102 73.8066 211.391 72.0137 211.619 69.6055H207.869V68.5742H212.943ZM225.928 67.4492V71.668H227.557V72.7461H225.928V78.043H224.639V67.4492H225.928ZM223.818 69.0781V70.1211H217.572V69.0781H220.08V67.6016H221.381V69.0781H223.818ZM220.736 70.8125C222.26 70.8125 223.396 71.8438 223.396 73.3086C223.396 74.7734 222.26 75.793 220.736 75.793C219.189 75.793 218.053 74.7734 218.064 73.3086C218.053 71.8438 219.189 70.8125 220.736 70.8125ZM220.736 71.8789C219.904 71.8789 219.307 72.4414 219.307 73.3086C219.307 74.1758 219.904 74.7266 220.736 74.7148C221.545 74.7266 222.143 74.1758 222.154 73.3086C222.143 72.4414 221.545 71.8789 220.736 71.8789ZM236.65 68.4219V69.4414C236.639 70.7539 236.639 72.2305 236.229 74.4453L234.916 74.3047C235.326 72.2422 235.326 70.7363 235.338 69.4648H229.01V68.4219H236.65ZM237.658 75.6055V76.6719H228.002V75.6055H231.564V71.9258H232.854V75.6055H237.658ZM247.197 67.4609V73.332H245.885V67.4609H247.197ZM242.322 68.8555C242.322 70.1914 243.213 71.457 244.889 71.9375L244.268 72.9805C243.031 72.5938 242.141 71.8086 241.666 70.8008C241.18 71.8906 240.277 72.752 239.006 73.1562L238.373 72.125C240.084 71.5977 240.975 70.25 240.975 68.8555V67.8359H242.322V68.8555ZM247.256 73.8594V74.8906H245.92V76.8594H247.35V77.9141H239.943V76.8594H241.385V74.8906H240.037V73.8594H247.256ZM242.674 76.8594H244.631V74.8906H242.674V76.8594ZM251.639 68.2227C253.074 68.2227 254.135 69.418 254.322 71.3516H256.338V67.4492H257.627V78.0547H256.338V72.4062H254.334C254.193 74.4512 253.115 75.7109 251.639 75.7109C250.045 75.7109 248.92 74.2695 248.92 71.9609C248.92 69.6758 250.045 68.2227 251.639 68.2227ZM251.639 69.3945C250.76 69.3945 250.162 70.3438 250.174 71.9609C250.162 73.5898 250.76 74.5391 251.639 74.5391C252.518 74.5391 253.104 73.5898 253.115 71.9609C253.104 70.3438 252.518 69.3945 251.639 69.3945ZM268.795 75.6875V76.7539H259.115V75.6875H261.354V73.0039C260.51 72.5234 260 71.7676 260.006 70.8242C259.994 69.1367 261.658 68.0234 263.932 68.0234C266.217 68.0234 267.881 69.1367 267.881 70.8242C267.881 71.75 267.389 72.4941 266.568 72.9805V75.6875H268.795ZM263.932 69.0547C262.35 69.0547 261.271 69.7227 261.283 70.8242C261.271 71.9141 262.35 72.5938 263.932 72.5938C265.514 72.5938 266.604 71.9141 266.604 70.8242C266.604 69.7227 265.514 69.0547 263.932 69.0547ZM262.643 75.6875H265.244V73.4727C264.84 73.5664 264.4 73.6133 263.932 73.6133C263.475 73.6133 263.041 73.5664 262.643 73.4844V75.6875ZM270.775 77.0938C270.271 77.0938 269.861 76.6836 269.861 76.1797C269.861 75.6875 270.271 75.2773 270.775 75.2773C271.256 75.2773 271.678 75.6875 271.678 76.1797C271.678 76.6836 271.256 77.0938 270.775 77.0938ZM274.045 77.0938C273.541 77.0938 273.131 76.6836 273.131 76.1797C273.131 75.6875 273.541 75.2773 274.045 75.2773C274.525 75.2773 274.947 75.6875 274.947 76.1797C274.947 76.6836 274.525 77.0938 274.045 77.0938ZM278.1 68.5156L277.971 74.5039H276.646L276.506 68.5156H278.1ZM277.314 77.0938C276.811 77.0938 276.4 76.6836 276.4 76.1797C276.4 75.6875 276.811 75.2773 277.314 75.2773C277.795 75.2773 278.217 75.6875 278.217 76.1797C278.217 76.6836 277.795 77.0938 277.314 77.0938Z" fill="black"/>
<defs>
<filter id="filter0_d_2329_23912" x="0" y="21" width="319" height="90" filterUnits="userSpaceOnUse" color-interpolation-filters="sRGB">
<feFlood flood-opacity="0" result="BackgroundImageFix"/>
<feColorMatrix in="SourceAlpha" type="matrix" values="0 0 0 0 0 0 0 0 0 0 0 0 0 0 0 0 0 0 127 0" result="hardAlpha"/>
<feOffset dy="2"/>
<feGaussianBlur stdDeviation="10"/>
<feComposite in2="hardAlpha" operator="out"/>
<feColorMatrix type="matrix" values="0 0 0 0 0.94902 0 0 0 0 0.545098 0 0 0 0 0.509804 0 0 0 0.3 0"/>
<feBlend mode="normal" in2="BackgroundImageFix" result="effect1_dropShadow_2329_23912"/>
<feBlend mode="normal" in="SourceGraphic" in2="effect1_dropShadow_2329_23912" result="shape"/>
</filter>
</defs>
</svg>
