<svg width="183" height="17" viewBox="0 0 183 17" fill="none" xmlns="http://www.w3.org/2000/svg">
<path d="M7.37988 6.79102H2.35254V8.53125C3.69434 8.51953 4.8252 8.4873 5.74512 8.43457C6.66504 8.38184 7.5791 8.28516 8.4873 8.14453L8.66309 9.9375C7.63184 10.0957 6.58887 10.2012 5.53418 10.2539C4.47949 10.3008 3.11426 10.3242 1.43848 10.3242H0.102539V5.08594H5.14746V3.46875H0.0849609V1.69336H7.37988V6.79102ZM12.9873 12.416H10.7549V6.36914H8.18848V4.4707H10.7549V0.638672H12.9873V12.416ZM13.3916 16.3359H2.28223V11.4492H4.51465V14.543H13.3916V16.3359ZM28.4385 16.6172H26.1885V0.621094H28.4385V16.6172ZM21.3193 5.63086C21.3193 6.42773 21.4688 7.22168 21.7676 8.0127C22.0723 8.80371 22.5234 9.52148 23.1211 10.166C23.7188 10.8105 24.4424 11.3086 25.292 11.6602L24.0791 13.3828C23.1943 13.0195 22.4238 12.4805 21.7676 11.7656C21.1172 11.0508 20.6045 10.2188 20.2295 9.26953C19.8604 10.2832 19.3447 11.1709 18.6826 11.9326C18.0264 12.6885 17.2471 13.2539 16.3447 13.6289L15.1494 11.9062C15.9932 11.5371 16.7109 11.0186 17.3027 10.3506C17.9004 9.68262 18.3457 8.93848 18.6387 8.11816C18.9375 7.29785 19.0869 6.46875 19.0869 5.63086V5.01562H15.6768V3.22266H19.0693V0.972656H21.3018V3.22266H24.6416V5.01562H21.3193V5.63086ZM38.124 4.17188H35.6631C35.6748 5.00977 35.9268 5.77441 36.4189 6.46582C36.9111 7.15137 37.6377 7.66406 38.5986 8.00391L37.5967 9.67383C36.9053 9.43359 36.3135 9.09668 35.8213 8.66309C35.335 8.22363 34.9424 7.70801 34.6436 7.11621C34.3506 7.7666 33.9551 8.33496 33.457 8.82129C32.9648 9.30176 32.3643 9.67383 31.6553 9.9375L30.6006 8.32031C31.251 8.06836 31.793 7.72852 32.2266 7.30078C32.666 6.87305 32.9912 6.39258 33.2021 5.85938C33.4189 5.32031 33.5303 4.75781 33.5361 4.17188H31.0576V2.39648H33.5361V0.814453H35.6631V2.39648H38.124V4.17188ZM44.3643 11.4492H42.2373V6.28125H40.9541V10.043H38.8447V0.884766H40.9541V4.45312H42.2373V0.638672H44.3643V11.4492ZM39.9346 10.957C39.9287 11.5371 40.1221 12.0967 40.5146 12.6357C40.9072 13.1689 41.4902 13.6318 42.2637 14.0244C43.0371 14.4111 43.9717 14.6719 45.0674 14.8066L44.2939 16.5469C43.0049 16.3711 41.8945 16.0283 40.9629 15.5186C40.0312 15.0088 39.3164 14.373 38.8184 13.6113C38.3145 14.373 37.5938 15.0088 36.6562 15.5186C35.7246 16.0283 34.6201 16.3711 33.3428 16.5469L32.5518 14.8066C33.6475 14.6719 34.582 14.4111 35.3555 14.0244C36.1289 13.6318 36.709 13.1689 37.0957 12.6357C37.4883 12.0967 37.6846 11.5371 37.6846 10.957V10.6934H39.9346V10.957Z" fill="#F56156"/>
<path d="M60.7646 10.5879H46.1748V8.79492H60.7646V10.5879ZM59.1123 16.3359H47.9326V11.6602H50.1826V14.543H59.1123V16.3359ZM53.4697 1.11328C54.6299 1.10742 55.6465 1.23633 56.5195 1.5C57.3984 1.76367 58.0781 2.1416 58.5586 2.63379C59.0391 3.12598 59.2822 3.70898 59.2881 4.38281C59.2822 5.05664 59.0391 5.64258 58.5586 6.14062C58.0781 6.63867 57.3984 7.02246 56.5195 7.29199C55.6465 7.55566 54.6299 7.6875 53.4697 7.6875C52.2979 7.6875 51.2725 7.55566 50.3936 7.29199C49.5146 7.02246 48.835 6.63867 48.3545 6.14062C47.874 5.64258 47.6338 5.05664 47.6338 4.38281C47.6338 3.70898 47.874 3.12598 48.3545 2.63379C48.835 2.1416 49.5146 1.76367 50.3936 1.5C51.2725 1.23633 52.2979 1.10742 53.4697 1.11328ZM53.4697 2.87109C52.3506 2.88281 51.4863 3.01758 50.877 3.27539C50.2676 3.5332 49.9658 3.90234 49.9717 4.38281C49.9658 4.875 50.2646 5.24707 50.8682 5.49902C51.4775 5.75098 52.3447 5.87695 53.4697 5.87695C54.5947 5.87695 55.459 5.75098 56.0625 5.49902C56.666 5.24707 56.9678 4.875 56.9678 4.38281C56.9678 3.90234 56.6631 3.5332 56.0537 3.27539C55.4443 3.01758 54.583 2.88281 53.4697 2.87109ZM79.2744 16.6523H77.0068V0.621094H79.2744V16.6523ZM70.5908 1.74609C71.3936 1.74609 72.1113 1.98047 72.7441 2.44922C73.3828 2.91797 73.8838 3.58301 74.2471 4.44434C74.6104 5.30566 74.792 6.30469 74.792 7.44141C74.792 8.58984 74.6104 9.59766 74.2471 10.4648C73.8838 11.3262 73.3828 11.9912 72.7441 12.46C72.1113 12.9229 71.3936 13.1543 70.5908 13.1543C69.7705 13.1543 69.0381 12.9229 68.3936 12.46C67.749 11.9912 67.2451 11.3262 66.8818 10.4648C66.5244 9.59766 66.3486 8.58984 66.3545 7.44141C66.3486 6.30469 66.5244 5.30566 66.8818 4.44434C67.2451 3.58301 67.749 2.91797 68.3936 2.44922C69.0381 1.98047 69.7705 1.74609 70.5908 1.74609ZM70.5908 3.76758C70.1748 3.76758 69.8086 3.91113 69.4922 4.19824C69.1816 4.47949 68.9414 4.89551 68.7715 5.44629C68.6016 5.99707 68.5166 6.66211 68.5166 7.44141C68.5166 8.22656 68.6016 8.89453 68.7715 9.44531C68.9414 9.99609 69.1816 10.4121 69.4922 10.6934C69.8086 10.9746 70.1748 11.1152 70.5908 11.1152C71.001 11.1152 71.3584 10.9746 71.6631 10.6934C71.9678 10.4062 72.2051 9.9873 72.375 9.43652C72.5449 8.88574 72.6299 8.2207 72.6299 7.44141C72.6299 6.66797 72.5449 6.00586 72.375 5.45508C72.2051 4.89844 71.9648 4.47949 71.6543 4.19824C71.3496 3.91113 70.9951 3.76758 70.5908 3.76758ZM94.9189 9.25195H92.6865V5.19141H90.1201V3.39844H92.6865V0.621094H94.9189V9.25195ZM95.165 11.6953H83.8271V10.0254H88.3799V8.84766H90.6299V10.0254H95.165V11.6953ZM89.4873 12.1523C90.9697 12.1523 92.1094 12.3428 92.9062 12.7236C93.709 13.0986 94.1104 13.6465 94.1104 14.3672C94.1104 15.1113 93.7119 15.6709 92.915 16.0459C92.1182 16.4268 90.9756 16.6172 89.4873 16.6172C88.0049 16.6172 86.8682 16.4268 86.0771 16.0459C85.292 15.6709 84.8994 15.1113 84.8994 14.3672C84.8994 13.6465 85.2949 13.0986 86.0859 12.7236C86.8828 12.3428 88.0166 12.1523 89.4873 12.1523ZM89.4873 13.6816C87.8818 13.6816 87.0791 13.9102 87.0791 14.3672C87.0791 14.625 87.2666 14.8096 87.6416 14.9209C88.0225 15.0322 88.6377 15.0879 89.4873 15.0879C90.3428 15.0879 90.9609 15.0322 91.3418 14.9209C91.7227 14.8096 91.9131 14.625 91.9131 14.3672C91.9131 13.9102 91.1045 13.6816 89.4873 13.6816ZM89.3115 5.63086H84.2842V6.79102C85.6318 6.78516 86.7598 6.75586 87.668 6.70312C88.5762 6.64453 89.4873 6.5332 90.4014 6.36914L90.5947 8.0918C89.5518 8.26758 88.5029 8.38184 87.4482 8.43457C86.3994 8.4873 85.0342 8.51367 83.3525 8.51367H82.0342V4.06641H87.0791V2.95898H82.0166V1.30664H89.3115V5.63086ZM110.862 16.6172H108.753V0.621094H110.862V16.6172ZM107.452 15.9141H105.36V8.56641H102.741C102.272 9.50391 101.654 10.3652 100.887 11.1504C100.119 11.9355 99.1787 12.6504 98.0654 13.2949L96.7998 11.7129C98.3818 10.7695 99.5625 9.70312 100.342 8.51367C101.127 7.32422 101.599 5.92969 101.757 4.33008H97.6787V2.51953H103.989C103.978 4.14258 103.793 5.56641 103.436 6.79102H105.36V0.972656H107.452V15.9141ZM122.587 4.24219C122.581 5.2207 122.719 6.16992 123 7.08984C123.281 8.00391 123.706 8.82422 124.274 9.55078C124.843 10.2773 125.54 10.8398 126.366 11.2383L125.013 13.0312C124.181 12.6211 123.469 12.0439 122.877 11.2998C122.291 10.5557 121.825 9.68262 121.479 8.68066C121.122 9.74707 120.627 10.6816 119.994 11.4844C119.367 12.2812 118.614 12.8965 117.735 13.3301L116.347 11.5195C117.22 11.1211 117.955 10.5439 118.553 9.78809C119.15 9.02637 119.596 8.16797 119.889 7.21289C120.188 6.25195 120.337 5.26172 120.337 4.24219V1.85156H122.587V4.24219ZM129.319 6.79102H131.675V8.68945H129.319V16.6172H127.069V0.621094H129.319V6.79102ZM146.845 9.99023H132.255V8.19727H135.542V6.28125C134.95 6.01758 134.496 5.68945 134.18 5.29688C133.869 4.9043 133.714 4.45312 133.714 3.94336C133.714 3.30469 133.951 2.75391 134.426 2.29102C134.9 1.82227 135.577 1.46484 136.456 1.21875C137.335 0.972656 138.366 0.849609 139.55 0.849609C140.722 0.849609 141.744 0.972656 142.617 1.21875C143.49 1.46484 144.164 1.82227 144.639 2.29102C145.119 2.75391 145.362 3.30469 145.368 3.94336C145.362 4.45312 145.198 4.91016 144.876 5.31445C144.554 5.71289 144.091 6.04102 143.487 6.29883V8.19727H146.845V9.99023ZM139.532 10.834C140.687 10.834 141.68 10.9453 142.512 11.168C143.344 11.3906 143.982 11.7158 144.428 12.1436C144.873 12.5713 145.099 13.0898 145.104 13.6992C145.099 14.3203 144.873 14.8477 144.428 15.2812C143.982 15.7148 143.344 16.043 142.512 16.2656C141.68 16.4883 140.687 16.5996 139.532 16.5996C138.36 16.5996 137.355 16.4883 136.518 16.2656C135.68 16.043 135.038 15.7148 134.593 15.2812C134.147 14.8477 133.925 14.3203 133.925 13.6992C133.925 13.0898 134.147 12.5713 134.593 12.1436C135.038 11.7158 135.68 11.3906 136.518 11.168C137.355 10.9453 138.36 10.834 139.532 10.834ZM139.532 12.5215C137.3 12.5215 136.192 12.9141 136.21 13.6992C136.192 14.5195 137.3 14.9297 139.532 14.9297C141.729 14.9297 142.837 14.5195 142.854 13.6992C142.837 12.9141 141.729 12.5215 139.532 12.5215ZM139.55 2.57227C138.413 2.57227 137.543 2.68945 136.939 2.92383C136.342 3.1582 136.046 3.49805 136.052 3.94336C136.046 4.37695 136.342 4.70508 136.939 4.92773C137.537 5.15039 138.407 5.26172 139.55 5.26172C140.681 5.26172 141.545 5.15039 142.143 4.92773C142.746 4.70508 143.048 4.37695 143.048 3.94336C143.048 3.49805 142.746 3.1582 142.143 2.92383C141.539 2.68945 140.675 2.57227 139.55 2.57227ZM141.255 8.19727V6.86133C140.751 6.91992 140.183 6.94922 139.55 6.94922C138.882 6.94922 138.302 6.91699 137.81 6.85254V8.19727H141.255ZM155.528 4.83984H147.794V3.06445H150.571V1.06055H152.786V3.06445H155.528V4.83984ZM151.696 5.56055C152.37 5.56055 152.971 5.72461 153.498 6.05273C154.031 6.375 154.447 6.82324 154.746 7.39746C155.051 7.97168 155.206 8.625 155.212 9.35742C155.206 10.0898 155.051 10.7461 154.746 11.3262C154.447 11.9062 154.031 12.3604 153.498 12.6885C152.971 13.0107 152.37 13.1719 151.696 13.1719C151.022 13.1719 150.416 13.0107 149.877 12.6885C149.344 12.3604 148.925 11.9062 148.62 11.3262C148.315 10.7461 148.163 10.0898 148.163 9.35742C148.163 8.63086 148.315 7.98047 148.62 7.40625C148.925 6.82617 149.344 6.375 149.877 6.05273C150.416 5.72461 151.022 5.56055 151.696 5.56055ZM151.696 7.42383C151.222 7.42383 150.841 7.59668 150.554 7.94238C150.272 8.28809 150.132 8.75977 150.132 9.35742C150.132 9.95508 150.272 10.4238 150.554 10.7637C150.841 11.1035 151.222 11.2734 151.696 11.2734C152.153 11.2734 152.522 11.1035 152.804 10.7637C153.091 10.4238 153.237 9.95508 153.243 9.35742C153.237 8.75977 153.091 8.28809 152.804 7.94238C152.522 7.59668 152.153 7.42383 151.696 7.42383ZM161.646 16.6172H159.519V8.91797H158.218V15.9316H156.126V0.9375H158.218V7.125H159.519V0.621094H161.646V16.6172ZM178.011 14.7539H163.368V12.9082H166.638V8.99707C166.005 8.61621 165.516 8.14746 165.17 7.59082C164.824 7.02832 164.651 6.39844 164.651 5.70117C164.651 4.85156 164.909 4.10156 165.425 3.45117C165.94 2.80078 166.652 2.29688 167.561 1.93945C168.475 1.57617 169.509 1.39453 170.663 1.39453C171.812 1.39453 172.84 1.57617 173.748 1.93945C174.662 2.29688 175.38 2.80078 175.901 3.45117C176.423 4.10156 176.687 4.85156 176.692 5.70117C176.687 6.38086 176.514 6.99902 176.174 7.55566C175.84 8.10645 175.368 8.57227 174.759 8.95312V12.9082H178.011V14.7539ZM170.663 3.16992C169.901 3.16992 169.233 3.26953 168.659 3.46875C168.091 3.66797 167.648 3.95801 167.332 4.33887C167.021 4.71387 166.866 5.16797 166.866 5.70117C166.866 6.2168 167.021 6.66504 167.332 7.0459C167.648 7.42676 168.094 7.71973 168.668 7.9248C169.242 8.12988 169.907 8.23242 170.663 8.23242C171.413 8.23242 172.075 8.12988 172.649 7.9248C173.224 7.71973 173.669 7.42676 173.985 7.0459C174.308 6.66504 174.472 6.2168 174.478 5.70117C174.472 5.17383 174.311 4.71973 173.994 4.33887C173.678 3.95801 173.232 3.66797 172.658 3.46875C172.084 3.26953 171.419 3.16992 170.663 3.16992ZM172.491 12.9082V9.80566C171.888 9.91699 171.278 9.97266 170.663 9.97266C170.007 9.97266 169.403 9.91699 168.853 9.80566V12.9082H172.491ZM182.335 11.1855H180.085L179.856 2.27344H182.563L182.335 11.1855ZM181.228 15.1582C180.958 15.1582 180.709 15.0908 180.48 14.9561C180.252 14.8213 180.07 14.6426 179.936 14.4199C179.807 14.1914 179.745 13.9453 179.751 13.6816C179.745 13.418 179.807 13.1748 179.936 12.9521C180.07 12.7295 180.252 12.5537 180.48 12.4248C180.709 12.29 180.958 12.2227 181.228 12.2227C181.479 12.2227 181.717 12.29 181.939 12.4248C182.168 12.5537 182.35 12.7295 182.484 12.9521C182.619 13.1748 182.687 13.418 182.687 13.6816C182.687 13.9453 182.619 14.1914 182.484 14.4199C182.35 14.6426 182.168 14.8213 181.939 14.9561C181.717 15.0908 181.479 15.1582 181.228 15.1582Z" fill="black"/>
</svg>
