<svg width="237" height="18" viewBox="0 0 237 18" fill="none" xmlns="http://www.w3.org/2000/svg">
<path d="M14.8281 0.0234375V17.8359H12.3086V0.0234375H14.8281ZM5.17969 1.27344C7.85547 1.27344 9.84766 3.73438 9.84766 7.60156C9.84766 11.5078 7.85547 13.9492 5.17969 13.9492C2.44531 13.9492 0.453125 11.5078 0.472656 7.60156C0.453125 3.73438 2.44531 1.27344 5.17969 1.27344ZM5.17969 3.51953C3.79297 3.51953 2.875 4.96484 2.875 7.60156C2.875 10.2578 3.79297 11.6836 5.17969 11.6836C6.52734 11.6836 7.44531 10.2578 7.44531 7.60156C7.44531 4.96484 6.52734 3.51953 5.17969 3.51953ZM32.6016 0.0234375V17.7969H30.2383V0.0234375H32.6016ZM28.9688 0.316406V16.9766H26.625V8.12891H24.2812V6.11719H26.625V0.316406H28.9688ZM22.8555 4.78906C22.8555 7.73828 23.7734 10.7266 26.3711 12.2109L24.9062 14.0469C23.3242 13.1094 22.2793 11.5176 21.6836 9.61328C21.0684 11.6836 19.9941 13.4414 18.3633 14.4375L16.8594 12.6016C19.4766 11 20.4531 7.79688 20.4531 4.78906V3.83203H17.543V1.83984H25.5508V3.83203H22.8555V4.78906ZM47.875 1.21484V6.87891H42.2891V8.8125C45.043 8.79297 46.9766 8.71484 49.1055 8.38281L49.3008 10.375C46.8594 10.7461 44.6719 10.8047 41.2734 10.8047H39.7891V4.98438H45.3945V3.1875H39.7695V1.21484H47.875ZM54.1055 0.0429688V13.1289H51.625V6.41016H48.7734V4.30078H51.625V0.0429688H54.1055ZM54.5547 15.4922V17.4844H42.2109V12.0547H44.6914V15.4922H54.5547ZM71.2734 0.0234375V17.7969H68.7734V0.0234375H71.2734ZM63.3633 5.58984C63.3633 8.16797 64.8281 11.0781 67.7773 12.2891L66.4297 14.2031C64.4082 13.373 62.9629 11.6738 62.1523 9.63281C61.3613 11.8008 59.9062 13.6172 57.8359 14.4766L56.5078 12.5625C59.4375 11.293 60.8828 8.30469 60.8828 5.58984V4.90625H57.0938V2.91406H60.8633V0.414062H63.3438V2.91406H67.0547V4.90625H63.3633V5.58984ZM82.0352 1.99609V3.96875H79.3008C79.3203 5.73633 80.3359 7.43555 82.5625 8.22656L81.4492 10.082C79.8672 9.53516 78.8027 8.50977 78.168 7.23047C77.543 8.63672 76.4688 9.76953 74.8477 10.375L73.6758 8.57812C75.9023 7.70898 76.9277 5.87305 76.9375 3.96875H74.1836V1.99609H76.9375V0.238281H79.3008V1.99609H82.0352ZM88.9688 0.0429688V12.0547H86.6055V6.3125H85.1797V10.4922H82.8359V0.316406H85.1797V4.28125H86.6055V0.0429688H88.9688ZM84.0469 11.5078C84.0273 13.3828 85.9609 15.3164 89.75 15.7852L88.8906 17.7188C85.9805 17.3184 83.8906 16.1172 82.8164 14.457C81.7031 16.1172 79.6133 17.3184 76.7227 17.7188L75.8438 15.7852C79.6523 15.3164 81.5469 13.3828 81.5469 11.5078V11.2148H84.0469V11.5078ZM99.0859 0.277344C103.168 0.277344 105.531 1.35156 105.551 3.30469C105.531 5.27734 103.168 6.35156 99.0859 6.35156C94.9844 6.35156 92.6016 5.27734 92.6016 3.30469C92.6016 1.35156 94.9844 0.277344 99.0859 0.277344ZM99.0859 2.09375C96.4688 2.09375 95.1992 2.52344 95.2188 3.30469C95.1992 4.18359 96.4688 4.51562 99.0859 4.51562C101.723 4.51562 102.973 4.18359 102.973 3.30469C102.973 2.52344 101.723 2.09375 99.0859 2.09375ZM107.191 7.19141V9.16406H90.9805V7.19141H107.191ZM105.219 10.1992V14.7305H95.3164V15.8047H105.688V17.6797H92.875V12.9922H102.758V12.0156H92.8555V10.1992H105.219ZM119.789 4.04688C119.789 7.30859 121.273 10.5898 124.281 11.8594L122.816 13.8516C120.785 12.9336 119.379 11.166 118.578 8.96875C117.768 11.3613 116.312 13.2949 114.145 14.2812L112.641 12.2109C115.746 10.9023 117.25 7.50391 117.27 4.04688V1.39062H119.789V4.04688ZM127.758 0.0234375V17.8359H125.238V0.0234375H127.758ZM140.258 1.05859V3.05078H136.723C136.742 5.13086 137.973 7.25977 140.863 8.1875L139.594 10.1211C137.621 9.48633 136.264 8.2168 135.492 6.625C134.701 8.36328 133.285 9.74023 131.215 10.4141L129.887 8.5C132.826 7.55273 134.164 5.27734 134.203 3.05078H130.57V1.05859H140.258ZM144.262 0.0234375V4.33984H146.664V6.41016H144.262V10.7461H141.762V0.0234375H144.262ZM144.262 11.5078V17.7969H141.762V13.4805H132.289V11.5078H144.262ZM156.02 2.73828V4.71094H147.426V2.73828H150.512V0.511719H152.973V2.73828H156.02ZM151.762 5.51172C154.027 5.51172 155.648 7.26953 155.668 9.73047C155.648 12.2109 154.027 13.9688 151.762 13.9688C149.496 13.9688 147.836 12.2109 147.836 9.73047C147.836 7.26953 149.496 5.51172 151.762 5.51172ZM151.762 7.58203C150.727 7.58203 150.023 8.38281 150.023 9.73047C150.023 11.0781 150.727 11.8594 151.762 11.8594C152.758 11.8594 153.461 11.0781 153.48 9.73047C153.461 8.38281 152.758 7.58203 151.762 7.58203ZM162.816 0.0234375V17.7969H160.453V9.24219H159.008V17.0352H156.684V0.375H159.008V7.25H160.453V0.0234375H162.816ZM169.262 0.296875V1.52734H176.391V0.296875H178.871V6.25391H174.027V7.40625H180.941V9.35938H164.73V7.40625H171.566V6.25391H166.801V0.296875H169.262ZM169.262 4.39844H176.391V3.32422H169.262V4.39844ZM178.969 10.2969V14.7891H169.066V15.8047H179.438V17.6797H166.625V13.0703H176.508V12.1133H166.605V10.2969H178.969ZM196.254 0.0234375V6.99609H198.617V9.04688H196.254V17.7969H193.754V0.0234375H196.254ZM187.328 1.83984C187.309 6.72266 186.801 10.5312 183.617 14.0273L181.664 12.6406C184.086 10.0234 184.789 7.41602 184.945 3.87109H182.445V1.83984H187.328ZM192.25 1.83984C192.25 6.91797 191.801 11.3125 188.656 15.1797L186.684 13.793C189.096 10.8242 189.75 7.77734 189.906 3.87109H187.914V1.83984H192.25ZM215.57 13.6758V15.7266H199.301V13.6758H202.934V9.32031C201.557 8.5 200.727 7.24023 200.727 5.66797C200.727 2.79688 203.539 0.882812 207.406 0.882812C211.254 0.882812 214.086 2.79688 214.105 5.66797C214.096 7.20117 213.285 8.45117 211.957 9.28125V13.6758H215.57ZM207.406 2.85547C204.867 2.85547 203.188 3.87109 203.188 5.66797C203.188 7.40625 204.867 8.48047 207.406 8.48047C209.926 8.48047 211.625 7.40625 211.645 5.66797C211.625 3.87109 209.926 2.85547 207.406 2.85547ZM205.395 13.6758H209.438V10.2188C208.803 10.3457 208.119 10.4141 207.406 10.4141C206.693 10.4141 206.02 10.3555 205.395 10.2188V13.6758ZM219.691 11.5469C219.711 9.125 220.355 8.36328 221.527 7.64062C222.367 7.09375 223.012 6.48828 223.012 5.58984C223.012 4.61328 222.25 3.96875 221.312 3.96875C220.395 3.96875 219.555 4.57422 219.516 5.72656H216.742C216.801 2.97266 218.832 1.66406 221.332 1.66406C224.047 1.66406 225.98 3.08984 225.98 5.49219C225.98 7.09375 225.16 8.12891 223.871 8.89062C222.777 9.55469 222.289 10.1797 222.27 11.5469V11.7617H219.691V11.5469ZM221.039 16.1758C220.121 16.1758 219.379 15.4336 219.398 14.5352C219.379 13.6367 220.121 12.9141 221.039 12.9141C221.898 12.9141 222.66 13.6367 222.66 14.5352C222.66 15.4336 221.898 16.1758 221.039 16.1758ZM230.453 11.5469C230.473 9.125 231.117 8.36328 232.289 7.64062C233.129 7.09375 233.773 6.48828 233.773 5.58984C233.773 4.61328 233.012 3.96875 232.074 3.96875C231.156 3.96875 230.316 4.57422 230.277 5.72656H227.504C227.562 2.97266 229.594 1.66406 232.094 1.66406C234.809 1.66406 236.742 3.08984 236.742 5.49219C236.742 7.09375 235.922 8.12891 234.633 8.89062C233.539 9.55469 233.051 10.1797 233.031 11.5469V11.7617H230.453V11.5469ZM231.801 16.1758C230.883 16.1758 230.141 15.4336 230.16 14.5352C230.141 13.6367 230.883 12.9141 231.801 12.9141C232.66 12.9141 233.422 13.6367 233.422 14.5352C233.422 15.4336 232.66 16.1758 231.801 16.1758Z" fill="white"/>
</svg>
