<svg width="153" height="56" viewBox="0 0 153 56" fill="none" xmlns="http://www.w3.org/2000/svg">
<path d="M51.8418 13.5977H36.4854V6.76172H51.6709V9.25195H39.5859V11.1562H51.8418V13.5977ZM54.21 17.2598H45.6162V18.7246H51.7441V24.3887H39.3662V25.707H52.3301V28.0752H36.3145V22.2158H48.668V21.0195H36.29V18.7246H42.5156V17.2598H33.9463V14.7939H54.21V17.2598ZM74.2783 28.2949H71.1777V16.5762H67.5889V14.0371H71.1777V6.0293H74.2783V28.2949ZM66.3438 16.21H59.4346V20.5557C61.1517 20.5394 62.6694 20.4906 63.9878 20.4092C65.3062 20.3197 66.6286 20.1569 67.9551 19.9209L68.1992 22.46C66.6449 22.7122 65.0864 22.8872 63.5239 22.9849C61.9696 23.0744 60.1833 23.1191 58.165 23.1191H56.334V13.7441H63.3164V10.3994H56.2852V7.88477H66.3438V16.21ZM97.4961 25.6582H77.1592V23.1191H85.7285V19.0176H79.3076V7.44531H82.4326V10.8877H92.125V7.44531H95.2256V19.0176H88.8291V23.1191H97.4961V25.6582ZM92.125 16.5273V13.3779H82.4326V16.5273H92.125ZM117.442 28.2461H114.293V6.0293H117.442V28.2461ZM110.777 8.34863C110.777 10.7249 110.456 12.8856 109.813 14.8306C109.178 16.7756 108.104 18.5618 106.59 20.1895C105.077 21.8089 103.038 23.2249 100.475 24.4375L98.8389 21.9473C100.735 21.0521 102.298 20.0552 103.526 18.9565C104.763 17.8579 105.707 16.6413 106.358 15.3066C107.018 13.9639 107.433 12.4583 107.604 10.79H100.035V8.34863H110.777Z" fill="#F56156"/>
<path d="M9.3457 47.0693V47.9072H7.85254V52.9023H6.83203V43.2881H7.85254V47.0693H9.3457ZM1.72949 44.2227V49.6367C3.07227 49.6367 4.47412 49.5239 6.00488 49.207L6.12305 50.0664C4.47949 50.3994 2.9541 50.4854 1.51465 50.4854H0.719727V44.2227H1.72949ZM12.751 43.9004C14.2334 43.9004 15.3398 44.835 15.3398 46.1885C15.3398 47.3809 14.4805 48.2456 13.2666 48.4336V49.959C14.1206 49.9214 14.9746 49.8569 15.7695 49.7549L15.8447 50.5176C13.8145 50.8721 11.5693 50.8828 9.9043 50.8721L9.74316 50.0342C10.4897 50.0288 11.3491 50.0234 12.2461 50.002V48.4336C11 48.2563 10.1514 47.3862 10.1621 46.1885C10.1514 44.835 11.2363 43.9004 12.751 43.9004ZM12.751 44.7598C11.8271 44.7705 11.1504 45.3291 11.1504 46.1885C11.1504 47.0479 11.8271 47.6172 12.751 47.6064C13.6641 47.6172 14.3301 47.0479 14.3408 46.1885C14.3301 45.3291 13.6641 44.7705 12.751 44.7598ZM17.3701 43.2881V47.1982H18.8525V48.0576H17.3701V52.9131H16.3496V43.2881H17.3701ZM25.4053 44.7383C25.3945 45.8447 26.2861 46.8867 27.7686 47.3057L27.2852 48.1006C26.1733 47.7837 25.3462 47.0908 24.9111 46.21C24.4868 47.2144 23.6274 47.9824 22.4404 48.3369L21.9463 47.542C23.4502 47.0908 24.374 45.9629 24.374 44.749V44.6201H22.2686V43.8037H27.4785V44.6201H25.4053V44.7383ZM29.6162 43.2881V45.3184H31.0127V46.1562H29.6162V48.2402H28.5957V43.2881H29.6162ZM29.6162 48.6592V51.0547H24.417V52.0215H29.9492V52.8164H23.418V50.3135H28.6064V49.4541H23.3965V48.6592H29.6162ZM39.123 43.9326V48.0791H34.6221V43.9326H39.123ZM35.6211 44.749V47.2627H38.124V44.749H35.6211ZM41.8086 43.2881V45.5225H43.2051V46.3711H41.8086V48.7451H40.7881V43.2881H41.8086ZM41.959 49.2822V50.0986H39.3271C39.4668 51.0117 40.7183 51.855 42.3564 52.0967L41.9805 52.8809C40.5195 52.6553 39.3164 51.9839 38.7578 51.0654C38.21 51.9893 37.0122 52.6553 35.5566 52.8701L35.1807 52.0859C36.8296 51.855 38.0542 51.0386 38.2207 50.0986H35.5674V49.2822H41.959ZM51.541 46.1025V46.9189H44.9131V43.6318H45.9229V46.1025H51.541ZM52.5508 48.1328V48.9492H43.7422V48.1328H52.5508ZM51.6055 51.8496V52.6875H44.8379V49.8623H45.8584V51.8496H51.6055ZM59.2861 45.7373C59.2754 47.4453 60.2637 49.1855 61.7031 49.8838L61.0693 50.7002C60.022 50.1577 59.2109 49.0781 58.792 47.7891C58.3569 49.1641 57.5137 50.3135 56.418 50.8828L55.7842 50.0557C57.2666 49.3467 58.2656 47.499 58.2656 45.7373V44.0938H59.2861V45.7373ZM63.4434 43.2881V47.123H64.9902V47.9932H63.4434V52.9131H62.4229V43.2881H63.4434ZM73.0146 43.2988V45.6943H74.4219V46.5537H73.0146V49.0244H71.9941V43.2988H73.0146ZM73.0146 49.4756V52.7949H66.8486V49.4756H73.0146ZM67.8477 50.2705V51.9678H72.0264V50.2705H67.8477ZM70.2217 43.8037V46.5215H66.8701V47.7246C68.5405 47.7192 69.7222 47.6709 71.124 47.4346L71.2314 48.251C69.7383 48.5195 68.4707 48.5732 66.623 48.5732H65.8496V45.748H69.2227V44.6201H65.8389V43.8037H70.2217ZM76.6885 51.2588L75.8291 54.2236H74.916L75.4854 51.2588H76.6885ZM84.0039 46.124C84.0039 47.7354 85.0566 49.4004 86.5391 50.0342L85.9805 50.8291C84.8472 50.3296 83.9448 49.2715 83.499 47.9824C83.0532 49.3574 82.1455 50.5283 81.0283 51.0762L80.4375 50.2705C81.8877 49.5938 82.9619 47.7783 82.9727 46.124V45.1035H80.7705V44.2549H86.1953V45.1035H84.0039V46.124ZM88.4297 43.2881V52.9131H87.4092V43.2881H88.4297ZM97.6572 43.7715V44.502C97.6572 45.2593 97.6572 46.1187 97.4102 47.2842H98.7744V48.1221H89.9658V47.2842H96.3789C96.6367 46.1616 96.6475 45.3398 96.6475 44.6094H91.0723V43.7715H97.6572ZM97.668 49.3467V52.7949H91.04V49.3467H97.668ZM92.0391 50.1523V51.9678H96.6582V50.1523H92.0391ZM105.531 45.2754C105.531 46.3711 106.401 47.4023 107.873 47.8105L107.411 48.5947C106.289 48.2832 105.467 47.6064 105.037 46.7363C104.613 47.687 103.77 48.4282 102.631 48.7773L102.137 47.9717C103.608 47.5527 104.521 46.4785 104.521 45.2754V45.168H102.427V44.3516H104.521V43.2451H105.542V44.3516H107.626V45.168H105.531V45.2754ZM109.721 43.2881V45.5977H111.117V46.4463H109.721V48.8418H108.7V43.2881H109.721ZM109.871 49.3252V50.1416H107.239C107.422 51.0386 108.657 51.8604 110.269 52.0967L109.893 52.8809C108.432 52.6553 107.229 51.9839 106.67 51.0654C106.117 51.9785 104.924 52.6392 103.469 52.8701L103.093 52.0859C104.709 51.8604 105.929 51.0654 106.122 50.1416H103.479V49.3252H109.871ZM114.243 44.0078C115.683 44.0078 116.703 45.3184 116.714 47.3809C116.703 49.4541 115.683 50.7646 114.243 50.7646C112.804 50.7646 111.772 49.4541 111.783 47.3809C111.772 45.3184 112.804 44.0078 114.243 44.0078ZM114.243 44.9209C113.362 44.9209 112.761 45.8662 112.761 47.3809C112.761 48.9062 113.362 49.8516 114.243 49.8516C115.135 49.8516 115.736 48.9062 115.736 47.3809C115.736 45.8662 115.135 44.9209 114.243 44.9209ZM119.163 43.2881V47.0586H120.71V47.918H119.163V52.9131H118.143V43.2881H119.163ZM129.98 50.8721V51.7207H121.172V50.8721H125.05V48.8955H122.182V43.9434H123.202V45.5977H127.929V43.9434H128.938V48.8955H126.06V50.8721H129.98ZM123.202 48.0684H127.929V46.4248H123.202V48.0684ZM133.611 45.9199C133.611 47.4561 134.256 49.0996 135.545 49.8838L134.976 50.668C134.073 50.1255 133.461 49.1641 133.139 48.0469C132.779 49.2715 132.118 50.3135 131.184 50.8828L130.55 50.1201C131.914 49.3037 132.623 47.6064 132.623 45.9629V44.1689H133.611V45.9199ZM138.961 43.2881V52.9131H137.983V43.2881H138.961ZM136.963 43.4707V52.4404H135.996V47.5205H134.503V46.6719H135.996V43.4707H136.963ZM148.994 50.8613V51.71H140.186V50.8613H142.291V48.3477C141.501 47.9126 141.023 47.2197 141.023 46.3604C141.023 44.8457 142.506 43.8467 144.568 43.8467C146.642 43.8467 148.124 44.8457 148.124 46.3604C148.124 47.209 147.662 47.8911 146.889 48.3262V50.8613H148.994ZM144.568 44.6631C143.054 44.6631 142.012 45.3184 142.012 46.3604C142.012 47.3916 143.054 48.0684 144.568 48.0684C146.072 48.0684 147.136 47.3916 147.136 46.3604C147.136 45.3184 146.072 44.6631 144.568 44.6631ZM143.301 50.8613H145.857V48.7129C145.465 48.8149 145.03 48.8633 144.568 48.8633C144.117 48.8633 143.688 48.8149 143.301 48.7236V50.8613ZM151.465 44.2227L151.368 49.7549H150.305L150.208 44.2227H151.465ZM150.842 52.0752C150.423 52.0752 150.068 51.7314 150.079 51.3125C150.068 50.8936 150.423 50.5498 150.842 50.5498C151.25 50.5498 151.604 50.8936 151.604 51.3125C151.604 51.7314 151.25 52.0752 150.842 52.0752Z" fill="#F56156"/>
</svg>
