<svg width="223" height="37" viewBox="0 0 223 37" fill="none" xmlns="http://www.w3.org/2000/svg">
<path d="M60.4355 0.21875V3.21875H62.3574V4.875H60.4355V8.01562H58.4355V0.21875H60.4355ZM51.5605 0.9375V2.65625H54.4668V0.9375H56.4668V7.5H49.5762V0.9375H51.5605ZM51.5605 5.9375H54.4668V4.1875H51.5605V5.9375ZM53.0918 8.625V9.90625H58.4355V8.625H60.4355V14.2812H51.0918V8.625H53.0918ZM53.0918 12.6875H58.4355V11.4531H53.0918V12.6875ZM76.1074 2.09375V3.70312H74.2637V5.15625H76.1074V6.8125H74.2637V8.60938H72.2637V0.21875H74.2637V2.09375H76.1074ZM74.2637 9.17188V14.4375H72.2637V10.7812H64.6855V9.17188H74.2637ZM66.9824 1C69.1855 0.984375 70.8574 2.45312 70.8574 4.45312C70.8574 6.5 69.1855 7.9375 66.9824 7.9375C64.7637 7.9375 63.0762 6.5 63.0762 4.45312C63.0762 2.45312 64.7637 0.984375 66.9824 1ZM66.9824 2.70312C65.8574 2.70312 65.0293 3.34375 65.0449 4.45312C65.0293 5.59375 65.8574 6.25 66.9824 6.25C68.0762 6.25 68.9043 5.59375 68.9199 4.45312C68.9043 3.34375 68.0762 2.70312 66.9824 2.70312ZM87.2939 9.28027V10.5498H82.7744V14.168H81.1748V10.5498H76.7188V9.28027H87.2939ZM79.5625 3.05957V4.39258H84.4121V3.05957H86.0371V8.16309H77.9629V3.05957H79.5625ZM79.5625 6.86816H84.4121V5.66211H79.5625V6.86816ZM97.7168 2.61523V14.1934H96.1172V7.99805H94.0859V6.69043H96.1172V2.61523H97.7168ZM93.8955 3.58008V4.8877H90.1123V6.80469H93.4766V8.07422H90.1123V10.2578C91.7119 10.2451 92.9941 10.188 94.4287 9.96582L94.5938 11.2607C92.9053 11.5146 91.3945 11.5781 89.4141 11.5781H88.5V3.58008H93.8955ZM110.266 1.57812C110.25 5.95312 109.078 9.625 103.953 12.2812L102.859 10.7812C105.109 9.59375 106.508 8.27344 107.328 6.70312L103.203 7.07812L102.938 5.39062L107.953 5.09375C108.117 4.49219 108.219 3.85156 108.281 3.17188H103.703V1.57812H110.266ZM114.953 0.21875V14.4375H112.969V7.3125H110.234V5.6875H112.969V0.21875H114.953ZM128.719 0.21875V14.4688H126.734V0.21875H128.719ZM124.312 1.40625V6.89062H119.625V9.5C121.789 9.49219 123.633 9.36719 125.719 9.03125L125.891 10.6406C123.547 11.0469 121.438 11.1406 118.844 11.1406H117.562V5.3125H122.281V3.01562H117.547V1.40625H124.312ZM134.547 1.21875C136.469 1.21875 137.898 2.80469 138.188 5.35938H140.656V0.21875H142.625V14.4688H140.656V6.95312H138.203C137.992 9.6875 136.531 11.3594 134.547 11.3594C132.391 11.3594 130.844 9.40625 130.859 6.28125C130.844 3.1875 132.391 1.21875 134.547 1.21875ZM134.547 3.01562C133.484 3.01562 132.75 4.17188 132.766 6.28125C132.75 8.40625 133.484 9.54688 134.547 9.54688C135.625 9.54688 136.328 8.40625 136.328 6.28125C136.328 4.17188 135.625 3.01562 134.547 3.01562ZM153.629 2.61523V7.14746H155.165V8.48047H153.629V14.168H152.004V2.61523H153.629ZM147.827 3.7959C147.814 6.96973 147.484 9.44531 145.415 11.7178L144.146 10.8164C145.72 9.11523 146.177 7.42041 146.278 5.11621H144.653V3.7959H147.827ZM151.026 3.7959C151.026 7.09668 150.734 9.95312 148.69 12.4668L147.408 11.5654C148.976 9.63574 149.401 7.65527 149.503 5.11621H148.208V3.7959H151.026ZM160.091 5.76367C160.091 7.62988 161.043 9.62305 162.985 10.4355L162.109 11.7051C160.745 11.1274 159.805 9.97852 159.291 8.56934C158.764 10.0991 157.806 11.3687 156.447 11.9971L155.521 10.7148C157.438 9.86426 158.428 7.71875 158.428 5.76367V5.05273H155.978V3.73242H162.503V5.05273H160.091V5.76367ZM165.283 2.61523V14.168H163.646V2.61523H165.283ZM169.924 11.8438L168.58 16.2969H166.924L167.705 11.8438H169.924ZM8.71826 23.25V24.1406C8.71826 25.125 8.71826 26.5469 8.39014 28.3125L6.43701 28.125C6.68701 26.7578 6.74951 25.7266 6.76514 24.875H1.40576V23.25H8.71826ZM5.18701 26.5312V29.25C6.60107 29.1953 8.0542 29.0859 9.39014 28.8906L9.49951 30.3281C6.54639 30.875 3.20264 30.9219 0.733887 30.9375L0.562012 29.3438C1.35889 29.3438 2.25732 29.3438 3.20264 29.3125V26.5312H5.18701ZM12.2026 22.2188V26.5469H13.9214V28.2188H12.2026V32.8594H10.1558V22.2188H12.2026ZM12.6401 34.5938V36.1875H2.65576V31.9062H4.65576V34.5938H12.6401ZM26.4839 22.2344V30.25H24.4839V22.2344H26.4839ZM26.4839 30.9062V36.2812H16.9526V30.9062H26.4839ZM18.9214 32.4844V34.6875H24.5308V32.4844H18.9214ZM20.0308 24.125C20.0151 25.8594 21.062 27.5 23.3589 28.2188L22.3901 29.7344C20.7651 29.2578 19.6401 28.2734 18.9995 27C18.3511 28.3828 17.1948 29.4766 15.4995 30L14.5308 28.4375C16.9058 27.7188 17.9526 25.9062 17.9526 24.125V22.75H20.0308V24.125ZM33.6401 25.4375C33.6245 27.9844 34.7183 30.5625 36.9995 31.6562L35.7964 33.25C34.2729 32.5 33.2495 31.0938 32.6558 29.375C32.0386 31.2188 30.937 32.7266 29.3276 33.5156L28.0933 31.9062C30.4995 30.7969 31.6401 28.0781 31.6401 25.4375V23.3125H33.6401V25.4375ZM39.6245 22.2188V27.7031H41.7183V29.3906H39.6245V36.4375H37.6245V22.2188H39.6245ZM52.73 33.5527V34.8857H42.1548V33.5527H46.6108V31.8135H43.3735V27.9287H49.9116V26.6592H43.3608V25.3643H51.5112V29.1982H44.9985V30.4932H51.7778V31.8135H48.2231V33.5527H52.73ZM66.1235 24.6279V33.0703H64.5112V30.3281H61.8706C61.312 30.9185 60.5059 31.2803 59.6108 31.2803C57.8589 31.2803 56.5259 30.0107 56.5386 28.2969C56.5259 26.5576 57.8589 25.3008 59.6108 25.2881C60.5059 25.2944 61.3057 25.6499 61.8706 26.2402H64.5112V24.6279H66.1235ZM66.4028 34.6699V35.9648H58.4556V32.2197H60.0806V34.6699H66.4028ZM59.6108 26.7354C58.7095 26.7354 58.062 27.3193 58.0747 28.2969C58.062 29.2617 58.7095 29.8457 59.6108 29.8457C60.4614 29.8457 61.1216 29.2617 61.1216 28.2969C61.1216 27.3193 60.4614 26.7354 59.6108 26.7354ZM62.5688 27.5352C62.626 27.7764 62.6577 28.0303 62.6577 28.2969C62.6577 28.5508 62.626 28.7983 62.5688 29.0332H64.5112V27.5352H62.5688ZM77.3589 24.6152V30.4297H75.7466V29.541H73.106V28.3096H75.7466V27.2939H73.2329C72.5156 29.0332 70.8652 30.144 68.3071 30.6963L67.7612 29.376C70.4082 28.8491 71.6333 27.7573 71.8491 26.3672H68.4087V25.0596H73.6392C73.6392 25.4087 73.6138 25.7451 73.563 26.0625H75.7466V24.6152H77.3589ZM77.3589 30.8486V34.0098H71.3159V34.7715H77.6128V36.0537H69.6909V32.8164H75.7339V32.1182H69.6782V30.8486H77.3589ZM85.7378 29.3125V30.6074H83.4907V32.499C84.4429 32.4673 85.395 32.4038 86.2964 32.3086L86.4233 33.4893C83.897 33.8828 81.269 33.8955 79.0981 33.8955L78.9077 32.5752C79.8281 32.5815 80.8311 32.5815 81.8657 32.5498V30.6074H79.6694V25.6436H85.6743V26.9258H81.2817V29.3125H85.7378ZM88.5688 24.6152V36.1934H86.9565V24.6152H88.5688ZM99.4741 27.7637V29.0332H91.3999V25.0215H93.0122V27.7637H99.4741ZM100.655 30.2773V31.5469H90.0796V30.2773H100.655ZM99.5503 34.6191V35.9141H91.2983V32.4863H92.9233V34.6191H99.5503ZM116.891 23.4531V24.8438C116.875 26.5781 116.875 28.5312 116.36 31.3906L114.407 31.2188C114.875 28.6172 114.891 26.6797 114.891 25.0312H106.375V23.4531H116.891ZM118.063 33.0781V34.7031H105.094V33.0781H107.86V28.6094H109.844V33.0781H111.407V28.6094H113.375V33.0781H118.063ZM131.188 22.2188V36.4375H129.266V29.3281H127.938V35.75H126.063V22.4531H127.938V27.7188H129.266V22.2188H131.188ZM121.5 23.7969V31.2188C122.641 31.1953 123.891 31.0938 125.266 30.8281L125.469 32.5469C123.563 32.875 121.938 32.9688 120.469 32.9688H119.5V23.7969H121.5ZM143.735 23.5781C143.719 27.9531 142.547 31.625 137.422 34.2812L136.329 32.7812C138.579 31.5938 139.977 30.2734 140.797 28.7031L136.672 29.0781L136.407 27.3906L141.422 27.0938C141.586 26.4922 141.688 25.8516 141.75 25.1719H137.172V23.5781H143.735ZM148.422 22.2188V36.4375H146.438V29.3125H143.704V27.6875H146.438V22.2188H148.422ZM162.219 22.2188V36.4375H160.204V22.2188H162.219ZM158.672 23.5312V25.125H157.407V31.2969C158.032 31.2578 158.649 31.1953 159.25 31.125L159.344 32.6094C156.313 33.1094 153.032 33.1562 150.422 33.1719L150.235 31.5469L151.875 31.5312V25.125H150.625V23.5312H158.672ZM153.813 31.4844L155.469 31.4219V25.125H153.813V31.4844ZM170.766 23.7969V25.375H168.579C168.594 26.7891 169.407 28.1484 171.188 28.7812L170.297 30.2656C169.032 29.8281 168.18 29.0078 167.672 27.9844C167.172 29.1094 166.313 30.0156 165.016 30.5L164.079 29.0625C165.86 28.3672 166.68 26.8984 166.688 25.375H164.485V23.7969H166.688V22.3906H168.579V23.7969H170.766ZM176.313 22.2344V31.8438H174.422V27.25H173.282V30.5938H171.407V22.4531H173.282V25.625H174.422V22.2344H176.313ZM172.375 31.4062C172.36 32.9062 173.907 34.4531 176.938 34.8281L176.25 36.375C173.922 36.0547 172.25 35.0938 171.391 33.7656C170.5 35.0938 168.829 36.0547 166.516 36.375L165.813 34.8281C168.86 34.4531 170.375 32.9062 170.375 31.4062V31.1719H172.375V31.4062ZM193.422 22.6094V24.0938H191.563V25.9688H193.329V27.4531H182.844V25.9688H184.594V24.0938H182.75V22.6094H193.422ZM194.579 28.2031V29.7656H181.61V28.2031H194.579ZM193 30.5781V34.0938H185.079V34.875H193.375V36.3438H183.125V32.7344H191.032V32.0156H183.11V30.5781H193ZM186.594 25.9688H189.563V24.0938H186.594V25.9688ZM207.657 22.2344V31.7812H205.766V27.2812H204.532V30.6094H202.672V22.4844H204.532V25.6719H205.766V22.2344H207.657ZM201.422 23.2031V27.5312H197.938V28.9219C199.493 28.9141 200.649 28.8281 202 28.5625L202.172 30.125C200.532 30.4531 199.141 30.5 197 30.5H196.016V26.0938H199.5V24.7969H196V23.2031H201.422ZM203.719 31.4062C203.704 32.9062 205.25 34.4531 208.313 34.8281L207.516 36.375C205.25 36.0547 203.594 35.0938 202.735 33.7656C201.844 35.0938 200.188 36.0547 197.938 36.375L197.141 34.8281C200.188 34.4531 201.719 32.9062 201.719 31.4062V31.1562H203.719V31.4062ZM222.235 29.1094V30.6875H209.266V29.1094H214.735V27.9688H210.5V26.375H212.25V24.2031H210.407V22.6094H221.079V24.2031H219.219V26.375H220.985V27.9688H216.735V29.1094H222.235ZM220.688 31.6562V36.2812H210.766V31.6562H220.688ZM212.735 33.2188V34.6875H218.735V33.2188H212.735ZM214.25 26.375H217.219V24.2031H214.25V26.375Z" fill="white"/>
</svg>
