<svg width="288" height="52" viewBox="0 0 288 52" fill="none" xmlns="http://www.w3.org/2000/svg">
<path d="M76.9834 4.62109V20.6523H74.7158V4.62109H76.9834ZM68.2998 5.74609C70.708 5.74609 72.501 7.96094 72.501 11.4414C72.501 14.957 70.708 17.1543 68.2998 17.1543C65.8389 17.1543 64.0459 14.957 64.0635 11.4414C64.0459 7.96094 65.8389 5.74609 68.2998 5.74609ZM68.2998 7.76758C67.0518 7.76758 66.2256 9.06836 66.2256 11.4414C66.2256 13.832 67.0518 15.1152 68.2998 15.1152C69.5127 15.1152 70.3389 13.832 70.3389 11.4414C70.3389 9.06836 69.5127 7.76758 68.2998 7.76758ZM87.0205 5.69336V10.791H81.9932V12.5312C84.4717 12.5137 86.2119 12.4434 88.1279 12.1445L88.3037 13.9375C86.1064 14.2715 84.1377 14.3242 81.0791 14.3242H79.7432V9.08594H84.7881V7.46875H79.7256V5.69336H87.0205ZM92.6279 4.63867V16.416H90.3955V10.3691H87.8291V8.4707H90.3955V4.63867H92.6279ZM93.0322 18.543V20.3359H81.9229V15.4492H84.1553V18.543H93.0322ZM112.034 6.00977V7.52148C112.034 9.52539 112.034 11.7754 111.384 15.168L109.134 14.9395C109.74 11.916 109.767 9.66602 109.784 7.78516H100.362V6.00977H112.034ZM113.44 16.8379V18.666H98.8506V16.8379H104.071V11.3359H106.304V16.8379H113.44ZM123.038 5.9043V13.6211H115.216V5.9043H123.038ZM117.431 7.67969V11.8457H120.806V7.67969H117.431ZM127.802 4.63867V16.0117H125.552V4.63867H127.802ZM128.224 18.4551V20.2656H117.079V14.957H119.347V18.4551H128.224ZM137.259 4.84961C140.933 4.84961 143.06 5.81641 143.077 7.57422C143.06 9.34961 140.933 10.3164 137.259 10.3164C133.567 10.3164 131.423 9.34961 131.423 7.57422C131.423 5.81641 133.567 4.84961 137.259 4.84961ZM137.259 6.48438C134.903 6.48438 133.761 6.87109 133.778 7.57422C133.761 8.36523 134.903 8.66406 137.259 8.66406C139.632 8.66406 140.757 8.36523 140.757 7.57422C140.757 6.87109 139.632 6.48438 137.259 6.48438ZM144.554 11.0723V12.8477H129.964V11.0723H144.554ZM142.778 13.7793V17.8574H133.866V18.8242H143.2V20.5117H131.669V16.293H140.563V15.4141H131.651V13.7793H142.778ZM162.29 4.62109V10.8789H164.646V12.7246H162.29V20.6172H160.075V4.62109H162.29ZM158.985 7.01172V8.80469H149.581V7.01172H153.202V4.86719H155.452V7.01172H158.985ZM154.327 9.70117C156.665 9.70117 158.405 11.2832 158.405 13.5156C158.405 15.748 156.665 17.3301 154.327 17.3301C151.972 17.3301 150.231 15.748 150.231 13.5156C150.231 11.2832 151.972 9.70117 154.327 9.70117ZM154.327 11.5117C153.202 11.5293 152.376 12.2852 152.376 13.5156C152.376 14.7637 153.202 15.502 154.327 15.4844C155.452 15.502 156.261 14.7637 156.261 13.5156C156.261 12.2852 155.452 11.5293 154.327 11.5117ZM178.216 8.98047V10.7383H167.036V5.18359H169.269V8.98047H178.216ZM179.851 12.4609V14.2188H165.208V12.4609H179.851ZM178.321 18.4727V20.2656H166.896V15.5195H169.146V18.4727H178.321ZM223.567 17.6992L222.056 22.709H220.192L221.071 17.6992H223.567Z" fill="black"/>
<path d="M197.657 4.62109V8.41797H199.784V10.2461H197.657V13.8848H195.372V4.62109H197.657ZM192.384 14.166C195.671 14.166 197.78 15.3613 197.78 17.3652C197.78 19.4219 195.671 20.6172 192.384 20.6172C189.026 20.6172 186.899 19.4219 186.899 17.3652C186.899 15.3613 189.026 14.166 192.384 14.166ZM192.384 15.9414C190.274 15.9414 189.097 16.4336 189.114 17.3652C189.097 18.332 190.274 18.8418 192.384 18.8418C194.405 18.8418 195.601 18.332 195.601 17.3652C195.601 16.4336 194.405 15.9414 192.384 15.9414ZM192.683 5.69336V7.48633H187.726V11.2129C190.688 11.1953 192.313 11.1074 194.106 10.7207L194.3 12.5137C192.331 12.9531 190.45 13.0059 186.829 13.0234H185.493V5.69336H192.683ZM213.882 4.63867V16.3105H211.632V4.63867H213.882ZM214.304 18.543V20.3359H203.159V15.1855H205.427V18.543H214.304ZM206.622 7.06445C206.604 9.17383 207.729 11.248 210.366 12.0918L209.224 13.8496C207.422 13.252 206.174 12.0566 205.462 10.5273C204.75 12.1709 203.467 13.4893 201.595 14.1309L200.435 12.3555C203.124 11.459 204.284 9.22656 204.284 7.06445V5.51758H206.622V7.06445Z" fill="#F56156"/>
<g clip-path="url(#clip0_2329_23811)">
<path d="M5.03076 36.0996H8.09876V44.5996H11.5758L11.0881 47.2269H5.03076V36.0996ZM15.1186 43.4405C15.1186 43.9866 15.1815 44.3832 15.3074 44.6305C15.4332 44.8675 15.6325 44.986 15.9052 44.986C16.1884 44.986 16.3877 44.8675 16.5031 44.6305C16.629 44.3832 16.6919 43.9866 16.6919 43.4405V36.0996H19.7599V43.3014C19.7599 44.7335 19.4452 45.7742 18.8159 46.4232C18.1866 47.0621 17.2163 47.3814 15.9052 47.3814C14.6046 47.3814 13.6344 47.0621 12.9946 46.4232C12.3652 45.7742 12.0506 44.7335 12.0506 43.3014V36.0996H15.1186V43.4405ZM24.3626 36.0996L26.581 42.4514V36.0996H29.5703V47.2269H25.8887L23.8749 41.4469V47.2269H20.8855V37.6914L20.2405 36.0996H24.3626Z" fill="#F56156"/>
<path d="M30.5884 41.7411C30.5884 40.2781 30.7614 39.1293 31.1076 38.2947C31.4537 37.4499 31.9729 36.8523 32.6652 36.502C33.3679 36.1517 34.2385 35.9766 35.2769 35.9766C35.6126 35.9766 35.9954 35.9972 36.4254 36.0384C36.866 36.0693 37.2908 36.1311 37.6998 36.2238V40.3038H35.7961L35.5444 38.4338C35.2612 38.4338 35.0147 38.4699 34.8049 38.542C34.6056 38.6038 34.4378 38.7429 34.3014 38.9593C34.1651 39.1757 34.0602 39.5054 33.9868 39.9484C33.9238 40.3914 33.8924 40.9838 33.8924 41.7257C33.8924 42.5293 33.9815 43.1629 34.1598 43.6266C34.3382 44.0799 34.6057 44.4045 34.9622 44.6002C35.3294 44.7857 35.7961 44.8784 36.3625 44.8784C36.6142 44.8784 36.8555 44.8629 37.0862 44.832C37.317 44.8011 37.5635 44.765 37.8257 44.7238V47.1657C37.5215 47.2377 37.1545 47.2893 36.7244 47.3202C36.2943 47.3614 35.9115 47.382 35.5758 47.382C33.7822 47.382 32.5026 46.9081 31.7369 45.9602C30.9713 45.0123 30.5884 43.6059 30.5884 41.7411ZM38.9252 47.2275V36.1002H41.9932V40.3811H43.5666V36.1002H46.6346V47.2275H43.5666V42.8538H41.9932V47.2275H38.9252ZM50.0814 47.382C49.6618 47.382 49.2685 47.279 48.9014 47.0729C48.5343 46.8566 48.2354 46.5475 48.0046 46.1457C47.7738 45.7438 47.6584 45.2596 47.6584 44.6929C47.6584 43.8068 47.9731 43.1372 48.6024 42.6838C49.2423 42.2305 50.0656 42.0038 51.0725 42.0038H51.7491V41.1538C51.7491 40.855 51.6442 40.6541 51.4344 40.5511C51.2247 40.4377 50.9572 40.3811 50.632 40.3811C50.2335 40.3811 49.8506 40.4172 49.4835 40.4893C49.1164 40.5614 48.7493 40.6645 48.3822 40.7984V38.6347C48.8542 38.5317 49.3419 38.439 49.8454 38.3566C50.3594 38.2638 50.8733 38.2175 51.3872 38.2175C51.9642 38.2175 52.4938 38.2896 52.9763 38.4338C53.4588 38.5678 53.8469 38.815 54.1405 39.1757C54.4343 39.5363 54.5811 40.0514 54.5811 40.7211V47.2275H52.1267L51.9379 46.5629C51.6757 46.8411 51.382 47.0472 51.0568 47.1811C50.7317 47.315 50.4066 47.382 50.0814 47.382ZM51.1827 45.342C51.3925 45.342 51.5813 45.2493 51.7491 45.0638V43.5338H51.5445C51.2299 43.5338 50.9624 43.6111 50.7421 43.7657C50.5219 43.9099 50.4117 44.1314 50.4117 44.4302C50.4117 44.7187 50.4904 44.9454 50.6478 45.1102C50.8051 45.2647 50.9834 45.342 51.1827 45.342ZM59.303 38.3411H61.0179V40.4275H59.303V44.2757C59.303 44.5641 59.3764 44.7754 59.5232 44.9093C59.6806 45.0432 59.927 45.1102 60.2627 45.1102C60.4305 45.1102 60.5774 45.105 60.7032 45.0947C60.8291 45.0741 60.934 45.0536 61.0179 45.0329V47.0884C60.7662 47.1708 60.4987 47.2377 60.2155 47.2893C59.9428 47.3511 59.6648 47.382 59.3816 47.382C58.4166 47.382 57.6876 47.1811 57.1947 46.7793C56.7122 46.3672 56.471 45.6357 56.471 44.5847V40.4275H55.291V38.3411H56.471V36.3938H59.303V38.3411Z" fill="black"/>
<path d="M50.9749 41.8184C52.8647 41.8184 54.3974 43.1162 54.3974 44.7169C54.3971 46.3173 52.8646 47.6146 50.9749 47.6146C50.6359 47.6153 50.2983 47.5726 49.9708 47.4878C49.7215 47.6103 49.148 47.8455 48.1832 47.9986C48.0981 48.0119 48.0328 47.9262 48.0664 47.8493C48.2178 47.5032 48.3544 47.0414 48.396 46.6207C47.8713 46.1116 47.5533 45.4453 47.5532 44.7169C47.5532 43.1163 49.0853 41.8185 50.9749 41.8184ZM50.1491 43.3638V45.682H51.7224V43.3638H50.1491Z" fill="black"/>
<path d="M15.1428 33.7321C15.1428 34.2323 15.0494 34.6523 14.8625 34.9921C14.6757 35.3319 14.4266 35.5656 14.1152 35.6933L14.3364 39.9415C14.343 40.0312 14.3168 40.1088 14.2578 40.1744C14.1988 40.24 14.1267 40.2727 14.0414 40.2727H13.0974C13.0122 40.2727 12.9401 40.24 12.8811 40.1744C12.8221 40.1088 12.7959 40.0312 12.8024 39.9415L13.0237 35.6933C12.7124 35.5656 12.4632 35.3319 12.2764 34.9921C12.0895 34.6523 11.9961 34.2323 11.9961 33.7321C11.9961 33.2906 12.0658 32.8602 12.2051 32.4411C12.3444 32.022 12.5369 31.677 12.7828 31.4062C13.0286 31.1354 13.2909 31 13.5694 31C13.8481 31 14.1103 31.1354 14.3561 31.4062C14.6019 31.677 14.7945 32.022 14.9338 32.4411C15.0731 32.8602 15.1428 33.2906 15.1428 33.7321Z" fill="#F56156"/>
<path d="M17.4138 31C17.4561 31 17.4968 31.0167 17.5267 31.046C17.5566 31.0754 17.5736 31.1154 17.5736 31.157V34.3648C17.5731 34.3861 17.581 34.4068 17.5959 34.4222C17.6107 34.4375 17.6312 34.4465 17.6527 34.4471C17.6743 34.4476 17.6955 34.4397 17.7111 34.4252C17.7268 34.4105 17.736 34.3899 17.7364 34.3686L17.8855 31.1494C17.8875 31.1091 17.9049 31.0708 17.9347 31.043C17.9645 31.0153 18.0042 30.9998 18.0453 31H18.378C18.419 31 18.4589 31.0153 18.4886 31.043C18.5182 31.0708 18.5358 31.1092 18.5377 31.1494L18.686 34.3686C18.6865 34.3899 18.6957 34.4105 18.7114 34.4252C18.727 34.4398 18.7482 34.4476 18.7697 34.4471C18.7914 34.4466 18.8117 34.4375 18.8266 34.4222C18.8416 34.4068 18.8501 34.3861 18.8497 34.3648V31.157C18.8497 31.1155 18.866 31.0754 18.8958 31.046C18.9254 31.0168 18.9659 31.0002 19.0079 31H19.193C19.273 31 19.3501 31.0299 19.4089 31.083C19.4675 31.1361 19.5035 31.2088 19.5103 31.2868L19.78 34.4629C19.7992 34.689 19.744 34.9152 19.6225 35.1081C19.5009 35.301 19.3193 35.4506 19.1047 35.5345L19.0709 35.5481C18.9589 35.5918 18.8635 35.6687 18.7974 35.7677C18.7313 35.8668 18.6976 35.9835 18.7014 36.102L18.8297 40.3957C18.8297 40.557 18.7645 40.7118 18.6484 40.8258C18.5322 40.9399 18.3747 41.004 18.2105 41.004C18.0463 41.004 17.8887 40.9399 17.7726 40.8258C17.6564 40.7118 17.5913 40.557 17.5913 40.3957L17.7203 36.102C17.7242 35.9835 17.6905 35.8667 17.6243 35.7677C17.5581 35.6686 17.4622 35.5918 17.35 35.5481L17.3163 35.5345C17.1016 35.4505 16.92 35.3011 16.7985 35.1081C16.6769 34.9151 16.6216 34.6884 16.641 34.4622L16.9114 31.2868C16.9182 31.2087 16.9548 31.1361 17.0136 31.083C17.0723 31.03 17.149 31.0001 17.2287 31H17.4138Z" fill="#F56156"/>
</g>
<path d="M80.6494 39.7949V41.5879H66.0596V39.7949H80.6494ZM78.9971 45.543V47.3359H67.8174V42.6602H70.0674V45.543H78.9971ZM73.3545 32.1133C76.8525 32.0957 79.1553 33.3438 79.1729 35.3828C79.1553 37.4219 76.8525 38.6875 73.3545 38.6875C69.8213 38.6875 67.5186 37.4219 67.5186 35.3828C67.5186 33.3438 69.8213 32.0957 73.3545 32.1133ZM73.3545 33.8711C71.1396 33.8887 69.8389 34.416 69.8564 35.3828C69.8389 36.3848 71.1396 36.877 73.3545 36.877C75.5693 36.877 76.8525 36.3848 76.8525 35.3828C76.8525 34.416 75.5693 33.8887 73.3545 33.8711ZM98.3857 31.6211V37.5977H100.741V39.4785H98.3857V47.6172H96.1357V31.6211H98.3857ZM88.5068 32.8867V36.7891H91.8291V32.8867H94.0615V43.9082H86.2744V32.8867H88.5068ZM88.5068 42.0977H91.8291V38.5293H88.5068V42.0977ZM115.964 43.9961V45.8418H101.321V43.9961H107.491V41.5879H103.009V36.209H112.062V34.4512H102.991V32.6582H114.276V37.9668H105.259V39.7598H114.646V41.5879H109.724V43.9961H115.964ZM267.646 31.6211V47.6172H265.501V31.6211H267.646ZM264.306 31.8496V46.8789H262.196V39.3203H260.913C260.702 42.4668 259.366 44.3652 257.397 44.3652C255.288 44.3652 253.917 42.1504 253.917 38.5469C253.917 34.9609 255.288 32.7637 257.397 32.7637C259.322 32.7637 260.641 34.5566 260.896 37.5449H262.196V31.8496H264.306ZM257.397 34.873C256.501 34.873 255.974 36.1035 255.991 38.5469C255.974 41.0078 256.501 42.2207 257.397 42.2031C258.312 42.2207 258.856 41.0078 258.856 38.5469C258.856 36.1035 258.312 34.873 257.397 34.873ZM283.976 43.9082V45.7539H269.333V43.9082H272.603V39.9883C271.363 39.25 270.616 38.1162 270.616 36.7012C270.616 34.1172 273.147 32.3945 276.628 32.3945C280.091 32.3945 282.64 34.1172 282.657 36.7012C282.648 38.0811 281.919 39.2061 280.724 39.9531V43.9082H283.976ZM276.628 34.1699C274.343 34.1699 272.831 35.084 272.831 36.7012C272.831 38.2656 274.343 39.2324 276.628 39.2324C278.896 39.2324 280.425 38.2656 280.442 36.7012C280.425 35.084 278.896 34.1699 276.628 34.1699ZM274.817 43.9082H278.456V40.7969C277.885 40.9111 277.27 40.9727 276.628 40.9727C275.986 40.9727 275.38 40.9199 274.817 40.7969V43.9082Z" fill="black"/>
<path d="M133.753 31.6211V35.418H135.88V37.2461H133.753V40.8848H131.468V31.6211H133.753ZM128.479 41.166C131.767 41.166 133.876 42.3613 133.876 44.3652C133.876 46.4219 131.767 47.6172 128.479 47.6172C125.122 47.6172 122.995 46.4219 122.995 44.3652C122.995 42.3613 125.122 41.166 128.479 41.166ZM128.479 42.9414C126.37 42.9414 125.192 43.4336 125.21 44.3652C125.192 45.332 126.37 45.8418 128.479 45.8418C130.501 45.8418 131.696 45.332 131.696 44.3652C131.696 43.4336 130.501 42.9414 128.479 42.9414ZM128.778 32.6934V34.4863H123.821V38.2129C126.783 38.1953 128.409 38.1074 130.202 37.7207L130.396 39.5137C128.427 39.9531 126.546 40.0059 122.925 40.0234H121.589V32.6934H128.778ZM149.978 31.6387V43.3105H147.728V31.6387H149.978ZM150.399 45.543V47.3359H139.255V42.1855H141.522V45.543H150.399ZM142.718 34.0645C142.7 36.1738 143.825 38.248 146.462 39.0918L145.319 40.8496C143.518 40.252 142.27 39.0566 141.558 37.5273C140.846 39.1709 139.562 40.4893 137.69 41.1309L136.53 39.3555C139.22 38.459 140.38 36.2266 140.38 34.0645V32.5176H142.718V34.0645ZM159.435 31.8496C163.108 31.8496 165.235 32.8164 165.253 34.5742C165.235 36.3496 163.108 37.3164 159.435 37.3164C155.743 37.3164 153.599 36.3496 153.599 34.5742C153.599 32.8164 155.743 31.8496 159.435 31.8496ZM159.435 33.4844C157.079 33.4844 155.937 33.8711 155.954 34.5742C155.937 35.3652 157.079 35.6641 159.435 35.6641C161.808 35.6641 162.933 35.3652 162.933 34.5742C162.933 33.8711 161.808 33.4844 159.435 33.4844ZM166.729 38.0723V39.8477H152.14V38.0723H166.729ZM164.954 40.7793V44.8574H156.042V45.8242H165.376V47.5117H153.845V43.293H162.739V42.4141H153.827V40.7793H164.954ZM177.065 32.2891C179.509 32.2715 181.284 33.6602 181.284 35.6816C181.284 37.6855 179.509 39.0918 177.065 39.0742C174.622 39.0918 172.847 37.6855 172.864 35.6816C172.847 33.6602 174.622 32.2715 177.065 32.2891ZM177.065 34.082C175.87 34.082 175.026 34.6621 175.026 35.6816C175.026 36.6836 175.87 37.2637 177.065 37.2461C178.296 37.2637 179.157 36.6836 179.157 35.6816C179.157 34.6621 178.296 34.082 177.065 34.082ZM185.327 31.6387V47.6172H183.112V31.6387H185.327ZM171.88 40.0586C174.71 40.0586 178.735 39.9883 182.146 39.4785L182.286 41.1309C180.968 41.3945 179.614 41.5615 178.278 41.6582V47.1426H176.046V41.7988C174.64 41.8604 173.312 41.8691 172.161 41.8867L171.88 40.0586ZM200.093 31.6387V36.543H202.255V38.3711H200.093V43.5742H197.843V31.6387H200.093ZM196.894 33.3086V35.084H187.401V33.3086H191.04V31.6035H193.272V33.3086H196.894ZM192.147 35.6465C194.468 35.6465 196.085 36.8945 196.085 38.7402C196.085 40.5859 194.468 41.7988 192.147 41.7988C189.81 41.7988 188.175 40.5859 188.175 38.7402C188.175 36.8945 189.81 35.6465 192.147 35.6465ZM192.147 37.3516C191.075 37.3691 190.354 37.8613 190.372 38.7402C190.354 39.6191 191.075 40.0938 192.147 40.0938C193.22 40.0938 193.958 39.6191 193.958 38.7402C193.958 37.8613 193.22 37.3691 192.147 37.3516ZM200.673 45.543V47.3359H189.722V42.6602H191.954V45.543H200.673ZM213.153 35.2422C213.153 38.248 214.366 41.166 217.038 42.3262L215.667 44.1191C213.892 43.249 212.705 41.6582 212.046 39.6895C211.343 41.7812 210.112 43.4951 208.284 44.4004L206.878 42.5723C209.62 41.3418 210.868 38.248 210.886 35.2422V32.8516H213.153V35.2422ZM220.606 31.6211V47.6523H218.392V38.459H215.245V36.6484H218.392V31.6211H220.606ZM236.058 31.6211V47.6523H233.79V31.6211H236.058ZM225.704 32.8867V36.7891H229.149V32.8867H231.364V43.9082H223.454V32.8867H225.704ZM225.704 42.0977H229.149V38.5293H225.704V42.0977ZM246.64 33.7305C246.64 36.0684 248.714 38.582 252.335 39.1973L251.351 41.0605C248.564 40.5068 246.49 38.9424 245.462 36.877C244.398 38.9248 242.324 40.498 239.556 41.0605L238.589 39.1973C242.14 38.5645 244.231 36.0508 244.249 33.7305V32.5703H246.64V33.7305ZM252.862 43.8027V45.6484H238.22V43.8027H252.862Z" fill="#F56156"/>
<defs>
<clipPath id="clip0_2329_23811">
<rect width="59" height="17" fill="white" transform="translate(3.5 31)"/>
</clipPath>
</defs>
</svg>
