<svg width="182" height="71" viewBox="0 0 182 71" fill="none" xmlns="http://www.w3.org/2000/svg">
<path d="M41.6958 12.7432C41.6958 14.5579 42.0498 16.2181 42.7578 17.7236C43.474 19.221 44.5848 20.3685 46.0903 21.166L44.3569 23.4609C43.3885 22.9645 42.5625 22.2891 41.8789 21.4346C41.1953 20.5801 40.6541 19.5913 40.2554 18.4683C39.8485 19.7052 39.3032 20.7957 38.6196 21.7397C37.936 22.6756 37.106 23.4202 36.1294 23.9736L34.3716 21.6299C35.3807 21.0521 36.2108 20.2952 36.8618 19.3594C37.5129 18.4154 37.9889 17.3778 38.29 16.2466C38.5993 15.1154 38.758 13.9476 38.7661 12.7432V12.3281H35.0796V9.78906H38.7661V6.78613H41.6714V9.78906H45.3335V12.3281H41.6958V12.7432ZM54.147 28.2461H51.1685V17.1133H49.2886V27.2207H46.3345V6.34668H49.2886V14.5742H51.1685V6.0293H54.147V28.2461ZM68.356 10.0576H60.7144V11.791H67.6968V14.208H60.7144V15.9902C62.9116 15.9902 64.6654 15.9577 65.9756 15.8926C67.2939 15.8275 68.6082 15.6891 69.9185 15.4775L70.2358 17.9189C68.8849 18.1387 67.5177 18.2892 66.1343 18.3706C64.759 18.4438 63.0256 18.4805 60.9341 18.4805H59.4937H57.5894V7.56738H68.356V10.0576ZM74.9722 19.5059H71.8472V6.05371H74.9722V19.5059ZM67.4038 19.7988C68.9582 19.7988 70.3132 19.9657 71.4688 20.2993C72.6243 20.633 73.5155 21.1172 74.1421 21.752C74.7687 22.3867 75.0861 23.1436 75.0942 24.0225C75.0861 24.9095 74.7687 25.6663 74.1421 26.293C73.5155 26.9277 72.6243 27.4119 71.4688 27.7456C70.3213 28.0793 68.9663 28.2461 67.4038 28.2461C65.825 28.2461 64.4619 28.0793 63.3145 27.7456C62.167 27.4201 61.2881 26.9399 60.6777 26.3052C60.0674 25.6704 59.7622 24.9095 59.7622 24.0225C59.7622 23.1436 60.0674 22.3867 60.6777 21.752C61.2881 21.1172 62.167 20.633 63.3145 20.2993C64.4619 19.9657 65.825 19.7988 67.4038 19.7988ZM67.4038 22.2158C65.9146 22.2158 64.7834 22.3704 64.0103 22.6797C63.2453 22.9808 62.8628 23.4284 62.8628 24.0225C62.8628 24.6328 63.2453 25.0967 64.0103 25.4141C64.7834 25.7233 65.9146 25.8779 67.4038 25.8779C68.8849 25.8779 70.0161 25.7233 70.7974 25.4141C71.5786 25.0967 71.9692 24.6328 71.9692 24.0225C71.9692 23.4284 71.5786 22.9808 70.7974 22.6797C70.0243 22.3704 68.8931 22.2158 67.4038 22.2158ZM104.074 25.6582H83.7368V23.1191H92.3062V19.0176H85.8853V7.44531H89.0103V10.8877H98.7026V7.44531H101.803V19.0176H95.4067V23.1191H104.074V25.6582ZM98.7026 16.5273V13.3779H89.0103V16.5273H98.7026ZM124.508 28.2461H121.505V17.1377H119.43V27.1719H116.5V6.39551H119.43V14.623H121.505V6.0293H124.508V28.2461ZM109.372 20.104C111.439 20.047 113.4 19.8395 115.255 19.4814L115.573 22.167C113.017 22.6064 110.413 22.8262 107.76 22.8262H106.247V8.49512H109.372V20.104ZM145.626 28.2461H142.477V6.0293H145.626V28.2461ZM138.961 8.34863C138.961 10.7249 138.64 12.8856 137.997 14.8306C137.362 16.7756 136.288 18.5618 134.774 20.1895C133.261 21.8089 131.222 23.2249 128.659 24.4375L127.023 21.9473C128.919 21.0521 130.482 20.0552 131.71 18.9565C132.947 17.8579 133.891 16.6413 134.542 15.3066C135.202 13.9639 135.617 12.4583 135.788 10.79H128.219V8.34863H138.961Z" fill="#F56156"/>
<path d="M49.6694 43.2881V52.9346H48.6489V43.2881H49.6694ZM44.5239 44.0078C45.9526 44.0078 47.0054 45.3184 47.0054 47.3809C47.0054 49.4541 45.9526 50.7646 44.5239 50.7646C43.0737 50.7646 42.0317 49.4541 42.0317 47.3809C42.0317 45.3184 43.0737 44.0078 44.5239 44.0078ZM44.5239 44.9209C43.6323 44.9209 43.02 45.8662 43.02 47.3809C43.02 48.9062 43.6323 49.8516 44.5239 49.8516C45.4048 49.8516 46.0171 48.9062 46.0171 47.3809C46.0171 45.8662 45.4048 44.9209 44.5239 44.9209ZM59.4663 43.2881V52.9131H58.4888V43.2881H59.4663ZM57.5112 43.4922V52.4297H56.5444V47.5312H55.0513V46.6934H56.5444V43.4922H57.5112ZM54.106 45.9736C54.106 47.6172 54.772 49.2607 56.1255 50.0449L55.5132 50.7969C54.5947 50.249 53.9609 49.2769 53.6333 48.1113C53.2842 49.3682 52.6289 50.437 51.689 51.0225L51.0659 50.2598C52.4302 49.4326 53.1284 47.6816 53.1284 45.9736V45.2002H51.356V44.373H55.7603V45.2002H54.106V45.9736ZM68.5005 46.1025V46.9189H61.8726V43.6318H62.8823V46.1025H68.5005ZM69.5103 48.1328V48.9492H60.7017V48.1328H69.5103ZM68.5649 51.8496V52.6875H61.7974V49.8623H62.8179V51.8496H68.5649ZM75.7837 46.2314C75.7837 47.7246 76.4819 49.2822 77.8247 49.9805L77.2446 50.7432C76.3154 50.249 75.6655 49.3306 75.3218 48.2402C74.9727 49.4004 74.3281 50.4048 73.3989 50.9473L72.7974 50.1953C74.1187 49.4219 74.8169 47.7783 74.8276 46.2314V45.877H73.0444V45.0283H74.8276V43.6318H75.7837V45.0283H77.5347V45.877H75.7837V46.2314ZM81.2192 43.2881V52.9131H80.2417V47.9717H79.0923V52.4404H78.1255V43.4707H79.0923V47.1123H80.2417V43.2881H81.2192ZM87.5894 43.9863V44.8027H83.9907V45.8662H87.3208V46.6719H83.9907V47.7676C85.9189 47.7783 87.0415 47.7461 88.3413 47.5205L88.4487 48.3477C87.0522 48.5732 85.8599 48.6055 83.7544 48.6055H82.9595V43.9863H87.5894ZM90.3931 43.2988V49.2178H89.3726V43.2988H90.3931ZM87.1704 49.3467C89.1899 49.3467 90.4468 50.002 90.4468 51.1191C90.4468 52.2471 89.1899 52.9023 87.1704 52.8916C85.1294 52.9023 83.894 52.2471 83.894 51.1191C83.894 50.002 85.1294 49.3467 87.1704 49.3467ZM87.1704 50.1523C85.731 50.1523 84.9146 50.5068 84.9146 51.1191C84.9146 51.7529 85.731 52.1074 87.1704 52.1074C88.5776 52.1074 89.4263 51.7529 89.4263 51.1191C89.4263 50.5068 88.5776 50.1523 87.1704 50.1523ZM96.3013 43.4492C98.4712 43.4492 99.7388 44.0293 99.7388 45.1035C99.7388 46.1777 98.4712 46.7686 96.3013 46.7686C94.1313 46.7686 92.8638 46.1777 92.8638 45.1035C92.8638 44.0293 94.1313 43.4492 96.3013 43.4492ZM96.3013 44.2012C94.7651 44.2012 93.9165 44.5342 93.9272 45.1035C93.9165 45.6943 94.7651 46.0059 96.3013 46.0059C97.8374 46.0059 98.686 45.6943 98.686 45.1035C98.686 44.5342 97.8374 44.2012 96.3013 44.2012ZM100.695 47.3594V48.1758H91.9185V47.3594H100.695ZM99.5884 48.917V51.1729H93.981V52.0322H99.8569V52.8164H92.9819V50.4316H98.5786V49.6797H92.9712V48.917H99.5884ZM111.673 43.2559V45.5117H113.081V46.3496H111.673V48.5518H110.653V43.2559H111.673ZM111.673 49.0029V51.2373H106.474V52.043H112.006V52.8164H105.475V50.5176H110.664V49.7656H105.454V49.0029H111.673ZM109.858 44.1045V44.9102H104.122V44.1045H106.485V43.2021H107.505V44.1045H109.858ZM106.99 45.2754C108.397 45.2754 109.321 45.877 109.321 46.8545C109.321 47.832 108.397 48.4229 106.99 48.4229C105.572 48.4229 104.648 47.832 104.648 46.8545C104.648 45.877 105.572 45.2754 106.99 45.2754ZM106.99 46.0059C106.163 46.0059 105.625 46.3389 105.636 46.8545C105.625 47.3701 106.163 47.6816 106.99 47.6816C107.817 47.6816 108.354 47.3701 108.365 46.8545C108.354 46.3389 107.817 46.0059 106.99 46.0059ZM119.837 45.7373C119.827 47.499 120.89 49.2607 122.383 49.9268L121.771 50.7324C120.665 50.2061 119.789 49.1265 119.343 47.8105C118.892 49.2178 118.006 50.3833 116.851 50.9473L116.228 50.0879C117.743 49.4111 118.806 47.5742 118.806 45.7373V44.0938H119.837V45.7373ZM124.274 43.2881V52.9346H123.253V43.2881H124.274ZM133.373 43.2881V46.1348H134.769V46.9834H133.373V50.2812H132.341V43.2881H133.373ZM130.762 44.0186C130.762 46.543 129.043 48.3799 126.229 49.2285L125.799 48.4121C128.05 47.7354 129.452 46.457 129.656 44.8672H126.208V44.0186H130.762ZM133.77 51.8818V52.709H127.26V49.5615H128.292V51.8818H133.77ZM137.089 44.2227L136.993 49.7549H135.929L135.833 44.2227H137.089ZM136.466 52.0752C136.047 52.0752 135.693 51.7314 135.704 51.3125C135.693 50.8936 136.047 50.5498 136.466 50.5498C136.875 50.5498 137.229 50.8936 137.229 51.3125C137.229 51.7314 136.875 52.0752 136.466 52.0752ZM10.6001 58.2881V62.123H12.0933V62.9717H10.6001V67.9023H9.57959V58.2881H10.6001ZM8.08643 59.2979C8.07568 62.0801 6.85107 64.5615 3.68213 66.1299L3.11279 65.335C5.52441 64.1318 6.83496 62.3916 7.04443 60.1465H3.59619V59.2979H8.08643ZM14.0913 58.7822V60.2002H16.4976V58.7822H17.5073V59.6738H19.6128V58.2881H20.6333V63.541H19.6128V62.3594H17.5073V63.2295H13.0708V58.7822H14.0913ZM14.0913 62.3916H16.4976V61.0059H14.0913V62.3916ZM15.3696 63.9922V65.0771H19.6128V63.9922H20.6226V67.7734H14.3599V63.9922H15.3696ZM15.3696 66.9463H19.6128V65.8721H15.3696V66.9463ZM17.5073 61.5215H19.6128V60.5117H17.5073V61.5215ZM30.3872 58.2881V67.9131H29.4204V58.2881H30.3872ZM28.3569 58.5352V67.4404H27.3901V62.9717H25.5103C24.9355 64.0889 24.0225 65.0664 22.6636 65.8613L22.0835 65.1309C24.1245 63.917 25.1074 62.3003 25.2847 60.3184H22.5347V59.4805H26.2944C26.2891 60.4204 26.1602 61.3174 25.8647 62.1553H27.3901V58.5352H28.3569ZM42.2896 58.2988V65.292H41.269V58.2988H42.2896ZM42.5796 66.8818V67.709H35.9946V64.583H37.0259V66.8818H42.5796ZM37.0688 58.9434C38.519 58.9434 39.6255 59.9316 39.6255 61.3281C39.6255 62.7461 38.519 63.7236 37.0688 63.7236C35.6187 63.7236 34.5015 62.7461 34.5015 61.3281C34.5015 59.9316 35.6187 58.9434 37.0688 58.9434ZM37.0688 59.835C36.1665 59.835 35.5005 60.4473 35.5005 61.3281C35.5005 62.2305 36.1665 62.832 37.0688 62.832C37.9497 62.832 38.6265 62.2305 38.6265 61.3281C38.6265 60.4473 37.9497 59.835 37.0688 59.835ZM47.1558 60.7373C47.145 62.4453 48.1333 64.1855 49.5728 64.8838L48.939 65.7002C47.8916 65.1577 47.0806 64.0781 46.6616 62.7891C46.2266 64.1641 45.3833 65.3135 44.2876 65.8828L43.6538 65.0557C45.1362 64.3467 46.1353 62.499 46.1353 60.7373V59.0938H47.1558V60.7373ZM51.313 58.2881V62.123H52.8599V62.9932H51.313V67.9131H50.2925V58.2881H51.313ZM60.8198 58.2881V62.1875H62.3667V63.0361H60.8198V67.9131H59.8101V58.2881H60.8198ZM58.9722 59.792V60.6299H53.2681V59.792H55.6421V58.417H56.6626V59.792H58.9722ZM56.1577 61.3389C57.5327 61.3389 58.5425 62.2627 58.5532 63.5732C58.5425 64.8945 57.5327 65.8076 56.1577 65.8184C54.772 65.8076 53.7622 64.8945 53.7622 63.5732C53.7622 62.2627 54.772 61.3389 56.1577 61.3389ZM56.1577 62.1768C55.3413 62.1768 54.729 62.7461 54.7397 63.5732C54.729 64.4111 55.3413 64.9697 56.1577 64.959C56.9741 64.9697 57.5757 64.4111 57.5757 63.5732C57.5757 62.7461 56.9741 62.1768 56.1577 62.1768ZM70.6167 59.2119V60.1572C70.6167 61.3496 70.6167 62.6816 70.2515 64.6475L69.2202 64.54C69.5962 62.6816 69.5962 61.3174 69.5962 60.1572V60.0391H63.7524V59.2119H70.6167ZM71.605 65.7646V66.6133H62.8286V65.7646H66.1694V62.3701H67.1792V65.7646H71.605ZM83.0454 58.2881V63.8955H82.0249V61.4785H80.2202V60.6299H82.0249V58.2881H83.0454ZM83.0454 64.3467V67.7949H76.6968V64.3467H83.0454ZM77.7065 65.1523V66.9678H82.0464V65.1523H77.7065ZM78.4692 59.9316C78.4692 61.1348 79.3394 62.3271 80.7896 62.832L80.2632 63.6377C79.1836 63.2563 78.3833 62.4829 77.9644 61.5322C77.5454 62.5903 76.7021 63.439 75.5581 63.8418L75.0317 63.0361C76.5142 62.5312 77.4272 61.2529 77.4272 59.9316V59.7061H75.3433V58.8682H80.5317V59.7061H78.4692V59.9316ZM92.5093 58.2988V63.7451H91.4888V58.2988H92.5093ZM92.5093 64.2607V67.7949H86.1821V64.2607H92.5093ZM87.1919 65.0771V66.9678H91.5103V65.0771H87.1919ZM88.0298 59.5986C88.019 60.8984 88.9536 62.0693 90.4146 62.5635L89.9097 63.3477C88.7925 62.9771 87.9546 62.2144 87.5142 61.2207C87.0845 62.2788 86.2305 63.1221 85.0757 63.5303L84.5708 62.7246C86.0747 62.2197 86.9878 60.9414 86.9878 59.5986V58.6641H88.0298V59.5986ZM102.961 59.6953V60.5332H101.597V61.7578H102.961V62.6172H101.597V63.9922H100.577V58.2881H101.597V59.6953H102.961ZM101.597 64.4219V67.9131H100.577V65.249H95.2378V64.4219H101.597ZM96.7417 58.8467C98.2134 58.8467 99.2983 59.792 99.3091 61.1455C99.2983 62.499 98.2134 63.4443 96.7417 63.4443C95.27 63.4443 94.1743 62.499 94.1851 61.1455C94.1743 59.792 95.27 58.8467 96.7417 58.8467ZM96.7417 59.7168C95.8394 59.7168 95.1733 60.2861 95.1841 61.1455C95.1733 62.0156 95.8394 62.585 96.7417 62.5742C97.644 62.585 98.3101 62.0156 98.3101 61.1455C98.3101 60.2861 97.644 59.7168 96.7417 59.7168ZM112.339 63.0684V63.9062H103.542V63.0684H107.419V61.6611H108.429V63.0684H112.339ZM108.44 58.8467C108.44 60.0713 109.944 61.1455 111.802 61.3818L111.405 62.1875C109.874 61.9458 108.526 61.1992 107.924 60.1357C107.307 61.1992 105.958 61.9458 104.422 62.1875L104.046 61.3818C105.894 61.1455 107.398 60.0605 107.409 58.8467V58.4385H108.44V58.8467ZM111.244 64.7549V67.9131H110.212V65.5605H104.519V64.7549H111.244ZM120.847 62.7246V63.541H117.936V65.8936H121.857V66.7314H113.048V65.8936H116.926V63.541H114.144V59.0293H120.761V59.8564H115.165V62.7246H120.847ZM128.592 59.9209C128.582 61.1133 129.452 62.2305 130.923 62.6816L130.44 63.4658C129.328 63.1221 128.512 62.4023 128.087 61.4893C127.663 62.499 126.82 63.2886 125.66 63.6699L125.144 62.8643C126.637 62.3809 127.561 61.21 127.561 59.9316V59.7275H125.456V58.8896H130.666V59.7275H128.592V59.9209ZM132.803 58.2881V60.458H134.2V61.2959H132.803V63.5625H131.783V58.2881H132.803ZM127.647 64.0029V65.0879H131.783V64.0029H132.803V67.7949H126.637V64.0029H127.647ZM127.647 66.9678H131.783V65.8828H127.647V66.9678ZM137.326 59.0078C138.765 59.0078 139.786 60.3184 139.796 62.3809C139.786 64.4541 138.765 65.7646 137.326 65.7646C135.886 65.7646 134.855 64.4541 134.866 62.3809C134.855 60.3184 135.886 59.0078 137.326 59.0078ZM137.326 59.9209C136.445 59.9209 135.843 60.8662 135.843 62.3809C135.843 63.9062 136.445 64.8516 137.326 64.8516C138.217 64.8516 138.819 63.9062 138.819 62.3809C138.819 60.8662 138.217 59.9209 137.326 59.9209ZM142.246 58.2881V62.0586H143.792V62.918H142.246V67.9131H141.225V58.2881H142.246ZM153.063 65.8721V66.7207H144.254V65.8721H148.132V63.8955H145.264V58.9434H146.285V60.5977H151.011V58.9434H152.021V63.8955H149.142V65.8721H153.063ZM146.285 63.0684H151.011V61.4248H146.285V63.0684ZM156.694 60.9199C156.694 62.4561 157.338 64.0996 158.627 64.8838L158.058 65.668C157.156 65.1255 156.543 64.1641 156.221 63.0469C155.861 64.2715 155.201 65.3135 154.266 65.8828L153.632 65.1201C154.997 64.3037 155.706 62.6064 155.706 60.9629V59.1689H156.694V60.9199ZM162.043 58.2881V67.9131H161.066V58.2881H162.043ZM160.045 58.4707V67.4404H159.079V62.5205H157.585V61.6719H159.079V58.4707H160.045ZM172.077 65.8613V66.71H163.268V65.8613H165.374V63.3477C164.584 62.9126 164.106 62.2197 164.106 61.3604C164.106 59.8457 165.588 58.8467 167.651 58.8467C169.724 58.8467 171.207 59.8457 171.207 61.3604C171.207 62.209 170.745 62.8911 169.971 63.3262V65.8613H172.077ZM167.651 59.6631C166.136 59.6631 165.094 60.3184 165.094 61.3604C165.094 62.3916 166.136 63.0684 167.651 63.0684C169.155 63.0684 170.218 62.3916 170.218 61.3604C170.218 60.3184 169.155 59.6631 167.651 59.6631ZM166.383 65.8613H168.94V63.7129C168.548 63.8149 168.113 63.8633 167.651 63.8633C167.2 63.8633 166.77 63.8149 166.383 63.7236V65.8613ZM173.871 66.001C173.452 66.001 173.097 65.6572 173.108 65.2383C173.097 64.8193 173.452 64.4756 173.871 64.4756C174.279 64.4756 174.633 64.8193 174.633 65.2383C174.633 65.6572 174.279 66.001 173.871 66.001ZM173.871 61.7578C173.452 61.7578 173.097 61.4141 173.108 60.9951C173.097 60.5762 173.452 60.2324 173.871 60.2324C174.279 60.2324 174.633 60.5762 174.633 60.9951C174.633 61.4141 174.279 61.7578 173.871 61.7578ZM178.318 64.0352C178.307 66.0654 177.738 67.752 176.728 69.1914H175.675C176.417 68.1172 177.125 65.958 177.125 64.0352C177.125 62.123 176.417 59.9531 175.675 58.8896H176.728C177.738 60.3291 178.307 62.0156 178.318 64.0352Z" fill="#F56156"/>
</svg>
