<svg width="185" height="71" viewBox="0 0 185 71" fill="none" xmlns="http://www.w3.org/2000/svg">
<path d="M56.5991 25.6582H36.2622V23.0703H56.5991V25.6582ZM54.8901 10.4727H51.7651V17.2109H54.7925V19.6523H37.9468V17.2109H40.9253V10.4727H37.8491V7.98242H54.8901V10.4727ZM48.689 17.2109V10.4727H44.0503V17.2109H48.689ZM78.2056 25.7803H57.8687V23.2168H66.438V19.8721H60.2124V12.4014H72.7856V9.95996H60.188V7.46973H75.8618V14.8428H63.3374V17.333H76.3745V19.8721H69.5386V23.2168H78.2056V25.7803ZM98.1274 17.4307H95.0024V6.0293H98.1274V17.4307ZM98.1274 24.2422H86.1401V25.6338H98.7378V28.0996H83.064V22.0205H95.0513V20.7266H83.0151V18.3096H98.1274V24.2422ZM92.5122 9.76465H90.6812V14.1958C91.6252 14.1226 92.5203 14.0371 93.3667 13.9395L93.5132 16.1611C90.0627 16.7145 85.6193 16.9912 80.1831 16.9912L79.8413 14.5498L82.2339 14.5254V9.76465H80.4272V7.39648H92.5122V9.76465ZM87.6782 14.3789V9.76465H85.2124V14.4644L87.6782 14.3789ZM114.949 9.52051C114.949 10.4401 115.132 11.319 115.498 12.1572C115.864 12.9873 116.426 13.7319 117.183 14.3911C117.948 15.0422 118.896 15.5426 120.027 15.8926L118.367 18.3096C117.211 17.9271 116.218 17.3737 115.388 16.6494C114.558 15.9251 113.899 15.0666 113.411 14.0737C112.914 15.2212 112.227 16.214 111.348 17.0522C110.477 17.8823 109.423 18.5049 108.186 18.9199L106.501 16.4785C107.698 16.0798 108.691 15.5101 109.48 14.7695C110.269 14.029 110.855 13.1867 111.238 12.2427C111.62 11.2905 111.816 10.2855 111.824 9.22754V7.20117H114.949V9.52051ZM124.47 11.2295H127.473V13.8174H124.47V19.2129H121.345V6.0293H124.47V11.2295ZM117.195 19.6523C118.725 19.6523 120.051 19.8232 121.174 20.165C122.297 20.5068 123.164 20.9992 123.774 21.6421C124.385 22.285 124.69 23.054 124.69 23.9492C124.69 24.8525 124.385 25.6257 123.774 26.2686C123.172 26.9115 122.306 27.3997 121.174 27.7334C120.051 28.0752 118.725 28.2461 117.195 28.2461C115.632 28.2461 114.277 28.0752 113.13 27.7334C111.991 27.3997 111.112 26.9115 110.493 26.2686C109.883 25.6257 109.578 24.8525 109.578 23.9492C109.578 23.054 109.883 22.285 110.493 21.6421C111.112 20.9992 111.995 20.5068 113.142 20.165C114.29 19.8232 115.64 19.6523 117.195 19.6523ZM117.195 22.0938C115.722 22.0938 114.603 22.2524 113.838 22.5698C113.073 22.8791 112.694 23.3389 112.703 23.9492C112.678 25.1862 114.176 25.8047 117.195 25.8047C120.141 25.8047 121.614 25.1862 121.614 23.9492C121.614 23.3389 121.235 22.8791 120.479 22.5698C119.73 22.2524 118.635 22.0938 117.195 22.0938ZM135.579 11.6201C135.579 13.6058 135.896 15.4165 136.531 17.0522C137.166 18.688 138.191 19.9616 139.607 20.873L137.922 23.29C136.132 22.2077 134.85 20.4295 134.077 17.9556C133.662 19.2576 133.113 20.4092 132.429 21.4102C131.746 22.403 130.916 23.1924 129.939 23.7783L128.035 21.4834C129.589 20.515 130.728 19.1681 131.453 17.4429C132.185 15.7095 132.551 13.8174 132.551 11.7666V7.93359H135.579V11.6201ZM147.712 28.2461H144.734V6.0293H147.712V28.2461ZM143.049 27.2207H140.144V16.0635H137.263V13.5244H140.144V6.34668H143.049V27.2207Z" fill="#F56156"/>
<path d="M60.9502 50.8506V51.71H52.1416V50.8506H60.9502ZM60.1445 44.2119V45.0498H58.6729V48.2617H60.1123V49.0781H52.915V48.2617H54.3545V45.0498H52.8936V44.2119H60.1445ZM55.3643 48.2617H57.6738V45.0498H55.3643V48.2617ZM70.457 50.9043V51.7637H61.6484V50.9043H65.5264V49.2178H62.7227V46.1562H68.373V44.8027H62.7012V43.9648H69.3828V46.9727H63.7324V48.3799H69.6084V49.2178H66.5361V50.9043H70.457ZM79.1582 43.2881V48.2617H78.127V43.2881H79.1582ZM79.1582 48.7021V51.0869H73.7979V52H79.4912V52.8164H72.7988V50.3457H78.1484V49.5078H72.7666V48.7021H79.1582ZM76.8057 43.9219V44.7275H75.8818V47.0049C76.3491 46.9727 76.811 46.9297 77.2461 46.876L77.2891 47.6172C75.3662 47.9072 73.1211 47.9717 71.4346 47.9717L71.3164 47.1553L72.4873 47.1445V44.7275H71.5742V43.9219H76.8057ZM73.4648 47.123C73.9375 47.1069 74.4209 47.0908 74.9043 47.0586V44.7275H73.4648V47.123ZM85.0449 43.4492C87.2148 43.4492 88.4824 44.0293 88.4824 45.1035C88.4824 46.1777 87.2148 46.7686 85.0449 46.7686C82.875 46.7686 81.6074 46.1777 81.6074 45.1035C81.6074 44.0293 82.875 43.4492 85.0449 43.4492ZM85.0449 44.2012C83.5088 44.2012 82.6602 44.5342 82.6709 45.1035C82.6602 45.6943 83.5088 46.0059 85.0449 46.0059C86.5811 46.0059 87.4297 45.6943 87.4297 45.1035C87.4297 44.5342 86.5811 44.2012 85.0449 44.2012ZM89.4385 47.3594V48.1758H80.6621V47.3594H89.4385ZM88.332 48.917V51.1729H82.7246V52.0322H88.6006V52.8164H81.7256V50.4316H87.3223V49.6797H81.7148V48.917H88.332ZM100.428 43.2988V46.1562H101.803V46.9941H100.428V49.7764H99.4072V43.2988H100.428ZM92.79 48.7021C93.5366 48.7021 94.4014 48.7021 95.3037 48.6699V48.0254C94.208 47.9126 93.5098 47.397 93.5205 46.6182C93.5098 45.7373 94.4229 45.1895 95.8086 45.2002C97.1836 45.1895 98.0967 45.7373 98.0967 46.6182C98.0967 47.3916 97.4092 47.9072 96.3242 48.0254V48.6377C97.1836 48.5947 98.0537 48.5249 98.8594 48.4121L98.9453 49.1426C96.8721 49.5078 94.5947 49.5186 92.8975 49.5186L92.79 48.7021ZM100.428 50.2275V52.9131H99.4072V51.0225H93.9932V50.2275H100.428ZM98.5908 44.1152V44.8779H93.0371V44.1152H95.3037V43.2129H96.3242V44.1152H98.5908ZM95.8086 45.8984C94.9814 45.8877 94.4873 46.1562 94.4873 46.6182C94.4873 47.0693 94.9814 47.3594 95.8086 47.3594C96.625 47.3594 97.1191 47.0693 97.1191 46.6182C97.1191 46.1562 96.625 45.8877 95.8086 45.8984ZM110.343 43.2988V50.292H109.322V43.2988H110.343ZM110.633 51.8818V52.709H104.048V49.583H105.079V51.8818H110.633ZM105.122 43.9434C106.572 43.9434 107.679 44.9316 107.679 46.3281C107.679 47.7461 106.572 48.7236 105.122 48.7236C103.672 48.7236 102.555 47.7461 102.555 46.3281C102.555 44.9316 103.672 43.9434 105.122 43.9434ZM105.122 44.835C104.22 44.835 103.554 45.4473 103.554 46.3281C103.554 47.2305 104.22 47.832 105.122 47.832C106.003 47.832 106.68 47.2305 106.68 46.3281C106.68 45.4473 106.003 44.835 105.122 44.835ZM119.366 43.2881V47.1875H120.913V48.0361H119.366V52.9131H118.356V43.2881H119.366ZM117.519 44.792V45.6299H111.814V44.792H114.188V43.417H115.209V44.792H117.519ZM114.704 46.3389C116.079 46.3389 117.089 47.2627 117.1 48.5732C117.089 49.8945 116.079 50.8076 114.704 50.8184C113.318 50.8076 112.309 49.8945 112.309 48.5732C112.309 47.2627 113.318 46.3389 114.704 46.3389ZM114.704 47.1768C113.888 47.1768 113.275 47.7461 113.286 48.5732C113.275 49.4111 113.888 49.9697 114.704 49.959C115.521 49.9697 116.122 49.4111 116.122 48.5732C116.122 47.7461 115.521 47.1768 114.704 47.1768ZM129.163 44.2119V45.1572C129.163 46.3496 129.163 47.6816 128.798 49.6475L127.767 49.54C128.143 47.6816 128.143 46.3174 128.143 45.1572V45.0391H122.299V44.2119H129.163ZM130.151 50.7646V51.6133H121.375V50.7646H124.716V47.3701H125.726V50.7646H130.151ZM47.168 58.9541V61.8545H43.8809V63.2402C45.5889 63.2349 46.6685 63.1865 47.9199 62.9717L48.0166 63.8096C46.6631 64.0244 45.5029 64.0674 43.623 64.0674H42.8604V61.0488H46.1582V59.7705H42.8389V58.9541H47.168ZM50.498 58.2988V65.3672H49.4775V61.6074H47.748V60.7373H49.4775V58.2988H50.498ZM50.7773 66.8818V67.709H44.1816V64.8193H45.2021V66.8818H50.7773ZM59.9512 58.2881V67.9131H58.9307V58.2881H59.9512ZM55.6006 61.3818C55.6006 62.918 56.6211 64.4863 58.1143 65.1201L57.5557 65.9043C56.4492 65.4209 55.563 64.4219 55.1172 63.208C54.6821 64.4917 53.812 65.5605 52.6895 66.0654L52.1201 65.2812C53.6133 64.6152 54.6016 62.9932 54.6016 61.3818V60.748H52.4102V59.9316H54.5908V58.4814H55.6006V59.9316H57.7598V60.748H55.6006V61.3818ZM64.3984 60.3291C64.3984 61.3926 65.0859 62.4453 66.3105 62.9072L65.8271 63.6807C64.9194 63.3262 64.2856 62.6602 63.9473 61.8545C63.6035 62.7461 62.9644 63.4873 62.0352 63.874L61.5303 63.1221C62.7549 62.6172 63.4316 61.4785 63.4316 60.3291V60.3184H61.7559V59.5127H63.4316V58.4277H64.3984V59.5127H66.0527V60.3184H64.3984V60.3291ZM69.6943 58.2988V64.7979H68.7275V61.543H67.6318V63.96H66.6543V58.46H67.6318V60.6943H68.7275V58.2988H69.6943ZM66.9443 64.5938C66.9443 65.7754 68.373 66.8174 70.167 67.0752L69.8125 67.8701C68.2979 67.6392 67.0249 66.9141 66.4395 65.8936C65.8379 66.9141 64.5649 67.6392 63.0664 67.8701L62.7012 67.0752C64.5059 66.8174 65.9238 65.7754 65.9238 64.5938V64.3789H66.9443V64.5938ZM75.377 58.4492C77.5469 58.4492 78.8145 59.0293 78.8145 60.1035C78.8145 61.1777 77.5469 61.7686 75.377 61.7686C73.207 61.7686 71.9395 61.1777 71.9395 60.1035C71.9395 59.0293 73.207 58.4492 75.377 58.4492ZM75.377 59.2012C73.8408 59.2012 72.9922 59.5342 73.0029 60.1035C72.9922 60.6943 73.8408 61.0059 75.377 61.0059C76.9131 61.0059 77.7617 60.6943 77.7617 60.1035C77.7617 59.5342 76.9131 59.2012 75.377 59.2012ZM79.7705 62.3594V63.1758H70.9941V62.3594H79.7705ZM78.6641 63.917V66.1729H73.0566V67.0322H78.9326V67.8164H72.0576V65.4316H77.6543V64.6797H72.0469V63.917H78.6641ZM91.9951 65.8613V66.71H83.1865V65.8613H85.292V63.3477C84.5024 62.9126 84.0244 62.2197 84.0244 61.3604C84.0244 59.8457 85.5068 58.8467 87.5693 58.8467C89.6426 58.8467 91.125 59.8457 91.125 61.3604C91.125 62.209 90.6631 62.8911 89.8896 63.3262V65.8613H91.9951ZM87.5693 59.6631C86.0547 59.6631 85.0127 60.3184 85.0127 61.3604C85.0127 62.3916 86.0547 63.0684 87.5693 63.0684C89.0732 63.0684 90.1367 62.3916 90.1367 61.3604C90.1367 60.3184 89.0732 59.6631 87.5693 59.6631ZM86.3018 65.8613H88.8584V63.7129C88.4663 63.8149 88.0312 63.8633 87.5693 63.8633C87.1182 63.8633 86.6885 63.8149 86.3018 63.7236V65.8613ZM96.0664 60.3398C96.0664 61.4678 97.001 62.5312 98.4619 62.9395L97.9785 63.7344C96.8667 63.4175 96.0234 62.73 95.583 61.8438C95.1641 62.8374 94.3262 63.6216 93.1768 63.9814L92.6934 63.1973C94.1543 62.7246 95.0566 61.5752 95.0566 60.3398V60.2217H92.9619V59.4053H95.0566V58.2451H96.0771V59.4053H98.1611V60.2217H96.0664V60.3398ZM100.718 58.2881V64.1211H99.6973V61.8223H97.8604V60.9844H99.6973V58.2881H100.718ZM97.4951 64.3359C99.5039 64.3359 100.75 64.9805 100.75 66.1084C100.75 67.2471 99.5039 67.9023 97.4951 67.8916C95.4756 67.9023 94.2295 67.2471 94.2402 66.1084C94.2295 64.9805 95.4756 64.3359 97.4951 64.3359ZM97.4951 65.1309C96.0879 65.1309 95.25 65.4854 95.25 66.1084C95.25 66.7314 96.0879 67.1074 97.4951 67.1074C98.9131 67.1074 99.7402 66.7314 99.7402 66.1084C99.7402 65.4854 98.9131 65.1309 97.4951 65.1309ZM106.959 59.8779V60.7051H102.179V59.8779H104.069V58.5674H105.079V59.8779H106.959ZM104.574 61.2852C105.799 61.2852 106.658 62.1982 106.669 63.498C106.658 64.8086 105.799 65.7324 104.574 65.7324C103.371 65.7324 102.479 64.8086 102.49 63.498C102.479 62.1982 103.371 61.2852 104.574 61.2852ZM104.574 62.1338C103.876 62.1338 103.393 62.7031 103.393 63.498C103.393 64.3145 103.876 64.8623 104.574 64.8623C105.262 64.8623 105.767 64.3145 105.767 63.498C105.767 62.7031 105.262 62.1338 104.574 62.1338ZM110.439 58.2881V67.9131H109.473V63.1328H108.366V67.4619H107.399V58.5029H108.366V62.2949H109.473V58.2881H110.439ZM120.516 65.8721V66.7207H111.707V65.8721H115.585V63.8955H112.717V58.9434H113.737V60.5977H118.464V58.9434H119.474V63.8955H116.595V65.8721H120.516ZM113.737 63.0684H118.464V61.4248H113.737V63.0684ZM124.146 60.9199C124.146 62.4561 124.791 64.0996 126.08 64.8838L125.511 65.668C124.608 65.1255 123.996 64.1641 123.674 63.0469C123.314 64.2715 122.653 65.3135 121.719 65.8828L121.085 65.1201C122.449 64.3037 123.158 62.6064 123.158 60.9629V59.1689H124.146V60.9199ZM129.496 58.2881V67.9131H128.519V58.2881H129.496ZM127.498 58.4707V67.4404H126.531V62.5205H125.038V61.6719H126.531V58.4707H127.498ZM139.529 65.8613V66.71H130.721V65.8613H132.826V63.3477C132.037 62.9126 131.559 62.2197 131.559 61.3604C131.559 59.8457 133.041 58.8467 135.104 58.8467C137.177 58.8467 138.659 59.8457 138.659 61.3604C138.659 62.209 138.197 62.8911 137.424 63.3262V65.8613H139.529ZM135.104 59.6631C133.589 59.6631 132.547 60.3184 132.547 61.3604C132.547 62.3916 133.589 63.0684 135.104 63.0684C136.607 63.0684 137.671 62.3916 137.671 61.3604C137.671 60.3184 136.607 59.6631 135.104 59.6631ZM133.836 65.8613H136.393V63.7129C136 63.8149 135.565 63.8633 135.104 63.8633C134.652 63.8633 134.223 63.8149 133.836 63.7236V65.8613ZM142 59.2227L141.903 64.7549H140.84L140.743 59.2227H142ZM141.377 67.0752C140.958 67.0752 140.604 66.7314 140.614 66.3125C140.604 65.8936 140.958 65.5498 141.377 65.5498C141.785 65.5498 142.14 65.8936 142.14 66.3125C142.14 66.7314 141.785 67.0752 141.377 67.0752Z" fill="#F56156"/>
</svg>
