<svg width="126" height="50" viewBox="0 0 126 50" fill="none" xmlns="http://www.w3.org/2000/svg">
<path d="M27.6851 26V8.32422H31.3472V15.6484H39.0132V8.32422H42.6997V26H39.0132V18.6758H31.3472V26H27.6851ZM61.8647 17.1621C61.8647 22.9238 58.2759 26.2441 53.6128 26.2441C48.9009 26.2441 45.3364 22.8994 45.3364 17.1621C45.3364 11.4004 48.9009 8.08008 53.6128 8.08008C58.2759 8.08008 61.8647 11.4004 61.8647 17.1621ZM58.1294 17.1621C58.1294 13.3779 56.3472 11.3271 53.6128 11.3271C50.8784 11.3271 49.0718 13.3779 49.0718 17.1621C49.0718 20.9463 50.8784 22.9971 53.6128 22.9971C56.3472 22.9971 58.1294 20.9463 58.1294 17.1621ZM64.5015 8.32422H69.0425L73.9497 20.3115H74.145L79.0522 8.32422H83.5933V26H80.0288V14.4277H79.8823L75.2681 25.9268H72.8267L68.2124 14.3789H68.0659V26H64.5015V8.32422ZM86.5718 26V8.32422H98.437V11.3516H90.2339V15.6484H97.8267V18.6758H90.2339V22.9727H98.4614V26H86.5718Z" fill="#F56156"/>
<path d="M5.04883 37.9541V40.8545H1.76172V42.2402C3.46973 42.2349 4.54932 42.1865 5.80078 41.9717L5.89746 42.8096C4.54395 43.0244 3.38379 43.0674 1.50391 43.0674H0.741211V40.0488H4.03906V38.7705H0.719727V37.9541H5.04883ZM8.37891 37.2988V44.3672H7.3584V40.6074H5.62891V39.7373H7.3584V37.2988H8.37891ZM8.6582 45.8818V46.709H2.0625V43.8193H3.08301V45.8818H8.6582ZM17.832 37.2881V46.9131H16.8115V37.2881H17.832ZM13.4814 40.3818C13.4814 41.918 14.502 43.4863 15.9951 44.1201L15.4365 44.9043C14.3301 44.4209 13.4438 43.4219 12.998 42.208C12.563 43.4917 11.6929 44.5605 10.5703 45.0654L10.001 44.2812C11.4941 43.6152 12.4824 41.9932 12.4824 40.3818V39.748H10.291V38.9316H12.4717V37.4814H13.4814V38.9316H15.6406V39.748H13.4814V40.3818ZM22.2793 39.3291C22.2793 40.3926 22.9668 41.4453 24.1914 41.9072L23.708 42.6807C22.8003 42.3262 22.1665 41.6602 21.8281 40.8545C21.4844 41.7461 20.8452 42.4873 19.916 42.874L19.4111 42.1221C20.6357 41.6172 21.3125 40.4785 21.3125 39.3291V39.3184H19.6367V38.5127H21.3125V37.4277H22.2793V38.5127H23.9336V39.3184H22.2793V39.3291ZM27.5752 37.2988V43.7979H26.6084V40.543H25.5127V42.96H24.5352V37.46H25.5127V39.6943H26.6084V37.2988H27.5752ZM24.8252 43.5938C24.8252 44.7754 26.2539 45.8174 28.0479 46.0752L27.6934 46.8701C26.1787 46.6392 24.9058 45.9141 24.3203 44.8936C23.7188 45.9141 22.4458 46.6392 20.9473 46.8701L20.582 46.0752C22.3867 45.8174 23.8047 44.7754 23.8047 43.5938V43.3789H24.8252V43.5938ZM30.6045 45.2588L29.7451 48.2236H28.832L29.4014 45.2588H30.6045ZM42.3457 37.2881V46.9346H41.3252V37.2881H42.3457ZM37.2002 38.0078C38.6289 38.0078 39.6816 39.3184 39.6816 41.3809C39.6816 43.4541 38.6289 44.7646 37.2002 44.7646C35.75 44.7646 34.708 43.4541 34.708 41.3809C34.708 39.3184 35.75 38.0078 37.2002 38.0078ZM37.2002 38.9209C36.3086 38.9209 35.6963 39.8662 35.6963 41.3809C35.6963 42.9062 36.3086 43.8516 37.2002 43.8516C38.0811 43.8516 38.6934 42.9062 38.6934 41.3809C38.6934 39.8662 38.0811 38.9209 37.2002 38.9209ZM51.9062 37.2881V42.541H50.8857V39.9414H49.1562V39.1143H50.8857V37.2881H51.9062ZM52.0996 43.0674V43.8408H45.3213V43.0674H48.2109V42.208H49.2314V43.0674H52.0996ZM48.7051 44.2061C50.4346 44.1953 51.4443 44.668 51.4443 45.5488C51.4443 46.4404 50.4346 46.9023 48.7051 46.8916C46.9863 46.9023 45.9873 46.4404 45.9873 45.5488C45.9873 44.668 46.9863 44.1953 48.7051 44.2061ZM48.7051 44.915C47.5771 44.915 46.9756 45.1514 46.9756 45.5488C46.9756 45.9678 47.5771 46.1826 48.7051 46.1826C49.8438 46.1826 50.4453 45.9678 50.4453 45.5488C50.4453 45.1514 49.8438 44.915 48.7051 44.915ZM48.5762 37.7285V40.1777H45.2891V41.1768C46.8735 41.1714 48.0068 41.1284 49.3281 40.8867L49.4248 41.6924C47.9854 41.9395 46.7715 41.9824 45.0205 41.9824H44.2686V39.4473H47.5664V38.502H44.2471V37.7285H48.5762ZM61.6602 37.2881V46.9131H60.6934V37.2881H61.6602ZM59.6299 37.5352V46.4404H58.6631V41.9717H56.7832C56.2085 43.0889 55.2954 44.0664 53.9365 44.8613L53.3564 44.1309C55.3975 42.917 56.3804 41.3003 56.5576 39.3184H53.8076V38.4805H57.5674C57.562 39.4204 57.4331 40.3174 57.1377 41.1553H58.6631V37.5352H59.6299ZM69.1152 39.7373C69.1045 41.499 70.168 43.2607 71.6611 43.9268L71.0488 44.7324C69.9424 44.2061 69.0669 43.1265 68.6211 41.8105C68.1699 43.2178 67.2837 44.3833 66.1289 44.9473L65.5059 44.0879C67.0205 43.4111 68.084 41.5742 68.084 39.7373V38.0938H69.1152V39.7373ZM73.5518 37.2881V46.9346H72.5312V37.2881H73.5518ZM78.4502 39.0176C78.4502 40.2422 79.2988 41.4131 80.7705 41.9072L80.2549 42.7021C79.1646 42.3262 78.3643 41.5742 77.9453 40.6289C77.5264 41.6709 76.6938 42.4873 75.5605 42.8848L75.0127 42.0898C76.5166 41.5742 77.4189 40.3389 77.4297 39.0068V38.749H75.3135V37.9219H80.5234V38.749H78.4502V39.0176ZM82.6504 37.2881V39.7588H84.0469V40.6182H82.6504V43.0889H81.6299V37.2881H82.6504ZM82.6504 43.5615V46.9131H81.6299V44.3887H76.291V43.5615H82.6504ZM89.3535 38.8779V39.7051H84.5732V38.8779H86.4639V37.5674H87.4736V38.8779H89.3535ZM86.9688 40.2852C88.1934 40.2852 89.0527 41.1982 89.0635 42.498C89.0527 43.8086 88.1934 44.7324 86.9688 44.7324C85.7656 44.7324 84.874 43.8086 84.8848 42.498C84.874 41.1982 85.7656 40.2852 86.9688 40.2852ZM86.9688 41.1338C86.2705 41.1338 85.7871 41.7031 85.7871 42.498C85.7871 43.3145 86.2705 43.8623 86.9688 43.8623C87.6562 43.8623 88.1611 43.3145 88.1611 42.498C88.1611 41.7031 87.6562 41.1338 86.9688 41.1338ZM92.834 37.2881V46.9131H91.8672V42.1328H90.7607V46.4619H89.7939V37.5029H90.7607V41.2949H91.8672V37.2881H92.834ZM102.91 44.8721V45.7207H94.1016V44.8721H97.9795V42.8955H95.1113V37.9434H96.1318V39.5977H100.858V37.9434H101.868V42.8955H98.9893V44.8721H102.91ZM96.1318 42.0684H100.858V40.4248H96.1318V42.0684ZM106.541 39.9199C106.541 41.4561 107.186 43.0996 108.475 43.8838L107.905 44.668C107.003 44.1255 106.391 43.1641 106.068 42.0469C105.708 43.2715 105.048 44.3135 104.113 44.8828L103.479 44.1201C104.844 43.3037 105.553 41.6064 105.553 39.9629V38.1689H106.541V39.9199ZM111.891 37.2881V46.9131H110.913V37.2881H111.891ZM109.893 37.4707V46.4404H108.926V41.5205H107.433V40.6719H108.926V37.4707H109.893ZM121.924 44.8613V45.71H113.115V44.8613H115.221V42.3477C114.431 41.9126 113.953 41.2197 113.953 40.3604C113.953 38.8457 115.436 37.8467 117.498 37.8467C119.571 37.8467 121.054 38.8457 121.054 40.3604C121.054 41.209 120.592 41.8911 119.818 42.3262V44.8613H121.924ZM117.498 38.6631C115.983 38.6631 114.941 39.3184 114.941 40.3604C114.941 41.3916 115.983 42.0684 117.498 42.0684C119.002 42.0684 120.065 41.3916 120.065 40.3604C120.065 39.3184 119.002 38.6631 117.498 38.6631ZM116.23 44.8613H118.787V42.7129C118.395 42.8149 117.96 42.8633 117.498 42.8633C117.047 42.8633 116.617 42.8149 116.23 42.7236V44.8613ZM124.395 38.2227L124.298 43.7549H123.234L123.138 38.2227H124.395ZM123.771 46.0752C123.353 46.0752 122.998 45.7314 123.009 45.3125C122.998 44.8936 123.353 44.5498 123.771 44.5498C124.18 44.5498 124.534 44.8936 124.534 45.3125C124.534 45.7314 124.18 46.0752 123.771 46.0752Z" fill="#F56156"/>
</svg>
